<?xml version="1.0" encoding="UTF-8" standalone="no"?>
<!DOCTYPE svg  PUBLIC '-//W3C//DTD SVG 1.1//EN'  'http://www.w3.org/Graphics/SVG/1.1/DTD/svg11.dtd'>
<svg version="1.1" xmlns="http://www.w3.org/2000/svg">
<defs>
<font id="Souvenir-Light-Bold" horiz-adv-x="339">
<font-face ascent="800" font-family="Memory" font-weight="5" cap-height="740" underline-thickness="50" panose-1="0 0 0 0 0 0 0 0 0 0" unicode-range="U+0020-00FE" bbox="-36 -293 1032 1026.04" x-height="480" underline-position="-155" units-per-em="1000" descent="-200"/>
<missing-glyph/>
<glyph unicode=" " glyph-name="space"/>
<glyph unicode=" " glyph-name="space"/>
<glyph unicode="!" d="M87 71q0 34 29.5 51.5t64.5 17.5h1.5h1.5q34 0 63 -17.5t29 -52.5q0 -41 -29.5 -62t-64.5 -23h-1.5h-1.5q-34 0 -63 21t-29 64v1zM142 220l-63 394q-1 12 -2 23.5t-1 21.5q0 41 20 64.5t85 23.5q62 0 81 -21t19 -53q0 -11 -1 -22l-2 -22q-1 -4 -1.5 -8t-0.5 -8l-56 -393 q0 -18 -12 -27t-26 -9q-15 -1 -27.5 8t-12.5 27v1z" horiz-adv-x="354" glyph-name="exclam"/>
<glyph unicode='&quot;' d="M197 417h-47l-40 229q-1 5 -1.5 10.5t-0.5 10.5q0 38 21 56.5t46 18.5h1.5h1.5q25 0 46.5 -19t21.5 -55v-11t-2 -12l-47 -228v0zM425 417h-47l-47 229q-1 5 -1.5 11t-0.5 11q0 37 20.5 55.5t45.5 19.5h1.5h1.5q25 -1 46.5 -21.5t21.5 -60.5v-7.5t-1 -8.5l-40 -228v0z" horiz-adv-x="575" glyph-name="quotedbl"/>
<glyph unicode="#" d="M134 244h-63q-17 -1 -26 12.5t-9 29.5q0 17 8.5 30.5t26.5 13.5l94 1l40 118h-63q-19 2 -29.5 14t-11.5 27v1v2q-1 16 9.5 28.5t31.5 12.5l94 1l24 71q6 24 19.5 37t28.5 17q3 0 5.5 0.5t5.5 0.5q18 1 31.5 -10.5t13.5 -31.5q0 -3 -0.5 -6.5t-1.5 -7.5l-23 -70h110l31 87 q7 22 19.5 33t26.5 13h2.5h2.5q18 0 32 -13t14 -34v-4t-1 -4q0 -2 -0.5 -4t-0.5 -4l-24 -70h63q17 -1 26 -14t9 -29t-8.5 -30t-26.5 -14l-94 1l-40 -118h63q20 -1 30.5 -14t10.5 -30q0 -16 -10 -30t-31 -14l-94 1l-40 -110q-4 -20 -16.5 -28t-26.5 -8h-1.5h-1.5 q-19 1 -34.5 13.5t-15.5 32.5q0 3 0.5 6t1.5 6l31 88h-110l-31 -94q-7 -27 -21 -39t-29 -14h-2.5h-2.5q-19 0 -34 12.5t-16 29.5q0 2 0.5 4.5t1.5 5.5l32 95v0zM307 449l-39 -118h110l39 118h-110v0z" horiz-adv-x="677" glyph-name="numbersign"/>
<glyph unicode="$" d="M299 16q-19 -1 -44.5 4t-52.5 16q-49 19 -90 55t-41 89q0 16 17.5 28.5t38.5 13.5h1.5h1.5q17 0 31.5 -9.5t19.5 -32.5q16 -52 56 -78.5t85 -30.5q4 -1 8 -1h8q49 -1 88.5 25.5t45.5 76.5q0 18 -9.5 34.5t-30.5 32.5q-22 16 -56.5 32.5t-84.5 34.5q-76 29 -133.5 68 t-63.5 121v4v5v4v4q-1 86 51 136.5t154 67.5v103q0 19 12 29.5t27 10.5q15 1 27.5 -9.5t12.5 -31.5v-101q13 -1 27 -2.5t28 -4.5q50 -10 92 -38.5t42 -74.5q0 -25 -18.5 -45t-41.5 -20q-14 0 -27.5 10t-22.5 32l-4 10l-4 10q-15 36 -36.5 51t-73.5 15q-55 0 -84 -29t-29 -65 v-3.5v-3.5q2 -23 16 -44.5t41 -35.5q14 -7 29.5 -13.5t32.5 -12.5q16 -6 32 -11.5t32 -12.5q72 -27 132.5 -72t64.5 -138q0 -82 -69.5 -143t-158.5 -61v-102q0 -17 -12 -26t-27 -9q-15 -1 -27.5 8t-12.5 27v103v0z" horiz-adv-x="677" glyph-name="dollar"/>
<glyph unicode="%" d="M520 197q3 103 65.5 155t136.5 53h1.5h1.5q77 0 140.5 -52.5t63.5 -156.5q0 -120 -64 -180t-140 -61h-1.5h-1.5q-76 -1 -139 57t-63 175v4.5v4.5v1zM724 8q35 -1 52.5 53.5t18.5 119.5q0 68 -18.5 124t-55.5 56h-2h-2q-29 0 -45 -54.5t-16 -119.5v-1.5v-1.5 q0 -67 16.5 -122t51.5 -55v1zM181 31l504 678q7 9 13 14.5t11 9.5q8 4 16.5 5t22.5 1q24 0 36.5 -4t-4.5 -27l-512 -692q-3 -4 -6 -6.5t-5 -3.5q-8 -5 -17.5 -5.5t-26.5 -0.5q-20 0 -29.5 0.5t-10.5 7.5q0 4 2 9.5t6 12.5v1zM24 543q5 115 68.5 169.5t139.5 55.5h1.5h1.5 q77 -1 141.5 -57t64.5 -161q0 -122 -64.5 -182t-141.5 -61h-1.5h-1.5q-78 0 -143 57t-65 169v4.5v4.5v1zM228 362q43 -1 62 52t19 117v5.5v5.5q-2 68 -21.5 124.5t-51.5 56.5q-35 0 -53 -56.5t-19 -123.5v-3.5v-2.5q0 -67 16.5 -121.5t47.5 -54.5v1z" horiz-adv-x="937" glyph-name="percent"/>
<glyph unicode="&amp;" d="M496 55q-35 -35 -94 -57t-124 -22h-9.5t-9.5 1q-51 2 -100.5 22t-87.5 63q-20 22 -32 46t-16 48q-1 6 -1.5 12t-0.5 12q0 67 49.5 128t126.5 93q-37 45 -53.5 86t-16.5 76q0 85 75.5 134.5t175.5 49.5h2.5h2.5h2.5h2.5q83 1 142.5 -44t59.5 -107q0 -20 -7 -40.5 t-22 -41.5q-22 -30 -60.5 -58.5t-98.5 -54.5l165 -188q1 0 1.5 0.5l1.5 1.5q8 8 16 18.5t15 20.5q13 19 21 36t8 24v2t1 2v2v2q0 17 -10 26t-22 16q-2 1 -4.5 2t-4.5 2q-9 5 -16 10.5t-7 14.5q0 23 14 27t49 4l110 1q47 -1 63 -5t16 -27q0 -8 -3 -13t-8 -9 q-12 -10 -35.5 -25t-55.5 -56l-103 -133q3 -4 6 -7l6 -6q24 -21 54 -39t71 -18q10 0 21 1.5t23 4.5h3.5t3.5 1h3h3q22 -1 31.5 -9t10.5 -19v-2.5v-2.5q-2 -9 -8 -17.5t-15 -13.5q-31 -20 -70.5 -30t-80.5 -11q-51 0 -99 16t-81 49v1zM433 118l-189 221l-6 -6l-6 -6 q-23 -22 -42 -54t-19 -69q0 -10 2 -20.5t6 -21.5q2 -5 4.5 -10.5t5.5 -10.5q20 -33 53.5 -49.5t71.5 -16.5q6 0 12.5 0.5t12.5 1.5q25 3 49 13t45 27v1zM346 472q40 25 61.5 44.5t30.5 38.5q7 12 9 24t2 26q0 35 -24.5 53t-53.5 18q-30 1 -55 -17t-25 -54q0 -14 2 -26t6 -24 q6 -19 17.5 -38.5t29.5 -45.5v1z" horiz-adv-x="835" glyph-name="ampersand"/>
<glyph unicode="&apos;" d="M157 614q-47 -1 -68 18t-21 43v2.5v2.5q3 25 24.5 46t57.5 21h2h2h2h2q47 1 68 -25t21 -62q0 -10 -1.5 -21t-4.5 -22q-10 -37 -36 -71t-63 -51q-9 -4 -16 -6t-13 -2q-9 -1 -14 3t-5 11q0 6 4 12.5t12 13.5q12 9 21 20t15 23q5 12 8 23t3 20v1z" horiz-adv-x="315" glyph-name="quotesingle"/>
<glyph unicode="(" d="M220 -189q-41 48 -71 97t-51 98q-29 67 -42 133.5t-13 130.5q0 148 55.5 268.5t129.5 184.5q16 14 30.5 20.5t26.5 6.5q16 0 25.5 -9.5t9.5 -24.5q0 -9 -3 -19t-10 -21q-42 -68 -70 -171.5t-28 -226.5q0 -79 13 -163t44 -168q9 -24 19 -48.5t22 -48.5q2 -7 3.5 -12.5 t1.5 -10.5q0 -19 -12 -28t-29 -9q-4 0 -8.5 0.5t-8.5 1.5q-9 2 -17.5 7t-16.5 12v0z" glyph-name="parenleft"/>
<glyph unicode=")" d="M24 -150q60 108 83.5 210.5t24.5 196.5q0 107 -22 198.5t-49 162.5q-8 21 -15.5 39.5t-14.5 34.5q-2 5 -3 10t-1 9q0 18 13 28.5t32 11.5q6 0 12.5 -1t12.5 -4q10 -4 19.5 -11.5t17.5 -18.5q69 -86 108 -181.5t49 -192.5q2 -18 3 -35.5t1 -35.5q1 -128 -48 -247.5 t-145 -212.5q-5 -5 -10 -8.5t-10 -5.5q-6 -3 -11 -4t-10 -1q-16 -1 -27.5 9.5t-12.5 29.5q0 4 1 9l2 10v0z" glyph-name="parenright"/>
<glyph unicode="*" d="M173 559q-9 8 -26 11t-35 4h-12.5h-12.5q-24 4 -36 16t-14 25v2v2q0 14 10 25t26 12q11 0 24.5 -6t28.5 -21l6.5 -6.5t5.5 -7.5q12 -13 21 -25t17 -15q1 -1 2.5 -1h2.5q4 2 5.5 5.5t1.5 8.5q0 6 -2.5 14.5t-6.5 16.5q-2 6 -5 11.5t-6 10.5q-1 1 -1.5 2t-1.5 2 q-6 11 -8.5 21t-2.5 17q0 20 12.5 30.5t28.5 10.5q16 1 29 -9.5t13 -31.5q0 -8 -2 -17.5t-7 -20.5q-2 -8 -4.5 -15.5t-4.5 -14.5q-5 -14 -9.5 -25.5t-4.5 -15.5q5 -3 9 -2t8 5q6 6 13 18.5t16 25.5q7 9 14.5 17t17.5 15q8 4 14.5 6t13.5 2q18 0 30.5 -11t12.5 -26v-4t-1 -4 q-2 -9 -11 -18t-27 -16q-6 -3 -12.5 -4.5t-13.5 -2.5q-9 -2 -17.5 -3t-16.5 -2q-14 -1 -25 -3.5t-17 -8.5q3 -10 21.5 -14t40.5 -6h1.5h1.5q17 -2 31 -4t22 -7q7 -5 12 -10t9 -10q3 -6 4.5 -11t1.5 -10q0 -16 -12.5 -28t-31.5 -12q-6 0 -13 2t-14 6q-7 3 -14 9.5t-13 15.5 q-18 24 -31 40.5t-24 22.5q0 -11 4.5 -27t10.5 -33q4 -9 8 -17.5t8 -16.5q5 -8 6.5 -16t1.5 -15q0 -20 -14.5 -31t-31.5 -11q-16 -1 -30 9.5t-14 31.5q0 8 2.5 18t8.5 22l6.5 13l6.5 13q5 14 9 27t4 22v6t-2 5q-9 -6 -16.5 -14t-14.5 -18q-3 -4 -5.5 -7.5t-5.5 -6.5 q-5 -7 -10 -13t-11 -12q-13 -15 -24.5 -22t-22.5 -7q-16 0 -26.5 11.5t-10.5 27.5v3.5v2.5q2 12 10.5 22.5t26.5 17.5q5 1 11.5 2t13.5 2q3 0 6.5 0.5t7.5 1.5q20 3 37.5 8t17.5 17v1z" horiz-adv-x="394" glyph-name="asterisk"/>
<glyph unicode="+" d="M291 31v213h-220v95h220v212h95v-212h212v-95h-212v-213h-95v0z" horiz-adv-x="654" glyph-name="plus"/>
<glyph unicode="," d="M173 0q-7 -2 -14 -3t-14 -1q-33 -1 -52.5 20t-20.5 49q0 11 4 22.5t11 21.5q13 18 35 27t46 9h2.5h3.5q38 -2 70 -27.5t32 -78.5v-4.5v-4.5q0 -14 -3.5 -27.5t-9.5 -28.5q-13 -29 -37.5 -57t-60.5 -51q-10 -7 -20 -10t-18 -3q-13 -1 -20.5 5t-8.5 13q0 3 1 6t3 5 q24 23 44.5 53t26.5 65v0z" glyph-name="comma"/>
<glyph unicode="-" d="M173 346h79q35 -1 49 -14.5t14 -49.5q0 -35 -14 -49t-49 -14l-165 1q-36 -1 -49.5 13t-13.5 49q0 36 13.5 49.5t49.5 13.5l86 1v0z" glyph-name="hyphen"/>
<glyph unicode="." d="M71 71q3 37 33 56t65 19h1.5h1.5q35 0 64 -19.5t32 -56.5v-2.5v-3.5q0 -37 -31 -58t-69 -21q-35 0 -64.5 20t-32.5 65v1z" glyph-name="period"/>
<glyph unicode="/" d="M189 299l181 402q3 6 6 11t5 10q6 10 14.5 13.5t29.5 3.5q17 0 22 -4.5t5 -9.5q0 -3 -0.5 -5t-0.5 -5q-1 -2 -1.5 -3.5t-0.5 -3.5l-370 -810l-2 -4t-2 -5q0 -1 -0.5 -2t-0.5 -2q-4 -10 -12.5 -18.5t-30.5 -8.5q-29 0 -31.5 12t8.5 36l181 393v0z" horiz-adv-x="457" glyph-name="slash"/>
<glyph unicode="0" d="M31 378q0 164 82 270.5t218 106.5t221.5 -109t85.5 -269t-82.5 -276.5t-224.5 -116.5q-137 0 -218.5 107.5t-81.5 266.5v4.5v5.5v4.5v4.5v1zM441 378q0 117 -22.5 211.5t-87.5 94.5q-49 0 -73.5 -66.5t-32.5 -146.5q-3 -26 -4 -52t-1 -50t1 -50t4 -52q8 -80 32.5 -146.5 t73.5 -66.5q65 0 87.5 99.5t22.5 223.5v1z" horiz-adv-x="677" glyph-name="zero"/>
<glyph unicode="1" d="M260 118v433q0 37 -23.5 46.5t-52.5 11.5h-6.5h-7.5q-24 0 -42 3t-18 20v1.5v1.5v0.5v1.5q0 20 20 27.5t47 11.5q7 2 13.5 3t13.5 2q15 3 29.5 7.5t26.5 11.5q43 20 79 34t61 14q20 0 30.5 -11t10.5 -37v-582q0 -35 20 -42t43 -9q22 -1 41 -6t22 -31q0 -17 -13 -23.5 t-42 -6.5h-315q-41 0 -56 3.5t-15 26.5q0 22 18 27t40 7h4.5t4.5 1q25 2 46 10.5t21 41.5v1z" horiz-adv-x="677" glyph-name="one"/>
<glyph unicode="2" d="M276 126h173q30 -1 47 5t31 16q6 3 12 7.5t12 9.5q16 11 27.5 15.5t20.5 4.5q14 1 19.5 -9t6.5 -23v-4.5t-1 -4.5q0 -3 -0.5 -5.5t-1.5 -4.5l-31 -94q-6 -30 -26 -34.5t-85 -4.5h-354q-37 0 -53.5 11.5t-16.5 32.5q-1 38 44 98.5t111 125.5q14 14 28 27.5t29 26.5 q13 13 31.5 32.5t38.5 43.5q21 23 39.5 50.5t31.5 54.5q8 18 12.5 35.5t4.5 33.5v9.5t-1 8.5q-10 47 -36.5 67.5t-57.5 20.5h-5.5t-5.5 -1q-38 -3 -70.5 -31t-32.5 -65q0 -10 2.5 -19.5t8.5 -19.5q6 -8 8.5 -16t2.5 -15q0 -24 -23 -38t-52 -15q-17 0 -33 5.5t-29 15.5 q-17 16 -25.5 35.5t-8.5 40.5q0 9 1.5 18.5t4.5 19.5q18 59 87.5 108.5t177.5 53.5h5.5t5.5 1h5h6q10 0 20.5 -0.5t21.5 -2.5q77 -9 141.5 -55.5t69.5 -139.5v-2v-1v-2v-2q0 -75 -61 -146.5t-135 -139.5q-39 -36 -76.5 -71t-65.5 -69v1z" horiz-adv-x="677" glyph-name="two"/>
<glyph unicode="3" d="M425 386q78 -5 130.5 -55t52.5 -124q0 -26 -8 -55t-25 -59q-37 -61 -105.5 -88t-144.5 -27q-84 0 -158.5 29t-103.5 79q-8 14 -12 27.5t-4 25.5q0 30 20.5 47.5t50.5 17.5q59 0 69 -15t10 -56q0 -38 31.5 -62t70.5 -24h3.5h2.5q39 2 72.5 33t39.5 100v4t1 5v4v4 q0 66 -40.5 107t-115.5 42h-4.5h-4.5q-2 -1 -4.5 -1h-4.5h-2h-2h-2h-2q-27 -1 -41 11.5t-14 27.5v1.5v1.5q1 11 12 20.5t32 9.5h3h3q1 -1 2.5 -1h2.5q2 0 4 -0.5t5 -0.5h4h4q55 0 98 37.5t43 113.5q0 56 -25.5 80.5t-56.5 26.5h-1.5h-1.5q-28 0 -51.5 -16.5t-23.5 -43.5v-4 t1 -4q0 -2 0.5 -4t0.5 -4q2 -8 3.5 -15.5t1.5 -14.5q0 -27 -17.5 -41.5t-50.5 -14.5q-53 0 -69.5 21.5t-16.5 57.5q0 71 76.5 112t168.5 41h4.5h4.5q72 -2 136.5 -31t89.5 -91q3 -8 5.5 -16t4.5 -16l2 -16t1 -16q0 -55 -38.5 -102t-116.5 -70v1z" horiz-adv-x="677" glyph-name="three"/>
<glyph unicode="4" d="M323 181h-244q-26 -1 -36.5 10t-10.5 29q0 17 7 38t17 43q2 5 4 9.5t4 9.5q4 9 8 17t7 16q34 81 87 159t110 147q2 3 3.5 5t3.5 4l2 2l2 2q29 34 61.5 54.5t84.5 20.5q59 0 69 -23.5t10 -70.5v-393h86q18 -1 27 -13t9 -27t-9 -27.5t-27 -12.5l-86 1v-87q0 -25 8.5 -30 t19.5 -6q10 -1 18.5 -6t8.5 -29q0 -18 -14 -20.5t-49 -2.5h-165q-47 0 -63 2.5t-16 20.5q0 21 10 26.5t22 8.5q11 3 21 8.5t10 26.5v88v0zM323 260v338q-67 -93 -109 -163t-66 -136q-4 -10 -7.5 -20t-6.5 -20l189 1v0z" horiz-adv-x="677" glyph-name="four"/>
<glyph unicode="5" d="M197 441q47 13 87.5 19t75.5 7q132 0 192 -69t63 -151v-5v-4q0 -37 -10 -72.5t-30 -64.5q-37 -58 -102 -85.5t-135 -30.5h-8.5h-8.5q-90 0 -166 35.5t-92 96.5q-1 7 -2 13t-1 11q0 34 24.5 51.5t54.5 17.5q29 0 52.5 -16.5t23.5 -50.5q0 -2 -0.5 -5.5t-0.5 -6.5 q0 -1 -0.5 -2.5t-0.5 -3.5q-1 -2 -1 -4.5v-4.5q0 -27 23.5 -42.5t54.5 -15.5q7 0 14 1l14 2q40 9 73.5 46.5t33.5 111.5q0 90 -40 132.5t-93 43.5q-7 0 -14 -0.5t-14 -2.5q-17 -3 -34 -11t-33 -20q-19 -13 -34 -20t-26 -8q-13 0 -20 11t-7 33l32 379q19 -2 40 -3.5t44 -3.5 q16 -1 32.5 -2.5t32.5 -2.5q31 -1 61 -2.5t57 -1.5q29 0 54 1.5t41 5.5q12 4 22 5.5t18 1.5q19 0 26 -7.5t8 -18.5q0 -4 -1 -9l-2 -10q-3 -9 -8 -18t-10 -16q-1 -2 -2.5 -3.5l-3.5 -3.5q-29 -29 -78 -40.5t-102 -13.5h-13.5h-12.5q-30 0 -58.5 1.5t-51.5 3.5q-6 1 -11.5 1.5 t-10.5 0.5l-16 -180v0z" horiz-adv-x="677" glyph-name="five"/>
<glyph unicode="6" d="M252 417q41 20 80 29.5t73 9.5q103 0 165.5 -67t63.5 -158q0 -5 -0.5 -10.5t-0.5 -10.5q-1 -6 -1.5 -11.5t-1.5 -10.5q-18 -100 -105.5 -154.5t-188.5 -54.5q-111 -1 -203.5 72t-93.5 233q0 22 2 45t6 48q24 149 130.5 243.5t230.5 120.5q21 4 41.5 6.5t41.5 2.5h11.5 t10.5 -1q5 0 10.5 -0.5t11.5 -1.5q26 -3 39 -12.5t15 -21.5v-1v-2q0 -13 -12.5 -23.5t-33.5 -10.5q-130 -12 -199 -70.5t-92 -189.5v1zM236 228q0 -89 32 -133.5t70 -44.5h1.5h1.5q37 2 68.5 46t31.5 131q0 77 -30.5 115t-68.5 39h-3h-3q-36 -3 -66.5 -41.5t-33.5 -112.5v1z " horiz-adv-x="677" glyph-name="six"/>
<glyph unicode="7" d="M457 606h-244q-36 -1 -50.5 -11.5t-20.5 -28.5q-6 -11 -13.5 -18.5t-15.5 -9.5q-2 -1 -4 -1.5t-4 -0.5q-13 0 -23.5 15t-10.5 46l8 88q0 28 13 37t65 9l371 1q44 -1 59 -4.5t15 -14.5q1 -7 -2.5 -18t-8.5 -27q-15 -37 -31 -79t-32 -87q-14 -37 -27.5 -76t-26.5 -78 q-26 -78 -48.5 -153.5t-39.5 -140.5q-2 -6 -3.5 -11t-3.5 -10q-9 -25 -23 -29t-49 -4h-102q-25 0 -37.5 7.5t-13.5 22.5q0 7 3 15t8 17l292 544v0z" horiz-adv-x="677" glyph-name="seven"/>
<glyph unicode="8" d="M189 378q-66 29 -96 71.5t-30 88.5v1.5v1.5q1 80 78.5 147t197.5 67q128 0 204 -51.5t76 -119.5q0 -7 -1 -14.5t-3 -15.5q-10 -35 -43 -68.5t-92 -61.5q81 -25 122.5 -83.5t41.5 -123.5v-2.5v-3.5q-2 -85 -77 -156t-228 -71q-154 0 -229.5 61.5t-75.5 137.5q0 5 0.5 9.5 t0.5 8.5q6 51 44.5 98.5t109.5 77.5v1zM268 331q-32 -22 -52 -53t-26 -63q-1 -7 -1.5 -13t-0.5 -12q0 -32 15.5 -59.5t48.5 -44.5q14 -8 31 -12.5t34 -5.5h6h6h1.5h1.5q48 1 88 25t40 71q0 11 -2.5 23t-8.5 25q-21 31 -63.5 57t-89.5 48q-7 3 -14 6.5t-14 6.5v1zM402 465 q21 11 34.5 26.5t21.5 32.5q8 16 11 31t3 27q-3 46 -37.5 71.5t-74.5 28.5h-4.5h-4.5q-41 0 -74 -24t-33 -76q0 -31 33 -55.5t73 -41.5q14 -6 27 -11.5t25 -9.5v1z" horiz-adv-x="677" glyph-name="eight"/>
<glyph unicode="9" d="M417 315q-43 -20 -81.5 -29t-72.5 -9q-103 0 -161 64.5t-59 150.5q0 14 1.5 29t5.5 29q5 22 14.5 44t22.5 43q32 50 95.5 77t136.5 27h14.5t14.5 -1q106 -7 194 -78.5t88 -218.5v-9v-10q-5 -179 -119.5 -295.5t-251.5 -141.5q-17 -3 -34 -4.5t-34 -1.5q-13 0 -25 0.5 t-24 2.5q-28 4 -43.5 12t-20.5 17q-1 3 -2 5.5t-1 4.5q0 13 13.5 22t34.5 10h2.5h2.5q2 -1 3.5 -1h2.5h6t6 -1q22 0 48 6t53 18q62 28 114 87t56 150v1zM228 504q6 -78 37 -116t67 -38q38 0 69.5 41t31.5 120q0 82 -31.5 123t-69.5 41q-39 0 -71.5 -43t-32.5 -129v1z" horiz-adv-x="677" glyph-name="nine"/>
<glyph unicode=":" d="M79 71q3 37 33 56t65 19h1.5h1.5q35 0 64 -19.5t32 -56.5v-1.5v-0.5v-1.5v-1.5q1 -36 -28 -56.5t-64 -23.5h-4h-4q-35 0 -64.5 20t-32.5 65v1zM79 378q3 37 33 56t65 19h1.5h1.5q35 0 64 -19.5t32 -56.5v-1.5v-0.5v-1.5v-1.5q1 -36 -28 -57t-64 -24h-4h-4 q-35 0 -64.5 20.5t-32.5 65.5v1z" glyph-name="colon"/>
<glyph unicode=";" d="M173 0q-7 -2 -14 -3t-14 -1q-33 -1 -52.5 20t-20.5 49q0 11 4 22.5t11 21.5q13 18 35 27t46 9h2.5h3.5q38 -2 70 -27.5t32 -78.5v-4.5v-4.5q0 -14 -3.5 -27.5t-9.5 -28.5q-13 -29 -37.5 -57t-60.5 -51q-10 -7 -20 -10t-18 -3q-13 -1 -20.5 5t-8.5 13q0 3 1 6t3 5 q24 23 44.5 53t26.5 65v0zM79 386q3 37 33 56t65 19h1.5h1.5q35 0 64 -19.5t32 -56.5v-1.5v-0.5v-1.5v-1.5q1 -38 -29.5 -59t-67.5 -22h-1.5h-1.5q-35 0 -64.5 20.5t-32.5 65.5v1z" glyph-name="semicolon"/>
<glyph unicode="&lt;" d="M55 244v95l551 252v-103l-449 -197l449 -204v-103l-551 260v0z" horiz-adv-x="654" glyph-name="less"/>
<glyph unicode="=" d="M63 157v103h528v-103h-528v0zM63 323v94h528v-94h-528v0z" horiz-adv-x="654" glyph-name="equal"/>
<glyph unicode="&gt;" d="M55 -8v95l465 204l-465 205v102l567 -267v-87l-567 -252v0z" horiz-adv-x="654" glyph-name="greater"/>
<glyph unicode="?" d="M134 63q3 37 33 56t65 19h1.5h1.5q35 0 64 -19.5t32 -56.5v-2.5v-3.5q0 -37 -31 -58t-69 -21q-35 0 -64.5 20t-32.5 65v1zM181 244v118q0 19 9 28.5t24 16.5q13 6 28.5 14t31.5 21q11 10 21 22.5t20 30.5q6 10 10 20.5t7 20.5t4.5 20.5t1.5 20.5q0 11 -1.5 21t-3.5 21 q-3 10 -7.5 20.5t-10.5 20.5q-10 18 -26 27t-33 10h-3.5h-2.5q-27 0 -49 -15.5t-23 -41.5q0 -4 1 -9l2 -10q2 -4 2.5 -7.5t0.5 -6.5q0 -22 -22.5 -35t-50.5 -14h-2.5h-2.5q-24 -1 -44.5 9t-22.5 30q-1 7 -1.5 13t-0.5 12q-1 69 66 102t148 38q8 1 16 1h16q116 -4 176.5 -68 t61.5 -141q0 -49 -25.5 -94t-78.5 -75q-49 -29 -77.5 -42t-43.5 -23q-11 -7 -15.5 -16.5t-4.5 -28.5v-31q0 -24 -12 -32t-36 -8q-29 0 -38 8t-9 31v1z" horiz-adv-x="535" glyph-name="question"/>
<glyph unicode="@" d="M441 748q27 -1 71 -8t92 -27q70 -29 128.5 -91t62.5 -174v-4v-4v-5v-4q1 -100 -52.5 -165.5t-116.5 -95.5q-26 -11 -50.5 -17t-45.5 -6q-33 0 -54 13.5t-21 41.5q0 4 0.5 8.5t1.5 8.5q-20 -30 -48.5 -45.5t-58.5 -17.5q-4 -1 -7.5 -1h-6.5q-38 0 -70.5 19t-45.5 53 q-4 11 -7 26.5t-3 34.5q0 29 7.5 64.5t25.5 71.5q17 36 46 70.5t73 63.5q11 8 31.5 14.5t43.5 6.5q5 0 10 -0.5t10 -0.5q22 -3 42.5 -13.5t35.5 -30.5l8 25h111l-119 -299q-1 -5 -2 -9t-1 -8q0 -13 8.5 -20t22.5 -8q14 0 32 6.5t37 18.5q36 24 66.5 70t33.5 114v6v7 q1 97 -79.5 172t-211.5 75q-142 0 -236.5 -99t-94.5 -224q4 -148 109.5 -233.5t232.5 -85.5h4h4q77 1 150 38.5t122 115.5l63 1q-46 -110 -140 -162t-200 -53h-8.5h-8.5q-147 6 -269 105.5t-122 281.5q0 167 117.5 272.5t261.5 105.5h7.5h7.5v1zM402 465q-6 -9 -13.5 -19.5 t-14.5 -23.5q-10 -17 -19 -35.5t-16 -37.5q-9 -23 -14.5 -44.5t-5.5 -39.5q0 -12 3 -22t9 -16q3 -3 6.5 -5t7.5 -3q2 -1 3.5 -1.5t3.5 -0.5q11 0 22.5 7t23.5 19q22 22 42 57t34 73q10 26 16 51.5t6 46.5q0 17 -7.5 26t-19.5 9q-13 1 -30.5 -9.5t-36.5 -32.5v1z" horiz-adv-x="858" glyph-name="at"/>
<glyph unicode="A" d="M181 236l-39 -126q-1 -4 -1.5 -7t-0.5 -6q0 -12 8.5 -19t18.5 -13l0.5 -0.5l0.5 -0.5q11 -6 20 -13.5t9 -20.5q0 -23 -15 -26.5t-56 -3.5h-95h-1.5h-1.5q-16 0 -29.5 4t-13.5 26q0 9 4 14t11 10q3 3 8 6.5t10 8.5q9 7 16.5 18t12.5 30q23 71 53 150.5t65 161.5 q17 40 34.5 80.5t35.5 79.5l24 52t24 51q12 23 28 35t51 12q41 0 58 -8t29 -31q19 -57 43.5 -118.5t51.5 -124.5q4 -10 8.5 -20t8.5 -20q35 -83 68.5 -162.5t55.5 -145.5q3 -10 6.5 -17t7.5 -13q7 -12 14.5 -16.5t13.5 -7.5t9.5 -8t3.5 -17q0 -23 -15 -26.5t-56 -3.5h-149 q-30 0 -46.5 3.5t-16.5 26.5q0 10 5.5 15t12.5 8l0.5 0.5t1.5 0.5q7 4 13.5 9.5t6.5 18.5v5t-1 6l-39 143h-276v0zM213 323h212l-102 260l-110 -260v0z" horiz-adv-x="732" glyph-name="A"/>
<glyph unicode="B" d="M528 402q95 -15 144 -74t51 -127v-2v-2q0 -75 -60 -136t-183 -61h-362q-65 0 -79.5 4.5t-14.5 33.5q0 13 7 18.5t16 9.5q1 1 2 1t3 1q10 4 18.5 12t8.5 29v521q0 15 -7.5 23t-17.5 14q0 1 -1 1.5l-1 0.5q-11 7 -19.5 16.5t-8.5 30.5q0 17 23.5 20t70.5 3l378 1 q70 -1 122.5 -55.5t52.5 -121.5v-3.5v-2.5q-1 -46 -34.5 -88.5t-108.5 -67.5v1zM260 315v-189q0 -32 22.5 -45t53.5 -13q10 0 21 1t22 3q19 3 37 8.5t33 12.5q36 17 55.5 48t19.5 66q0 6 -0.5 11.5t-1.5 11.5q-7 35 -34.5 68t-78.5 55l-149 -38v0zM260 402q88 7 143 45 t73 82q4 10 6 20t2 20q1 38 -30.5 64.5t-96.5 26.5h-2.5h-2.5h-3h-3q-47 0 -66.5 -7t-19.5 -48v-203v0z" horiz-adv-x="732" glyph-name="B"/>
<glyph unicode="C" d="M31 370q12 189 117 275t229 102q18 2 35 3t34 1q108 0 190.5 -36t87.5 -86l8 -70v-5.5v-4.5q0 -25 -13.5 -38.5t-31.5 -13.5h-4.5t-4.5 1q-14 3 -27.5 16t-20.5 36q-22 61 -69.5 92.5t-102.5 31.5h-7.5t-6.5 -1q-76 -5 -140 -75t-68 -213v-6.5v-6.5q-1 -3 -1 -6v-6 q0 -152 70.5 -220t155.5 -69h7.5h7.5q50 4 97.5 28t80.5 65q8 10 17.5 15t18.5 7q3 1 5.5 1h4.5q16 0 27.5 -8.5t11.5 -24.5q0 -7 -3.5 -16.5t-11.5 -20.5q-47 -66 -128 -100t-170 -34h-11.5t-11.5 1q-138 6 -253 99.5t-119 285.5v1z" horiz-adv-x="756" glyph-name="C"/>
<glyph unicode="D" d="M79 118v512q0 20 -8.5 27t-18.5 12q-11 4 -19.5 11t-8.5 28q0 17 12.5 23t28.5 7q6 1 11.5 1h10.5l299 1q18 -1 36.5 -2t37.5 -4q120 -16 221 -92.5t106 -240.5v-4v-4v-5v-4q1 -181 -108.5 -282.5t-276.5 -101.5h-315h-10.5h-11.5q-16 1 -28.5 9t-12.5 29t8.5 28t19.5 12 q10 4 18.5 11t8.5 28v1zM260 142q3 -38 25.5 -53.5t54.5 -15.5q17 0 35.5 4t37.5 11q15 5 30 12.5t29 16.5q57 35 89 104.5t32 147.5v8.5v8.5q-3 63 -28.5 123t-76.5 104q-19 15 -42.5 25.5t-47.5 16.5q-14 4 -27 5.5t-26 1.5q-35 0 -60 -13.5t-25 -43.5v-463v0z" horiz-adv-x="819" glyph-name="D"/>
<glyph unicode="E" d="M252 362v-205q0 -42 27.5 -60.5t74.5 -18.5l87 1q33 -1 56 15t42 35q10 11 19 21t18 17q7 6 14.5 9.5t15.5 3.5q20 0 28.5 -14t9.5 -35q0 -10 -1.5 -21t-4.5 -22q-7 -26 -20.5 -50t-27.5 -34q-4 -2 -7.5 -3t-7.5 -1h-504q-4 0 -10.5 0.5t-13.5 2.5q-12 5 -21.5 15 t-9.5 28q0 12 8.5 19t19.5 13q10 6 18.5 12.5t8.5 18.5v521q0 20 -7.5 26t-15.5 9q-9 3 -16.5 8.5t-7.5 26.5q0 23 17.5 31t52.5 8l465 1q21 -1 35 -26t17 -56q1 -4 1 -8v-8q1 -24 -8 -42t-29 -18q-13 0 -22 5.5t-17 13.5q-4 5 -8.5 10t-9.5 10q-15 15 -40.5 27t-75.5 12 l-71 1q-6 -1 -15.5 -1.5t-18.5 -1.5q-17 -3 -31 -12.5t-14 -32.5v-172h165q18 -1 28.5 5t18.5 14q1 0 1.5 1t1.5 2q7 6 15.5 11t21.5 5q17 0 26 -24.5t9 -53.5v-1.5v-1.5q0 -28 -8.5 -52t-26.5 -24q-17 0 -27.5 6t-19.5 13q-9 8 -19.5 14t-28.5 6l-157 1v0z" horiz-adv-x="654" glyph-name="E"/>
<glyph unicode="F" d="M252 331v-221q0 -22 8.5 -29t19.5 -11q10 -5 18.5 -12t8.5 -28q0 -23 -20 -26.5t-67 -3.5h-149q-24 0 -39.5 4.5t-15.5 33.5q0 14 7.5 20.5t17.5 11.5q1 0 1.5 0.5t1.5 0.5q10 5 18.5 12.5t8.5 25.5v521q0 20 -7.5 26t-15.5 9q-9 3 -16.5 8.5t-7.5 26.5q0 23 17.5 31 t52.5 8l457 1q3 -1 6.5 -3t6.5 -6q9 -11 17.5 -33t13.5 -46q1 -8 2 -17t1 -17q0 -22 -7 -37t-24 -15q-15 0 -30.5 14.5t-35.5 32.5t-46 32.5t-61 14.5l-63 1q-6 -1 -15.5 -1.5t-18.5 -1.5q-17 -3 -31 -12.5t-14 -32.5v-196h165q15 -1 24 4t16 11q8 6 16.5 11t22.5 5 q17 0 26 -24.5t9 -53.5q0 -30 -8.5 -55t-26.5 -25q-14 0 -22.5 6t-16.5 14q-7 7 -16 13.5t-24 6.5l-165 1v0z" horiz-adv-x="614" glyph-name="F"/>
<glyph unicode="G" d="M31 354q0 153 114.5 273t303.5 120q101 0 185.5 -35.5t89.5 -82.5l8 -54v-3.5t1 -3.5v-2.5v-3.5q0 -28 -12.5 -43t-29.5 -16h-2.5h-3.5q-11 2 -21.5 11.5t-17.5 27.5q-14 37 -40.5 63t-55.5 41q-22 11 -42.5 16.5t-35.5 5.5q-118 0 -178.5 -93.5t-63.5 -205.5v-5v-6 q0 -109 55 -198.5t164 -89.5q101 0 117.5 55t16.5 126q0 35 -24.5 42t-53.5 7h-1.5h-1.5h-1.5h-1.5q-28 0 -51 4.5t-23 33.5t24 38t52 9h1.5h1.5l165 1q53 -1 71 -10.5t18 -34.5v-12.5t-2 -14.5q-3 -17 -5.5 -39t-3.5 -45v-8.5v-8.5q0 -19 2 -38t7 -34q2 -7 3 -13.5t1 -12.5 q0 -20 -14 -38.5t-49 -36.5q-20 -10 -48 -20t-66 -20q-32 -10 -66 -15t-69 -5h-14.5t-15.5 1q-145 9 -266 101.5t-121 270.5v1z" horiz-adv-x="780" glyph-name="G"/>
<glyph unicode="H" d="M260 354v-228q0 -31 8.5 -41.5t19.5 -14.5q1 -1 2.5 -1.5t3.5 -1.5q8 -3 14.5 -8.5t6.5 -20.5q0 -29 -17 -33.5t-70 -4.5h-134q-35 0 -52.5 4.5t-17.5 33.5q0 18 8.5 24.5t19.5 11.5q10 4 18.5 10.5t8.5 24.5v505q0 26 -8.5 35t-18.5 14q-1 0 -2 0.5t-2 0.5 q-9 4 -16.5 10.5t-7.5 25.5q0 23 15.5 31t39.5 8l157 1q35 -1 57 -10t22 -38q0 -14 -7.5 -20t-17.5 -11l-1 -0.5l-1 -0.5q-11 -6 -19.5 -13.5t-8.5 -25.5v-188h299v189q0 20 -8.5 27t-18.5 12q-11 4 -19.5 11t-8.5 28q0 20 17.5 28.5t38.5 9.5q4 1 7.5 1h7.5l149 1 q4 -1 7.5 -1t7.5 -1q21 -1 38.5 -9.5t17.5 -28.5t-8 -27.5t-18 -12.5h-0.5h-0.5q-11 -6 -19.5 -14.5t-8.5 -32.5v-487q0 -34 8.5 -45t19.5 -15q1 -1 2.5 -1.5t2.5 -0.5q9 -4 15.5 -10t6.5 -24q0 -23 -16.5 -26.5t-69.5 -3.5h-134q-41 0 -56 3.5t-15 26.5q0 12 6 18.5 t15 12.5q1 1 3 2l4 2q10 7 18.5 17.5t8.5 34.5v237h-299v0z" horiz-adv-x="819" glyph-name="H"/>
<glyph unicode="I" d="M79 110v512q0 20 -8.5 28.5t-18.5 14.5q-11 6 -19.5 14t-8.5 29q0 23 24.5 27t53.5 4l142 1q29 -1 50 -5t21 -27q0 -15 -8.5 -25t-18.5 -19q-11 -9 -19.5 -18.5t-8.5 -24.5v-511q0 -22 8.5 -28.5t19.5 -10.5l0.5 -0.5l0.5 -0.5q10 -3 18 -9t8 -23q0 -29 -18 -33.5 t-77 -4.5h-126q-29 0 -49.5 4.5t-20.5 33.5q0 17 8 23t18 9l0.5 0.5l0.5 0.5q11 4 19.5 10.5t8.5 27.5v1z" glyph-name="I"/>
<glyph unicode="J" d="M307 630q0 13 -6.5 19t-14.5 11q-1 0 -1.5 0.5t-0.5 1.5q-9 5 -16.5 12.5t-7.5 25.5q0 19 13 27.5t28 10.5q4 1 7.5 1h6.5l150 1q4 -1 8.5 -1t8.5 -1q26 -1 47.5 -9.5t21.5 -28.5q0 -18 -8.5 -24.5t-18.5 -10.5q-11 -5 -19.5 -11.5t-8.5 -24.5v-440q0 -107 -68.5 -156 t-199.5 -49q-100 0 -164 44t-64 121q0 71 42.5 106t107.5 35q42 0 63 -16t21 -36v-2v-2q-2 -15 -15 -28t-38 -18q-21 -3 -31.5 -18t-10.5 -35v-5.5v-5.5q2 -16 10.5 -30t23.5 -24q8 -6 18 -8.5t20 -2.5q4 0 7.5 0.5t6.5 0.5q31 5 56.5 30.5t25.5 65.5v474v0z" horiz-adv-x="559" glyph-name="J"/>
<glyph unicode="K" d="M260 276v-150q0 -34 8.5 -45t19.5 -16q1 0 2 -0.5t2 -1.5q9 -4 16 -11.5t7 -28.5q0 -18 -17 -20.5t-46 -2.5h-158q-29 0 -49.5 3.5t-20.5 26.5q0 13 7 18.5t16 9.5q1 1 2 1t3 1q10 4 18.5 12t8.5 29v545q0 13 -7 17t-15 6h-1.5t-0.5 1q-9 2 -16.5 7t-7.5 23 q0 16 12.5 24.5t26.5 11.5q7 2 13 2.5t11 0.5l166 1q1 -1 1.5 -1h1.5q22 0 41 -8t19 -31q0 -15 -6.5 -21.5t-15.5 -10.5q-1 0 -2.5 -1t-2.5 -2q-11 -5 -19.5 -15t-8.5 -37v-235q22 11 50.5 32.5t58.5 47.5l18 16l18 16q45 42 80.5 78t41.5 45q5 6 6.5 12t1.5 10 q0 10 -6 17.5t-14 14.5q-1 1 -2 1.5t-1 1.5q-9 8 -16.5 17t-7.5 21q0 16 13 22t29 8q8 1 15.5 1h13.5l102 1q5 -1 10.5 -1.5t11.5 -1.5q16 -4 28.5 -14t12.5 -31q0 -10 -5 -17.5t-14 -14.5q-11 -9 -26.5 -19.5t-32.5 -27.5q-27 -26 -58 -61t-69 -72q-13 -12 -26.5 -24 t-28.5 -24q31 -30 59 -63t53 -67q43 -58 76.5 -113t56.5 -96q5 -9 11 -15t13 -10q4 -3 8 -5.5t8 -4.5q10 -6 16.5 -13t6.5 -22q0 -18 -15 -20.5t-56 -2.5h-150h-1.5h-1.5q-28 0 -52 2.5t-24 20.5q0 15 5.5 22t12.5 12q1 1 2 1.5t2 1.5q5 4 9 8t4 11q0 11 -10.5 32t-39.5 61 l-119 167l-86 -63v0z" horiz-adv-x="780" glyph-name="K"/>
<glyph unicode="L" d="M79 110v512q0 20 -8.5 28t-18.5 14h-1.5t-1.5 1q-9 5 -17 11.5t-8 23.5q0 19 13 27t28 10q8 2 15.5 2h13.5l158 1q1 -1 1.5 -1h1.5q22 0 41 -4t19 -27q0 -21 -8.5 -29t-18.5 -14q-11 -6 -19.5 -14.5t-8.5 -29.5v-464q0 -65 16 -76t63 -11l78 1q27 -1 47 13.5t38 32.5 l9.5 9.5l8.5 8.5q13 12 26.5 20.5t28.5 8.5q18 0 25.5 -11.5t7.5 -28.5q0 -6 -1 -13t-3 -14q-1 -5 -2.5 -9.5t-3.5 -9.5q-5 -13 -8.5 -23t-6.5 -18q-9 -22 -22.5 -29.5t-48.5 -7.5h-394q-53 0 -73.5 4.5t-20.5 33.5q0 13 7 18.5t16 9.5q1 1 2 1t3 1q10 4 18.5 12t8.5 29v1z " horiz-adv-x="598" glyph-name="L"/>
<glyph unicode="M" d="M165 528v-418q0 -25 11 -33.5t25 -13.5l0.5 -0.5t1.5 -0.5q13 -5 23 -12t10 -27q0 -18 -14 -20.5t-49 -2.5h-102q-35 0 -49 3.5t-14 26.5q0 16 9 21t20 8q2 1 3.5 1t3.5 1q13 4 24 12.5t11 35.5v489q0 29 -12.5 40t-26.5 17q-2 0 -3 0.5t-2 0.5q-13 6 -24 14t-11 30 q0 23 16 31t39 8l165 1q47 -1 65 -18.5t30 -53.5l142 -369l149 362q12 35 35 56.5t52 21.5l150 1q23 -1 39 -9t16 -31q0 -24 -11 -34t-24 -17q-14 -8 -25 -18t-11 -34v-487q0 -28 8.5 -38t19.5 -15q1 -1 2.5 -1.5t2.5 -1.5q9 -4 15.5 -10t6.5 -21q0 -18 -23 -20.5t-64 -2.5 h-126q-35 0 -56.5 2.5t-21.5 20.5q0 19 7.5 25.5t16.5 10.5q1 0 2 0.5t2 0.5q10 4 18.5 13t8.5 36v426l-174 -417q-5 -15 -23 -22t-39 -8h-2h-2q-22 0 -41.5 7t-25.5 22l-174 411v0z" horiz-adv-x="913" glyph-name="M"/>
<glyph unicode="N" d="M189 535v-417q0 -31 10 -41.5t22 -14.5q1 -1 3 -1.5t4 -1.5q9 -3 16.5 -8.5t7.5 -20.5q0 -23 -13 -26.5t-42 -3.5h-118q-18 0 -33 3.5t-15 26.5q0 14 9 20.5t20 11.5l1 0.5t2 0.5q11 5 21 12.5t10 25.5v505q0 26 -11 37.5t-24 19.5q-1 0 -2.5 1t-2.5 1q-12 7 -21 15.5 t-9 27.5t13 24.5t28 6.5h7.5h6.5l165 1q10 -1 28 -20t38 -44l6 -8l6 -8q14 -18 26.5 -35t21.5 -28l228 -321v338q0 26 -10 35t-21 14q-1 0 -2 0.5t-2 0.5q-11 4 -19.5 10.5t-8.5 25.5t13 27.5t28 10.5q4 0 7.5 0.5t7.5 0.5l110 1q29 -1 46 -5t17 -27q0 -19 -9.5 -26.5 t-21.5 -12.5q-1 -1 -2 -1.5t-2 -0.5q-14 -6 -25 -16.5t-11 -37.5v-589q0 -19 -20.5 -29t-46.5 -10q-17 0 -33 5.5t-26 16.5l-378 528v0z" horiz-adv-x="756" glyph-name="N"/>
<glyph unicode="O" d="M31 362q-3 188 121 282.5t273 95.5h1.5h1.5h1.5h1.5q148 -1 272 -94t124 -277q0 -196 -124.5 -292.5t-273.5 -97.5q-151 0 -276 96t-122 286v1zM228 362v-6.5v-4.5q0 -148 63 -223t139 -75q75 0 137.5 74.5t62.5 225.5q0 160 -60 234t-133 74h-4h-5q-75 -4 -137.5 -79 t-62.5 -210v-5v-6v1z" horiz-adv-x="858" glyph-name="O"/>
<glyph unicode="P" d="M260 268v-166q0 -19 11 -25.5t25 -10.5q13 -5 24 -11.5t11 -24.5q0 -23 -21 -26.5t-50 -3.5h-197q-18 0 -32.5 3.5t-14.5 26.5q0 17 8 23t18 9l0.5 0.5t1.5 0.5q10 4 18.5 10.5t8.5 27.5v513q0 26 -7.5 35t-15.5 14q-1 0 -2 0.5l-1 0.5q-8 4 -14.5 10.5t-6.5 25.5 q0 23 24.5 31t53.5 8l307 1q129 -1 197 -63.5t68 -142.5q0 -8 -0.5 -16t-2.5 -17q-15 -87 -116 -160.5t-295 -73.5v1zM260 354q99 4 161 55.5t63 116.5q0 10 -1.5 20t-5.5 20q-3 9 -8 19t-12 20q-13 20 -39 32.5t-54 15.5q-5 0 -10 0.5t-10 0.5q-33 0 -58.5 -13.5 t-25.5 -43.5v-243v0z" horiz-adv-x="677" glyph-name="P"/>
<glyph unicode="Q" d="M457 -8q-13 -2 -27.5 -3t-28.5 -1h-6h-6q-134 4 -246 99.5t-113 278.5v6.5t1 7.5v6.5v6.5q12 173 133 264.5t265 94.5h4.5h4.5q143 0 261.5 -90t127.5 -277v-3.5v-3.5v-3.5v-3.5q1 -107 -52 -184t-117 -122q-24 -17 -47 -29.5t-44 -20.5q20 -19 42.5 -28t46.5 -10 q3 -1 7 -1h8q14 0 28.5 1.5t27.5 3.5q5 1 10.5 1.5t10.5 1.5q3 1 6 1.5t6 0.5q21 0 35 -16.5t17 -36.5v-4v-4q0 -17 -9 -32t-31 -19q-17 -5 -34.5 -7t-34.5 -2h-8h-9q-64 4 -124.5 37t-104.5 90v0zM417 71q-7 14 -12.5 34t-7.5 40q-2 11 -2.5 22t-0.5 21q0 15 12 25.5 t27 13.5q2 1 4.5 1h4.5q12 0 21 -7.5t9 -24.5q0 -24 3 -43.5t11 -38.5q3 -9 7.5 -18t10.5 -18q62 21 94.5 101t32.5 174v9.5v9.5q-4 111 -54.5 203.5t-148.5 92.5h-5h-6q-93 -5 -138 -94.5t-45 -196.5v-4.5v-4.5q2 -109 48.5 -200.5t134.5 -97.5v1z" horiz-adv-x="858" glyph-name="Q"/>
<glyph unicode="R" d="M260 299v-189q0 -25 8.5 -33.5t19.5 -12.5q0 -1 1 -1t2 -1q9 -4 16.5 -10t7.5 -22q0 -23 -18 -26.5t-53 -3.5h-165q-24 0 -43.5 3.5t-19.5 26.5q0 20 9 26.5t21 9.5l0.5 0.5t1.5 0.5q11 4 21 11t10 31v497q0 26 -8.5 35t-18.5 14q-1 0 -2 0.5t-2 0.5q-9 4 -16.5 10.5 t-7.5 25.5t13 29t28 14q8 2 15.5 3t13.5 1l347 1q130 -1 189.5 -56.5t59.5 -125.5v-8.5t-1 -8.5q-6 -56 -45.5 -106.5t-108.5 -73.5q27 -30 49 -62t40 -64t31 -64t22 -62q6 -16 13.5 -25.5t15.5 -15.5q6 -5 12 -8.5t11 -7.5q8 -5 13.5 -11t5.5 -18q0 -18 -19 -20.5t-60 -2.5 h-165q-35 0 -53 3.5t-18 26.5q0 12 7 17.5t15 9.5t15 9.5t7 17.5q1 5 -0.5 11.5t-4.5 13.5q-5 16 -12.5 33.5t-17.5 34.5q-8 16 -16.5 31t-17.5 30q-15 23 -29.5 43t-24.5 33l-94 -15v0zM260 378q18 -1 38.5 1.5t41.5 6.5q28 7 54.5 18t46.5 28t31.5 35t16.5 37q2 7 3 14.5 t1 14.5q0 48 -34.5 84t-80.5 36h-2h-2h-2h-2q-41 0 -75.5 -10t-34.5 -46v-219v0z" horiz-adv-x="732" glyph-name="R"/>
<glyph unicode="S" d="M16 157q0 25 16 39.5t38 14.5q4 0 7.5 -0.5t7.5 -1.5q14 -4 27 -15t22 -30q21 -42 67 -68t97 -33q9 -1 17.5 -1.5t16.5 -0.5q41 0 75 14t50 42q9 14 13 28t4 27q0 29 -18 51.5t-47 35.5q-16 8 -37.5 13.5t-46.5 10.5q-19 4 -39.5 8t-40.5 9q-73 18 -133.5 61t-64.5 150 v4.5v3.5q-1 106 88 165t211 59q31 0 63 -4t65 -13q19 -5 38.5 -11.5t38.5 -14.5q21 -10 35 -31.5t14 -64.5q0 -7 -0.5 -14.5t-1.5 -15.5q-2 -24 -11 -33.5t-20 -9.5q-3 0 -5.5 0.5t-4.5 1.5q-12 3 -22 12.5t-15 20.5q-22 40 -67.5 73t-100.5 34q-19 0 -37.5 -4.5 t-38.5 -15.5q-23 -13 -35 -33.5t-12 -42.5v-2v-2q1 -28 20.5 -52.5t57.5 -33.5q9 -3 18.5 -6.5t20.5 -6.5q25 -7 54 -14t59 -17q73 -24 134 -69.5t61 -138.5q0 -21 -6 -50t-23 -60t-48 -60t-81 -50q-21 -10 -41.5 -16.5t-41.5 -10.5q-21 -5 -42 -7t-42 -2q-107 0 -193 45 t-111 100q-4 8 -6 16t-3 16v1z" horiz-adv-x="677" glyph-name="S"/>
<glyph unicode="T" d="M244 102v504q0 29 -6 34t-41 5t-61 -13t-49 -42q-10 -12 -20.5 -17.5t-20.5 -6.5q-16 0 -27.5 12.5t-11.5 31.5v3v3q0 1 0.5 2.5t0.5 2.5q1 5 2.5 9.5t2.5 9.5q3 10 5 19.5t4 18.5q7 26 14 43.5t19 17.5l567 1q21 -1 29.5 -24t14.5 -53q1 -5 1.5 -9.5t1.5 -9.5 q2 -8 4 -15.5t4 -15.5q0 -1 0.5 -2t0.5 -2v-2v-2q0 -17 -12 -31t-29 -14q-6 0 -12.5 2t-13.5 7q-3 3 -6.5 6t-6.5 7q-12 15 -27.5 27t-32.5 20q-16 8 -31 12t-27 4q-35 0 -41 -6t-6 -18v-519q0 -22 8.5 -29t19.5 -11q10 -4 18.5 -11t8.5 -28q0 -18 -21.5 -20.5t-57.5 -2.5 h-157q-29 0 -46 3.5t-17 26.5q0 14 7.5 20.5t17.5 11.5q1 0 1.5 0.5t1.5 0.5q10 5 18.5 12.5t8.5 25.5v1z" horiz-adv-x="677" glyph-name="T"/>
<glyph unicode="U" d="M71 630q0 19 -8 24t-18 7h-0.5t-0.5 1q-11 2 -19.5 8t-8.5 30q0 23 24.5 31t53.5 8l158 1q35 -1 49 -9t14 -31q0 -21 -10 -29t-21 -12q-2 -1 -3.5 -1.5t-2.5 -1.5q-10 -3 -18 -8.5t-8 -18.5v-346q0 -89 42.5 -159t130.5 -70q89 0 135 62t46 174v332q0 20 -10 27t-21 12 q-12 4 -22 11t-10 28q0 23 19 31t41 8h1.5h1.5l87 1q1 -1 1.5 -1h1.5q22 0 41 -8t19 -31q0 -21 -10 -28t-21 -11q-12 -5 -22 -12t-10 -28v-322q0 -184 -80.5 -250.5t-210.5 -72.5h-5.5h-5.5h-5.5h-5.5q-124 -1 -216.5 63t-92.5 228v363v0z" horiz-adv-x="756" glyph-name="U"/>
<glyph unicode="V" d="M425 134q12 16 34.5 66t46.5 113q6 17 12.5 34t12.5 34q27 76 47 144t20 96q0 13 -9.5 20.5t-21.5 13.5q-1 1 -2 1.5t-2 1.5q-13 6 -24 15t-11 27q0 24 17 31t37 8h8h8l95 1q29 -1 46 -6t17 -34q0 -17 -6.5 -25t-15.5 -14q-2 -1 -3.5 -2t-2.5 -2q-9 -6 -16.5 -15.5 t-10.5 -28.5q-6 -37 -35 -116t-65 -166q-4 -11 -8.5 -22t-9.5 -22q-35 -83 -66 -152.5t-45 -96.5q-8 -13 -14.5 -23t-12.5 -16q-13 -15 -28 -19t-39 -4q-29 0 -54 10t-48 44q-40 61 -76 143t-67 169q-29 80 -53 157.5t-41 137.5q-3 15 -8 21.5t-11 10.5q-1 1 -2.5 1.5 t-2.5 1.5q-6 3 -10.5 8.5t-4.5 19.5q0 25 22.5 31.5t48.5 7.5h8h8l141 1q4 -1 7.5 -1t7.5 -1q21 -1 38.5 -9.5t17.5 -28.5q-3 -14 -12 -21.5t-19 -12.5q-1 -1 -2 -1.5t-2 -0.5q-11 -6 -19.5 -13.5t-8.5 -21.5q3 -45 22 -108t45 -130q11 -28 23 -55l24 -54q20 -44 39.5 -82.5 t35.5 -66.5v1z" horiz-adv-x="732" glyph-name="V"/>
<glyph unicode="W" d="M331 181q22 40 41 95t33 113q13 57 21 111.5t8 95.5v13t-1 12q0 21 -8.5 30t-18.5 16q-1 0 -1.5 0.5l-1.5 1.5q-9 6 -17 14t-8 25q0 23 22.5 27t64.5 4l133 1q24 -1 43.5 -5t19.5 -27q0 -16 -7.5 -23t-16.5 -12q-1 -1 -2 -1.5t-2 -1.5q-10 -6 -19 -15t-9 -30v-2.5t1 -3.5 v-0.5v-1.5v-2v-2q4 -47 22 -119.5t43 -149.5q16 -47 33.5 -93.5t35.5 -86.5q4 9 7.5 18t6.5 18q47 122 75.5 233.5t28.5 171.5q0 30 -11 42t-24 18q-3 1 -5 1.5t-4 1.5q-11 5 -19 11t-8 21q0 29 24 34t52 5h1.5h1.5l71 1q24 -1 43.5 -5t19.5 -27q0 -16 -5 -24t-12 -15 q-2 -1 -3.5 -3t-3.5 -3q-7 -7 -13.5 -18t-9.5 -32q-7 -62 -29 -153.5t-52 -188.5q-19 -61 -40.5 -121t-44.5 -112q-11 -26 -36 -38t-52 -13h-2.5h-2.5q-26 0 -48.5 9.5t-31.5 26.5q-53 106 -84.5 199.5t-49.5 146.5q-18 -62 -32 -113t-27 -93t-27 -76.5t-32 -63.5 q-11 -17 -32.5 -24.5t-44.5 -7.5q-25 0 -48 8t-32 24q-32 53 -57.5 122.5t-44.5 142.5q-29 105 -44.5 200.5t-19.5 140.5q-3 21 -9.5 29t-13.5 12q-1 0 -2.5 1t-2.5 1q-7 4 -12.5 10t-5.5 26q0 23 16.5 27t45.5 4l165 1q24 -1 40 -5t16 -27q0 -18 -8.5 -26t-19.5 -14 q-10 -6 -19 -13.5t-9 -25.5q0 -36 11.5 -97t29.5 -127q6 -27 13.5 -52.5t14.5 -49.5q11 -38 22 -69.5t20 -53.5v1z" horiz-adv-x="1000" glyph-name="W"/>
<glyph unicode="X" d="M260 362q-11 11 -21.5 24t-21.5 27q-17 21 -33 44t-31 46q-26 38 -49 75t-41 67q-4 9 -10.5 14t-13.5 9l-1.5 1.5t-1.5 0.5q-11 7 -19.5 16t-8.5 30q0 15 17.5 19t38.5 4h7.5h7.5l157 1q4 -1 7.5 -1h7.5q21 0 38.5 -4t17.5 -19q0 -16 -6.5 -25.5t-15.5 -15.5l-6 -4t-5 -4 q-4 -3 -7 -6.5t-3 -7.5t2.5 -10t9.5 -14l126 -164l86 110q21 27 29.5 44t8.5 27t-6 15t-14 10q-2 1 -3.5 1.5t-3.5 1.5q-10 6 -18.5 14.5t-8.5 27.5q0 17 15 20t33 3l110 1q4 -1 8.5 -1h9.5q20 -1 36.5 -6.5t16.5 -24.5q0 -14 -6.5 -23t-16.5 -18q-7 -6 -15 -12t-16 -14 l-12.5 -12.5t-12.5 -15.5l-165 -211l189 -260q33 -47 57 -63.5t35 -27.5q5 -4 7.5 -9t2.5 -12q0 -23 -16 -26.5t-63 -3.5h-141q-47 0 -71 3.5t-24 26.5q0 17 7 24.5t15 11.5q3 1 5.5 2t4.5 2q11 5 11.5 14t-27.5 41l-134 182l-102 -142q-14 -20 -20 -34t-7 -25 q0 -13 7 -21.5t16 -16.5l0.5 -0.5l1.5 -1.5q9 -8 17 -18t8 -25q0 -18 -15 -20.5t-56 -2.5h-110h-6.5h-7.5q-15 0 -28 7t-13 31q0 12 8 20.5t19 16.5q4 2 8 4.5t7 4.5q8 5 15.5 11t13.5 14q47 65 94.5 129t94.5 123v1z" horiz-adv-x="732" glyph-name="X"/>
<glyph unicode="Y" d="M283 283l-204 323q-18 27 -34.5 39.5t-27.5 21.5q-8 6 -12.5 13.5t-4.5 19.5q0 29 24.5 34t54.5 5l149 1q36 -1 61.5 -6t25.5 -34q0 -15 -8 -22t-17 -12q-1 -1 -1.5 -1t-0.5 -1q-9 -4 -16 -10t-7 -18q0 -10 6 -24.5t20 -37.5l134 -204l158 221q9 12 13 21.5t4 16.5 q0 11 -7 17.5t-16 11.5q-1 1 -2.5 1.5t-2.5 1.5q-11 6 -20 14.5t-9 24.5q0 24 16.5 31t36.5 8h9.5h8.5l63 1q4 -1 7.5 -1h7.5q21 -1 38.5 -7.5t17.5 -31.5q0 -12 -4 -21t-11 -18q-11 -14 -28.5 -30t-35.5 -41l-212 -307v-157q0 -34 10 -45t22 -16q1 0 2 -0.5t2 -1.5 q11 -4 19 -11.5t8 -28.5q0 -18 -22 -20.5t-57 -2.5h-158q-23 0 -39 3.5t-16 26.5q0 15 6.5 20.5t14.5 8.5q2 1 3.5 1.5t3.5 1.5q10 4 18.5 14.5t8.5 40.5v166v0z" horiz-adv-x="732" glyph-name="Y"/>
<glyph unicode="Z" d="M220 87h174q41 -1 76.5 7.5t64.5 38.5q17 17 33 25.5t29 8.5q12 1 19 -6.5t7 -23.5v-6t-1 -6l-16 -78v-2.5t-1 -1.5q-5 -33 -16 -38t-46 -5h-417q-55 0 -83 13.5t-28 44.5q0 18 10 42.5t30 55.5q27 44 73 107t96 131q58 79 110.5 152t74.5 114l-141 1q-13 -1 -28 -2 t-30 -5q-22 -5 -42 -16.5t-34 -32.5q-7 -11 -16.5 -17.5t-18.5 -9.5q-4 -1 -7.5 -1.5t-7.5 -0.5q-15 0 -26 8.5t-12 21.5v2t1 2v1v2l16 88q0 23 13 30t28 8h7.5h6.5l417 1q3 -1 6 -1h6q24 0 44.5 -7.5t20.5 -36.5q0 -34 -36.5 -105.5t-134.5 -204.5l-221 -298v0z" horiz-adv-x="614" glyph-name="Z"/>
<glyph unicode="[" d="M118 -189q-29 0 -38 11t-9 76v803q0 28 16 33t63 5l86 1q30 -1 50.5 -5t20.5 -27q0 -26 -13 -34.5t-28 -13.5h-1.5t-0.5 -1q-17 -5 -30.5 -14.5t-13.5 -39.5v-660q0 -33 13.5 -44t30.5 -15q2 -1 4 -1.5t4 -0.5q14 -4 24.5 -10t10.5 -24q0 -29 -18 -34t-53 -5h-118v0z" horiz-adv-x="315" glyph-name="bracketleft"/>
<glyph unicode="\" d="M441 0l-315 764h79l315 -764h-79v0z" horiz-adv-x="638" glyph-name="backslash"/>
<glyph unicode="]" d="M102 -71v693q0 23 -12 32.5t-27 15.5q-1 1 -2.5 1.5t-3.5 0.5q-13 6 -23 13t-10 23q0 23 24.5 27t53.5 4l95 1q35 -1 45 -7t10 -41v-834q0 -35 -11 -41t-52 -6h-95h-12.5t-13.5 1q-19 1 -35.5 8.5t-16.5 29.5q0 20 12.5 26.5t28.5 9.5l0.5 0.5t1.5 0.5q16 4 29.5 11 t13.5 31v0z" horiz-adv-x="315" glyph-name="bracketright"/>
<glyph unicode="^" d="M31 173l252 559h95l260 -559h-103l-204 457l-205 -457h-95v0z" horiz-adv-x="654" glyph-name="asciicircum"/>
<glyph unicode="_" d="M0 -150v103h504v-103h-504v0z" horiz-adv-x="496" glyph-name="underscore"/>
<glyph unicode="`" d="M87 685q-10 7 -14.5 14t-4.5 13q-1 12 18.5 19.5t55.5 7.5q46 0 63.5 -7.5t29.5 -29.5q0 -1 0.5 -1.5l0.5 -0.5l55 -94q8 -13 11 -22.5t3 -16.5t-3.5 -11t-11.5 -4t-22 5.5t-32 16.5l-149 111v0z" horiz-adv-x="362" glyph-name="grave"/>
<glyph unicode="a" d="M362 55q-22 -37 -63.5 -55t-88.5 -18h-3h-3q-66 2 -121.5 39t-58.5 112v2v2v2v2q0 77 57.5 116.5t126.5 53.5q29 7 58 9.5t53 2.5h19t16 -1q-4 50 -28 75.5t-58 25.5q-13 0 -26.5 -3.5t-27.5 -11.5q-10 -5 -20.5 -13t-20.5 -18q-8 -8 -20 -12.5t-26 -3.5h-2.5h-2.5 q-22 2 -40.5 14t-19.5 34v1.5t1 1.5v2v2q10 38 66.5 58t126.5 20h17.5t17.5 -1q86 -6 157.5 -43.5t71.5 -111.5v-236q0 -22 8.5 -28.5t19.5 -10.5l0.5 -0.5l0.5 -0.5q10 -3 18 -9t8 -23q0 -22 -14 -26t-30 -4h-1.5h-1.5h-119q-23 0 -35 6.5t-12 47.5v1zM354 260 q-1 -1 -1.5 -1h-1.5q-58 -1 -106 -30.5t-48 -87.5q2 -39 20 -56t41 -17q4 0 8.5 0.5t9.5 1.5q29 8 53.5 35.5t24.5 66.5v88v0z" horiz-adv-x="575" glyph-name="a"/>
<glyph unicode="b" d="M228 433q26 25 66.5 39.5t85.5 14.5h10.5t10.5 -1q77 -6 141 -62.5t64 -180.5v-3v-4q0 -119 -85 -183t-187 -73q-8 -1 -16.5 -1.5t-16.5 -0.5q-93 0 -165.5 46t-72.5 140v450q0 20 -8.5 28t-18.5 14h-1.5t-1.5 1q-9 5 -17 11.5t-8 23.5q0 12 12 19t35 12l95 25 q13 1 23.5 3t19.5 2q17 0 26 -9t9 -36v-275v0zM228 283v-102q0 -60 28.5 -93.5t64.5 -33.5h2.5h3.5q36 3 67 46t31 135t-31 133t-69 41q-37 0 -67 -34t-30 -93v1z" horiz-adv-x="614" glyph-name="b"/>
<glyph unicode="c" d="M31 276q24 105 96 158t172 53q88 0 136.5 -25.5t64.5 -56.5q4 -8 6 -15.5t2 -14.5q0 -15 -7 -26.5t-21 -18.5q-9 -4 -16.5 -6t-15.5 -2q-23 0 -40 14.5t-33 32.5q-2 2 -3.5 4t-3.5 4q-14 15 -28.5 27t-32.5 12q-45 0 -72.5 -52t-30.5 -115v-5.5v-5.5q-1 -49 16.5 -92 t55.5 -60q12 -4 24 -6t25 -3q40 0 75.5 15t48.5 33q9 11 18 15t17 5q14 0 24 -10t10 -23q0 -2 -0.5 -4.5t-0.5 -4.5q-1 -3 -2 -5.5t-3 -4.5q-34 -55 -91.5 -81.5t-121.5 -26.5h-7.5h-6.5q-96 4 -176.5 66.5t-81.5 176.5q0 11 1 23t3 24v1z" horiz-adv-x="520" glyph-name="c"/>
<glyph unicode="d" d="M394 63q-23 -39 -63 -57.5t-86 -18.5q-7 0 -14 0.5t-14 1.5q-75 9 -138 70t-63 176q0 114 79 185.5t173 72.5h1.5h1.5h10.5t10.5 -1q26 -2 52 -11t50 -25v142q0 29 -10 42t-21 20q-3 1 -6 2.5t-6 2.5q-8 5 -14 10.5t-6 16.5q0 12 13 19t29 12q7 2 13 3.5t12 3.5 q1 0 2 0.5t2 0.5l78 25q9 2 16.5 3.5t14.5 1.5q20 0 30 -14.5t10 -46.5v-590q0 -25 8.5 -33.5t19.5 -12.5q0 -1 1 -1t2 -1q9 -4 16.5 -10t7.5 -22q0 -23 -17.5 -26.5t-53.5 -3.5h-78q-35 0 -46 7t-16 51q-1 1 -1 2v2v1zM394 315q0 45 -27 71t-62 26q-4 0 -7.5 -0.5 t-7.5 -0.5q-38 -7 -69.5 -49t-31.5 -127q0 -81 31 -121t69 -45q2 -1 4.5 -1h5.5q37 0 66 29.5t29 82.5v135v0z" horiz-adv-x="614" glyph-name="d"/>
<glyph unicode="e" d="M205 165q7 -48 45 -75.5t86 -27.5q6 0 12 0.5t12 1.5q23 3 46 14t43 31q17 17 32 24.5t26 8.5q13 0 20 -8t8 -21q0 -6 -1.5 -12.5t-5.5 -14.5q-24 -49 -92 -77.5t-145 -28.5h-3.5h-3.5q-91 2 -169 50t-91 158q-1 10 -1.5 19.5t-0.5 18.5q0 107 68 166t149 79q22 5 44 7.5 t42 2.5q22 0 41.5 -2.5t35.5 -7.5q60 -19 93 -55t34 -77q0 -4 -0.5 -8t-0.5 -8q-10 -55 -87 -102t-236 -57v1zM197 236q7 0 13.5 1t13.5 2q42 7 78.5 20.5t51.5 38.5q5 6 8 12t5 12t3 11.5t1 11.5q1 27 -17.5 46.5t-44.5 19.5q-9 1 -18.5 -2t-19.5 -9q-5 -3 -9.5 -6.5 t-9.5 -8.5q-17 -17 -29 -35.5t-18 -37.5q-5 -13 -7.5 -26.5t-2.5 -26.5q0 -6 0.5 -12t1.5 -12v1z" horiz-adv-x="559" glyph-name="e"/>
<glyph unicode="f" d="M87 402h-24q-23 -1 -35 11t-12 26q-1 15 11 27.5t36 12.5l24 1v55q0 88 49 154t132 66q7 0 14.5 -0.5t14.5 -1.5q35 -5 64 -21.5t30 -45.5q0 -10 -5 -22.5t-16 -26.5q-7 -9 -13.5 -12.5t-14.5 -3.5q-3 0 -5.5 0.5t-4.5 0.5q-8 2 -15.5 6t-14.5 8q-21 13 -35.5 15.5 t-14.5 -46.5v-125h71q17 -1 26 -13t9 -26q1 -15 -8 -27.5t-27 -12.5l-71 1v-300q0 -19 8.5 -26.5t19.5 -12.5l0.5 -0.5t1.5 -0.5q10 -5 17.5 -11.5t7.5 -20.5q0 -23 -22.5 -26.5t-64.5 -3.5h-110h-1.5h-1.5q-28 0 -52 3.5t-24 26.5q0 14 8 20.5t18 11.5l0.5 0.5t1.5 0.5 q11 5 19.5 12.5t8.5 25.5v301v0z" horiz-adv-x="354" glyph-name="f"/>
<glyph unicode="g" d="M457 71q51 -9 85.5 -44t34.5 -77v-6t-1 -6q-6 -48 -69.5 -88.5t-207.5 -46.5q-18 0 -37.5 1t-39.5 2q-72 7 -132 30.5t-60 72.5v6t1 6q2 27 28 42t57 20q7 1 14.5 1.5t14.5 0.5q23 0 39 -6t16 -16q1 -2 0 -4.5t-3 -5.5q-3 -5 -5 -10.5t-2 -9.5q0 -22 30.5 -33t69.5 -11 h6.5h6.5q43 2 79.5 18t36.5 47v7.5t-2 7.5q-13 37 -33 49.5t-44 12.5q-8 0 -17 -1l-18 -2q-1 0 -2.5 -0.5t-2.5 -0.5q-11 -1 -21 -2.5t-19 -1.5q-116 5 -175.5 69t-60.5 149q0 14 2 28.5t5 28.5q23 107 93 144.5t150 41.5q7 1 14 1h14q29 0 57.5 -2t53.5 -5t46.5 -5t36.5 -2 l63 1q20 -1 30.5 -13t10.5 -26q1 -15 -9.5 -27.5t-31.5 -12.5l-47 1q26 -29 39 -65t13 -74q0 -55 -27 -105.5t-80 -79.5v1zM197 260q3 -83 32.5 -123t63.5 -41q35 0 64 41t29 122t-28.5 120t-63.5 39h-1.5h-1.5q-35 -1 -64.5 -41.5t-29.5 -117.5v1z" horiz-adv-x="598" glyph-name="g"/>
<glyph unicode="h" d="M236 449q40 22 78 33t72 11q79 0 130 -46.5t51 -116.5v-220q0 -31 6 -39t14 -11l0.5 -0.5l0.5 -0.5q7 -2 12.5 -8t5.5 -28q0 -18 -14.5 -20.5t-56.5 -2.5h-118q-23 0 -39 3.5t-16 26.5q0 13 5 18.5t12 9.5q1 1 1.5 1t1.5 1q8 4 14 12t6 29v238q0 35 -23 52t-52 17h-4h-4 q-31 -3 -57 -23t-26 -55v-228q0 -25 6.5 -32t13.5 -10q1 0 1.5 -0.5l0.5 -0.5q7 -3 12.5 -7.5t5.5 -21.5q0 -23 -20 -26.5t-67 -3.5h-110q-24 0 -39.5 3.5t-15.5 26.5q0 17 5.5 23t12.5 9q1 0 1 0.5t1 0.5q7 4 13 10.5t6 27.5v529q0 17 -8.5 24.5t-18.5 11.5q-2 1 -3.5 1.5 t-2.5 0.5q-9 4 -15.5 9t-6.5 15q0 15 13 22.5t28 12.5q3 0 5.5 1t4.5 2q1 0 2 0.5t2 0.5l110 33q5 0 10.5 0.5t9.5 0.5q24 0 33.5 -13.5t9.5 -43.5v-259v0z" horiz-adv-x="614" glyph-name="h"/>
<glyph unicode="i" d="M79 94v252q0 20 -8.5 29.5t-18.5 14.5q-3 1 -5 2l-4 2q-8 4 -13.5 8.5t-5.5 13.5q0 18 14.5 26t32.5 14l102 32q10 1 18 2t15 1q19 0 28.5 -10.5t9.5 -40.5v-338q0 -25 6 -33t14 -12q1 -1 2 -1.5t2 -0.5q6 -3 10.5 -7.5t4.5 -17.5q0 -23 -18.5 -26.5t-59.5 -3.5h-118 q-18 0 -33 3.5t-15 26.5q0 10 5 15t11 9q1 0 2 0.5t2 1.5q8 4 14 11.5t6 25.5v1zM55 630q3 37 33 56t65 19h1.5h1.5q35 0 64 -19.5t32 -56.5v-2.5v-3.5q0 -37 -31 -58.5t-69 -21.5q-35 0 -64.5 20.5t-32.5 65.5v1z" horiz-adv-x="299" glyph-name="i"/>
<glyph unicode="j" d="M94 465l79 23q8 1 14.5 2t12.5 1q32 0 46 -20.5t14 -46.5v-424q0 -14 -1.5 -29t-4.5 -30q-12 -49 -50.5 -91t-124.5 -47h-6h-5q-45 -1 -70 20t-32 46q-1 4 -1.5 8.5t-0.5 8.5q0 13 5 24.5t16 18.5q7 3 12.5 4.5t11.5 1.5q13 0 24 -4.5t20 -10.5q9 -5 16.5 -9.5t12.5 -4.5 q6 0 9 7t3 24v409q0 20 -8.5 29.5t-18.5 15.5q-2 1 -3.5 1.5t-2.5 1.5q-9 5 -15.5 11t-6.5 19q0 6 3 11t10 9q7 5 17 9.5t25 10.5v1zM71 630q3 37 33 56t65 19h1.5h1.5q35 0 64 -19.5t32 -56.5v-2.5v-3.5q0 -37 -31 -58.5t-69 -21.5q-35 0 -64.5 20.5t-32.5 65.5v1z" horiz-adv-x="299" glyph-name="j"/>
<glyph unicode="k" d="M228 205v-111q0 -16 7.5 -23t16.5 -12q1 -1 1.5 -1t1.5 -1q8 -4 14.5 -10t6.5 -17q0 -20 -13 -25.5t-32 -5.5h-8h-9q-4 1 -8 1h-9h-103q-29 0 -49.5 3.5t-20.5 26.5q0 15 6 21t14 11q7 4 13 10t6 21v529q0 17 -7.5 24.5t-15.5 13.5q-1 0 -1.5 0.5t-1.5 0.5q-8 5 -14.5 11 t-6.5 20q0 15 13 22.5t28 12.5q3 0 5.5 1t4.5 2q1 0 2 0.5t2 0.5l86 25q11 1 20 2t16 1q20 0 27.5 -12t7.5 -47v-424q10 3 21.5 8.5t22.5 12.5q33 19 63 44t43 52q5 10 2.5 14.5t-8.5 8.5l-4 2t-4 3q-7 4 -12.5 12t-5.5 23q0 17 18 20t53 3l71 1q24 -1 43.5 -5t19.5 -27 q0 -19 -12 -28t-27 -16q-1 0 -2 -0.5t-1 -1.5q-8 -3 -15.5 -7t-13.5 -10l-86 -86q12 -12 23.5 -24t21.5 -23q48 -55 75 -103.5t37 -62.5q9 -14 17 -19.5t14 -8.5q7 -4 11.5 -10t4.5 -25q0 -18 -15.5 -20.5t-39.5 -2.5h-149q-24 0 -43.5 3.5t-19.5 26.5q0 9 5.5 14t12.5 9 q7 3 12.5 8t5.5 14q0 6 -2.5 14.5t-10.5 19.5l-86 119l-40 -23v0z" horiz-adv-x="598" glyph-name="k"/>
<glyph unicode="l" d="M79 110v488q0 32 -10 45.5t-21 19.5q-4 1 -6.5 2.5t-5.5 2.5q-9 3 -14.5 8t-5.5 16q0 16 20.5 27.5t67.5 22.5q5 1 10.5 2.5t11.5 2.5q24 5 43.5 9t33.5 4q20 0 30.5 -12.5t10.5 -47.5v-598q0 -22 7.5 -28.5t16.5 -10.5l0.5 -0.5l0.5 -0.5q8 -3 15 -9t7 -23 q0 -23 -19.5 -26.5t-43.5 -3.5h-134h-8h-8q-20 0 -37 5.5t-17 24.5q0 17 8 24t18 12l0.5 0.5t1.5 0.5q10 5 18.5 13t8.5 29v1z" horiz-adv-x="299" glyph-name="l"/>
<glyph unicode="m" d="M213 417q26 21 53.5 36.5t55.5 23.5q14 4 28 6t28 2q41 0 78.5 -20t63.5 -64q27 31 57.5 50t62.5 27q12 3 24 4.5t24 1.5q68 0 119 -40.5t51 -105.5v-251q0 -19 7.5 -26.5t16.5 -12.5q1 -1 2.5 -1.5t2.5 -0.5q8 -4 13.5 -8.5t5.5 -14.5q0 -18 -16 -20.5t-63 -2.5h-95 q-35 0 -53 2.5t-18 20.5q0 10 5 15.5t12 10.5l1.5 1.5t1.5 0.5q8 5 14 12.5t6 22.5v229q0 38 -21 55.5t-47 17.5h-2.5h-2.5q-29 -2 -53 -21.5t-24 -52.5v-227q0 -19 6.5 -26.5t13.5 -12.5q1 -1 2 -1.5t3 -0.5q6 -4 10.5 -8.5t4.5 -14.5q0 -18 -15 -20.5t-56 -2.5h-111 q-35 0 -52.5 2.5t-17.5 20.5q0 7 4.5 12t11.5 10q1 2 3 3.5t5 2.5q8 7 15.5 15t7.5 20v237q0 35 -19 51t-45 16q-4 0 -7.5 -0.5t-6.5 -0.5q-30 -5 -55 -25.5t-25 -49.5v-227q0 -16 7.5 -23.5t16.5 -12.5q1 0 2 -0.5t2 -1.5q8 -5 14 -10.5t6 -15.5q0 -18 -23 -20.5t-64 -2.5 h-110q-30 0 -42.5 2.5t-12.5 20.5q0 10 5 15.5t11 10.5q1 1 2 1.5t2 0.5q7 5 13 12.5t6 22.5v253q0 17 -8.5 25.5t-18.5 13.5q-3 1 -6 2.5l-5 2.5q-7 4 -12 7.5t-5 10.5q0 9 7 17.5t20 17.5q14 9 32.5 17.5t42.5 17.5q17 6 30.5 10t24.5 4q21 0 32.5 -15.5t15.5 -53.5v1z " horiz-adv-x="913" glyph-name="m"/>
<glyph unicode="n" d="M220 425q27 31 65.5 47.5t79.5 18.5q3 1 7 1h8q68 0 123.5 -39t55.5 -115v-236q0 -22 7.5 -30t16.5 -12q0 -1 1 -1t2 -1q8 -4 14 -9.5t6 -18.5q0 -23 -15.5 -26.5t-62.5 -3.5h-95q-41 0 -60 3.5t-19 26.5q0 11 5.5 17t12.5 10q0 1 0.5 1t1.5 1q8 5 14 12t6 22v253 q0 31 -20.5 47.5t-47.5 17.5q-4 0 -7.5 -0.5t-6.5 -0.5q-32 -5 -58 -34.5t-26 -85.5v-180q0 -25 7.5 -35.5t16.5 -16.5q2 -2 4.5 -3t4.5 -2q6 -4 10.5 -9t4.5 -14q0 -23 -21 -26.5t-50 -3.5h-134h-5.5t-4.5 -1h-5.5h-4.5q-11 0 -19 5t-8 26q0 7 5 13t12 11q2 1 3.5 2.5 t3.5 2.5q8 7 15.5 14.5t7.5 19.5v246q0 25 -8.5 36t-18.5 17l-6 2t-5 2q-7 3 -12 7t-5 13q0 6 4.5 12t12.5 12q17 14 47 26.5t62 20.5q9 2 16.5 2.5t14.5 1.5q20 0 31.5 -13.5t15.5 -53.5v1z" horiz-adv-x="614" glyph-name="n"/>
<glyph unicode="o" d="M24 236q2 135 89.5 199t193.5 64h2.5h3.5q106 -2 195 -66t90 -182v-2v-2v-2v-2q-5 -129 -94 -192t-195 -64h-1.5h-1.5q-106 -1 -194 61.5t-88 186.5v1zM197 244q0 -94 34.5 -140t76.5 -46h1.5h1.5q43 1 78.5 50t35.5 143q0 88 -35 132t-77 44q-43 0 -79.5 -46t-36.5 -138 v1z" horiz-adv-x="614" glyph-name="o"/>
<glyph unicode="p" d="M228 425q31 32 72 48.5t84 16.5h3.5h2.5q81 -2 149 -60t75 -171q1 -5 1 -10.5v-10.5q0 -106 -69 -177t-151 -79q-5 -1 -9.5 -1h-9.5q-24 0 -47.5 6.5t-45.5 19.5q-7 5 -11.5 12t-5.5 15q-1 2 -1 3.5v3.5q0 13 8 22.5t24 9.5q4 0 8.5 -0.5t9.5 -2.5q5 -1 10.5 -2t10.5 -1 q47 0 74.5 54t27.5 118q0 39 -10.5 76t-33.5 62q-13 15 -29.5 23t-33.5 8h-1.5h-1.5q-34 -1 -63 -35.5t-29 -105.5v-346q0 -21 8.5 -29t19.5 -13l0.5 -0.5t1.5 -0.5q9 -5 17 -11.5t8 -23.5q0 -24 -16.5 -28t-46.5 -4h-141q-30 0 -46.5 4t-16.5 28q0 17 8 23.5t17 11.5 q1 0 1.5 0.5t1.5 0.5q10 5 18.5 13t8.5 29v410q0 28 -8.5 39.5t-18.5 17.5q-3 1 -5 2l-4 2q-8 3 -13.5 8t-5.5 16q0 15 14 24t36 17q13 5 28.5 10t31.5 12q14 6 25 9t20 3q20 0 32.5 -15.5t16.5 -51.5v1z" horiz-adv-x="638" glyph-name="p"/>
<glyph unicode="q" d="M386 39q-31 -29 -67.5 -41.5t-74.5 -12.5q-84 -1 -152 61.5t-68 180.5v4.5v5.5q-1 119 76 185t169 69h5h4q40 0 78 -12.5t69 -38.5q31 26 54 38.5t38 12.5q17 1 25.5 -15.5t8.5 -51.5v-511q0 -21 7.5 -29t16.5 -12l1 -0.5t2 -1.5q8 -4 14 -9t6 -18q0 -30 -20.5 -35 t-49.5 -5h-126q-30 0 -46.5 5t-16.5 35q0 10 6 15.5t14 10.5q1 1 2 1.5t2 0.5q8 5 15.5 12.5t7.5 22.5v133v0zM386 157v166q0 47 -24.5 72.5t-56.5 25.5q-5 0 -10 -0.5t-10 -2.5q-35 -8 -64 -49t-32 -118v-3v-3v-3.5v-3.5q-1 -83 29.5 -125t67.5 -51q4 -1 8.5 -1.5t9.5 -0.5 q32 0 57 23.5t25 64.5v2v2v2v2v1z" horiz-adv-x="614" glyph-name="q"/>
<glyph unicode="r" d="M236 402q6 7 14.5 17t18.5 21q14 14 30.5 27t32.5 21q8 3 15.5 5t14.5 2q38 0 56.5 -22.5t20.5 -50.5v-2.5v-2.5q0 -26 -14 -47t-40 -21q-5 0 -11 1t-12 3q-9 3 -17.5 5t-16.5 2q-34 0 -55 -32.5t-21 -100.5v-117q0 -25 8.5 -33.5t19.5 -12.5q0 -1 1 -1t2 -1 q9 -4 16.5 -10t7.5 -22q0 -23 -20.5 -26.5t-73.5 -3.5h-111q-29 0 -46 3.5t-17 26.5q0 16 6.5 22t15.5 10l3 1.5l3 1.5q10 5 18.5 15t8.5 37v198q0 32 -11 45t-24 20q-3 1 -5.5 2.5t-4.5 2.5q-11 5 -18 11t-7 20q0 24 27.5 38t74.5 25q2 1 3.5 1.5t3.5 0.5q12 4 23.5 7.5 t21.5 3.5q20 1 35.5 -17.5t22.5 -73.5v1z" horiz-adv-x="433" glyph-name="r"/>
<glyph unicode="s" d="M24 94q-1 2 -1 4.5v4.5q0 22 11 33t27 11q3 0 5.5 -0.5t5.5 -0.5q8 -2 15.5 -7.5t14.5 -13.5q15 -20 30.5 -33.5t31.5 -21.5q14 -7 27.5 -10t26.5 -3q26 0 48 12t33 32q2 5 3.5 8.5t1.5 7.5q1 24 -34 42.5t-81 28.5q-61 11 -105.5 42.5t-45.5 98.5v4t1 4v4v4 q8 72 72 105.5t138 36.5q6 1 11 1h10q32 0 61.5 -4.5t54.5 -12.5q9 -3 16 -6t13 -6q25 -14 29.5 -29.5t4.5 -44.5q0 -23 -9 -35t-22 -12q-2 0 -4 0.5t-4 0.5q-9 3 -17 10t-15 20q-15 29 -38 43t-54 14q-6 0 -12.5 -0.5t-13.5 -1.5q-23 -3 -39 -17.5t-16 -31.5v-2.5v-2.5 q3 -17 22.5 -32.5t63.5 -23.5q68 -11 124.5 -50t56.5 -104v-5v-6q-8 -80 -75 -120t-146 -46q-6 0 -11.5 -0.5t-11.5 -0.5q-73 0 -133 28t-71 83v1z" horiz-adv-x="496" glyph-name="s"/>
<glyph unicode="t" d="M71 402h-55q-10 -1 -16 7.5t-7 20.5q0 3 0.5 5.5t0.5 5.5q4 12 16 23.5t37 14.5q18 0 34.5 8t28.5 32q4 10 7 20t5 21q1 4 1.5 7.5t1.5 7.5q6 31 17 54.5t47 23.5q35 0 41 -15t6 -33v-125h103q11 -1 17 -13t6 -26q0 -15 -5.5 -27.5t-17.5 -12.5l-103 1v-245q0 -59 20 -69 t67 -10q20 0 31.5 -12t11.5 -27q1 -15 -11.5 -27t-39.5 -12h-150q-58 0 -76 14.5t-18 78.5v309v0z" horiz-adv-x="378" glyph-name="t"/>
<glyph unicode="u" d="M394 55q-26 -30 -60.5 -47.5t-71.5 -22.5q-8 -2 -16.5 -2.5t-16.5 -0.5q-65 0 -115.5 37.5t-50.5 113.5v221q0 17 -6 26t-13 15q-2 1 -3 2t-3 2q-5 5 -9.5 10t-4.5 15q0 13 9 20.5t30 14.5q9 3 21 6t26 6q20 5 38.5 8.5t31.5 3.5q19 1 29.5 -7t10.5 -28v-298 q0 -44 21 -63.5t49 -19.5h5.5t4.5 1q32 3 59 28.5t27 67.5v190q0 17 -6 25t-14 13q-1 0 -1.5 0.5l-0.5 0.5q-7 5 -12.5 11t-5.5 20q0 13 9.5 20.5t33.5 14.5q10 3 23 6t29 6q23 5 40.5 8.5t29.5 3.5q17 1 24.5 -7t7.5 -28v-346q0 -22 8.5 -28.5t19.5 -10.5l0.5 -0.5 l0.5 -0.5q10 -3 18 -9t8 -23q0 -23 -12.5 -26.5t-42.5 -3.5h-94q-29 0 -38.5 6t-15.5 43q0 1 -0.5 2.5t-0.5 2.5v1z" horiz-adv-x="614" glyph-name="u"/>
<glyph unicode="v" d="M315 118q7 14 16 34t17 43q5 11 9 22.5t9 22.5q15 42 25.5 80t10.5 57q0 18 -7.5 26.5t-16.5 14.5q-1 1 -2.5 2t-3.5 2q-7 5 -12.5 10.5t-5.5 15.5q0 23 15 27t33 4l78 1q3 -1 6.5 -1h7.5q15 -1 28 -6.5t13 -24.5q0 -5 -2 -9.5t-5 -7.5q-4 -5 -9.5 -10t-11.5 -13 q-5 -7 -10 -16.5t-9 -22.5q-8 -32 -21.5 -74.5t-30.5 -86.5q-15 -39 -31.5 -76.5t-33.5 -67.5q-6 -12 -12.5 -22t-12.5 -19q-17 -23 -37 -31t-49 -8q-9 0 -19 0.5t-20 5.5q-11 4 -21 13t-19 27q-24 39 -47 86t-43 96q-20 48 -35.5 95t-24.5 86q0 12 -6 17.5t-13 9.5 q-8 5 -13.5 10.5t-5.5 17.5q0 22 13.5 26.5t29.5 4.5h1.5h1.5l142 1q29 -1 46 -4t17 -20q0 -18 -6 -27t-13 -15q-2 -1 -3 -2t-3 -2q-5 -5 -9.5 -10t-4.5 -15q0 -18 12.5 -56.5t30.5 -80.5q6 -14 12 -27.5t12 -26.5q12 -24 23 -44t20 -33v1z" horiz-adv-x="535" glyph-name="v"/>
<glyph unicode="w" d="M402 181q-18 -48 -37 -85.5t-42 -72.5q-13 -20 -29.5 -30.5t-32.5 -14.5q-5 -1 -9.5 -1.5t-9.5 -0.5q-23 0 -43.5 11t-33.5 28q-5 7 -10.5 16.5t-10.5 20.5q-14 28 -28 65.5t-27 75.5q-19 61 -33 115.5t-17 76.5q-3 18 -8 25t-11 10q-1 1 -2.5 2t-3.5 1q-6 3 -10 7t-4 18 q0 19 13 24.5t28 6.5h7.5h6.5l126 1q5 -1 10.5 -1t11.5 -1q16 -1 28.5 -7t12.5 -23q0 -18 -5 -23t-10 -7l-1 -1h-1q-5 -2 -9.5 -6t-4.5 -18q0 -22 7 -59t17 -77q7 -25 14 -48t14 -44q7 -18 13.5 -32.5t12.5 -23.5q18 15 30 53t19 81q8 43 11 81t3 53q0 21 -7.5 30t-15.5 15 l-3 1.5t-2 1.5q-7 5 -13 11.5t-6 19.5q0 12 12.5 17t28.5 6h11.5h10.5l110 1q24 -1 43.5 -5t19.5 -27q0 -11 -4.5 -16t-9.5 -8l-0.5 -0.5l-0.5 -0.5q-6 -4 -11 -9.5t-5 -20.5q0 -22 8.5 -60t21.5 -79q4 -14 8.5 -28t8.5 -27q11 -33 21.5 -59.5t17.5 -38.5q6 11 15.5 34 t18.5 52q5 15 9.5 31t9.5 32q11 40 18.5 76.5t7.5 58.5q0 15 -7.5 22t-15.5 12q-1 1 -2 1t-1 1q-8 4 -14.5 10t-6.5 17q0 23 17 27t46 4l55 1q3 -1 6.5 -1h7.5q15 -1 28 -5t13 -18q0 -21 -6.5 -28.5t-13.5 -11.5q-6 -4 -11 -8.5t-8 -14.5q-3 -20 -19 -80t-39 -127 q-18 -52 -39.5 -100t-44.5 -79q-11 -13 -30 -20t-40 -7h-2.5h-3.5q-22 0 -42 9t-32 26q-6 12 -15.5 29t-19.5 39q-10 21 -19.5 45.5t-15.5 51.5v1z" horiz-adv-x="795" glyph-name="w"/>
<glyph unicode="x" d="M228 181l-31 -31q-22 -23 -31 -37.5t-9 -23.5t6 -14.5t14 -10.5q1 -1 2 -1.5t2 -0.5q9 -6 16.5 -13t7.5 -19q0 -23 -12 -26.5t-36 -3.5h-102h-6.5h-7.5q-15 0 -28 5.5t-13 24.5q0 11 6.5 17.5t16.5 12.5q7 4 15 8.5t16 10.5q6 4 12.5 9.5t12.5 12.5l102 127l-102 134 q-21 27 -37.5 37.5t-26.5 17.5q-7 6 -11 12.5t-4 18.5q0 23 19.5 27t43.5 4l118 1q47 -1 67 -5t20 -27q0 -11 -3.5 -17t-8.5 -10q-1 -1 -2.5 -2t-3.5 -3q-6 -5 -6 -12.5t16 -26.5l55 -62l63 63q6 5 9 9.5t3 8.5q0 5 -4 9t-9 7q-2 1 -4.5 2.5t-4.5 2.5q-8 5 -15 12t-7 19 q0 23 16 27t40 4l63 1q1 -1 1.5 -1h1.5q22 0 41 -4t19 -27q0 -5 -1.5 -8.5t-4.5 -7.5q-8 -11 -27.5 -25.5t-45.5 -45.5l-87 -93l134 -174q13 -20 24.5 -26t20.5 -10q8 -3 13 -8.5t5 -19.5q0 -23 -17 -26.5t-46 -3.5h-134q-35 0 -53 3.5t-18 26.5q0 10 3.5 14.5t7.5 7.5 q1 1 2 1.5t2 1.5q3 1 4.5 3t1.5 5q1 5 -3.5 13.5t-17.5 24.5l-63 80v0z" horiz-adv-x="559" glyph-name="x"/>
<glyph unicode="y" d="M307 16q-13 -6 -26.5 -8.5t-26.5 -2.5q-52 0 -98 36.5t-69 107.5q-5 14 -11.5 34.5t-12.5 44.5q-9 29 -16.5 63.5t-11.5 69.5q-2 8 -2.5 16t-1.5 16q0 10 -3.5 14.5t-8.5 8.5q-1 0 -2 0.5t-2 1.5q-5 5 -10 12.5t-5 25.5q0 17 17 20t46 3l110 1q30 -1 50.5 -5t20.5 -27 q0 -16 -5 -22t-11 -10t-11 -10t-5 -22v-6.5t1 -8.5q0 -23 5.5 -61t16.5 -80q8 -33 20 -64t28 -55q9 -13 18 -19.5t19 -6.5q17 -1 32 17.5t26 55.5q7 19 12.5 41t9.5 45q8 39 12.5 76t4.5 59q0 15 -8.5 23.5t-18.5 15.5q-11 8 -19.5 16.5t-8.5 23.5q0 13 12 17.5t27 5.5h8h8 l79 1q24 -1 39.5 -5t15.5 -27q0 -9 -3 -14.5t-8 -10.5q-2 -3 -4.5 -5t-4.5 -5q-6 -6 -11 -16t-8 -28q-5 -45 -20.5 -113t-42.5 -140q-44 -117 -118.5 -215t-180.5 -98q-45 0 -68.5 18.5t-27.5 40.5q-1 2 -1 4v4q0 19 16.5 35t48.5 16q11 0 20.5 -3t17.5 -7q3 0 5 -1l4 -2 l12 -4t12 -2q11 0 24 5.5t31 21.5q18 18 34.5 40.5t28.5 45.5v1z" horiz-adv-x="535" glyph-name="y"/>
<glyph unicode="z" d="M220 71h95q41 -1 66 14.5t36 39.5q5 10 14 15.5t19 5.5q12 0 21 -8t10 -26v-2.5v-2.5q0 -2 -0.5 -3t-0.5 -3q-6 -70 -29.5 -85.5t-64.5 -15.5h-315q-25 0 -40 8.5t-15 28.5q-1 18 14 47.5t49 71.5l204 253h-102q-9 -1 -20.5 -5t-22.5 -12q-12 -9 -23.5 -20.5t-20.5 -26.5 q-3 -5 -8.5 -8t-10.5 -4h-3h-2q-12 0 -22 8t-10 26v4.5t1 5.5l16 64q6 22 27 30t91 8l244 1q30 -1 46.5 -13.5t16.5 -35.5q1 -17 -9 -38.5t-30 -47.5l-221 -274v0z" horiz-adv-x="496" glyph-name="z"/>
<glyph unicode="{" d="M150 260q53 -7 73.5 -34.5t20.5 -116.5v-164q0 -71 12.5 -95t35.5 -38q4 -2 7.5 -4.5t7.5 -4.5q-14 -2 -27.5 -2.5t-25.5 -0.5q-76 -1 -118 29.5t-42 91.5v229q0 40 -15.5 71.5t-62.5 37.5q41 17 59.5 39t18.5 63v214q0 111 66.5 129.5t154.5 18.5q-29 -17 -50 -43 t-21 -67v-243q0 -36 -14.5 -62t-79.5 -49v1z" glyph-name="braceleft"/>
<glyph unicode="|" d="M291 0v748h79v-748h-79v0z" horiz-adv-x="654" glyph-name="bar"/>
<glyph unicode="}" d="M181 268q-8 4 -15.5 7.5t-14.5 7.5q-27 15 -42 40t-15 101v206q0 40 -16.5 64t-46.5 29q11 1 22 1h21q77 1 123.5 -23.5t46.5 -87.5v-235q0 -60 23 -80t64 -31q-47 -12 -67 -39.5t-20 -86.5v-212q0 -95 -68.5 -110.5t-151.5 -15.5l0.5 0.5t1.5 0.5q34 18 51 44.5t17 96.5 v228q0 34 21.5 56.5t46.5 31.5q5 2 9.5 3.5t9.5 2.5v1z" glyph-name="braceright"/>
<glyph unicode="~" d="M39 244q18 25 35.5 45t35.5 35q25 21 50.5 31.5t53.5 10.5q29 0 61 -9.5t71 -26.5q2 -1 3.5 -1.5t3.5 -1.5q27 -11 52 -20.5t49 -10.5q19 0 37 8.5t36 29.5q6 7 12 16t12 19l79 -38q-37 -63 -77 -94t-92 -31q-22 0 -46.5 5.5t-52.5 15.5q-52 22 -85.5 34t-58.5 13 q-13 0 -24 -3.5t-22 -10.5q-14 -9 -29 -25t-33 -39l-71 48v0z" horiz-adv-x="654" glyph-name="asciitilde"/>
<glyph unicode="¡" d="M71 -165l63 417q3 19 15.5 29.5t26.5 10.5q15 1 28 -9.5t16 -31.5l63 -416q0 -3 0.5 -6t0.5 -6q1 -2 1 -5v-6q0 -35 -22.5 -61.5t-89.5 -26.5q-53 0 -78 23t-25 67v6.5v7.5q0 2 0.5 3.5t0.5 3.5v0zM79 425q3 37 33 56.5t65 19.5h1.5h1.5q35 -1 64 -20t32 -57v-1.5v-0.5 v-1.5v-1.5q1 -36 -28 -57t-64 -24h-4h-4q-35 0 -64.5 20.5t-32.5 65.5v1z" horiz-adv-x="354" glyph-name="glyph98"/>
<glyph unicode="¢" d="M323 134q-88 5 -151.5 64t-69.5 171q0 94 68 162.5t150 81.5h1.5h1.5v111q0 11 12 17t27 6t27.5 -6t12.5 -18v-109q71 -7 114 -37.5t43 -65.5q0 -21 -18.5 -37.5t-43.5 -17.5q-3 0 -6.5 0.5t-6.5 0.5q-14 3 -27 12t-24 26q-5 7 -9.5 13t-9.5 11q-14 15 -28 22t-27 7 q-39 1 -65 -50.5t-27 -124.5v-5.5t1 -4.5v-4.5v-5.5q4 -78 40 -112t79 -34h5.5t5.5 1q29 2 55.5 18t42.5 41q6 8 14.5 11.5t17.5 4.5q14 0 25 -8t11 -25q0 -5 -1 -10.5t-4 -12.5q-12 -29 -57 -55t-96 -38q-1 0 -2 -0.5t-2 -0.5v-94q0 -18 -12 -27t-27 -9q-15 -1 -27.5 8 t-12.5 27v96v0z" horiz-adv-x="677" glyph-name="cent"/>
<glyph unicode="£" d="M134 339h-95q-7 -1 -10 4t-3 12q0 5 1.5 11t3.5 12q4 12 11 22t14 14q2 1 3.5 1.5t3.5 0.5l63 1q-4 19 -5.5 37t-2.5 35q0 115 70.5 180t173.5 70q10 1 19.5 1.5t18.5 0.5q84 0 136.5 -31t72.5 -68q6 -9 9 -18.5t4 -18.5v-4v-4q1 -37 -19 -53.5t-44 -16.5h-1.5h-1.5 q-25 0 -46.5 17t-21.5 46q0 41 -27 61t-61 20h-4h-4q-38 -3 -69.5 -27.5t-31.5 -69.5q0 -24 1.5 -42.5t3.5 -36.5t5 -36.5t6 -42.5l189 1q5 -1 8 -5.5t3 -12.5q0 -5 -1 -10.5t-3 -11.5q-5 -15 -16.5 -27t-29.5 -12l-142 1q5 -20 7.5 -38.5t2.5 -35.5q0 -45 -14 -83t-35 -73 q22 19 46.5 28t52.5 9q17 0 35.5 -3t38.5 -10l26 -8t26 -7q6 -1 13 -1.5t13 -0.5q17 0 33.5 5.5t30.5 19.5q17 17 33 26t26 10q9 0 14.5 -6t5.5 -18v-6t-1 -6q-1 -5 -3 -10l-4 -10q-16 -36 -46.5 -70t-63.5 -53q-17 -10 -33 -16t-31 -6q-12 0 -24.5 1t-25.5 3q-23 4 -46 9.5 t-45 11.5q-35 9 -68.5 17t-64.5 8q-26 0 -50.5 -7.5t-45.5 -26.5q-6 -6 -12 -9t-12 -3q-15 0 -27.5 12.5t-16.5 27.5q-1 4 -1.5 7.5t-0.5 6.5q0 11 5 19t18 9q45 11 65 50.5t20 93.5q0 30 -5.5 64t-16.5 68v1z" horiz-adv-x="677" glyph-name="sterling"/>
<glyph unicode="¤" d="M142 197q-33 48 -46.5 91t-14.5 81q0 44 15.5 83.5t37.5 74.5l-63 64q-3 2 -4.5 5.5t-1.5 7.5q0 11 10 19.5t23 9.5q3 0 6.5 -0.5t7.5 -2.5q4 -1 7.5 -3.5t6.5 -5.5l55 -54q42 33 84 47.5t82 14.5q44 0 86 -15t79 -40l63 64q4 3 9 5t10 2q11 0 20.5 -7.5t10.5 -18.5 q0 -5 -2.5 -10.5t-8.5 -11.5l-63 -62q33 -44 52 -88t19 -91q0 -37 -13 -75t-42 -77l55 -54q5 -6 8 -12t3 -12q0 -14 -10.5 -24.5t-24.5 -10.5q-6 0 -12 2.5t-11 7.5l-55 56q-32 -30 -75.5 -44.5t-90.5 -14.5h-6h-6q-43 1 -85 16t-76 42l-63 -62q-2 -3 -4 -4.5t-4 -2.5 q-4 -3 -8 -4l-8 -2q-11 0 -18.5 8t-8.5 18q0 3 1 6.5t2 6.5q2 3 4 6.5t5 6.5l63 64v0zM173 354q9 -83 60.5 -122.5t112.5 -39.5q65 -1 119.5 43t54.5 126q0 85 -52 128t-116 43h-1.5h-1.5q-65 -1 -119 -45.5t-57 -133.5v1z" horiz-adv-x="677" glyph-name="Idieresis"/>
<glyph unicode="¥" d="M213 370l-142 244q-6 9 -13.5 16t-15.5 12l-8 6t-8 5q-11 8 -18.5 16.5t-7.5 22.5q0 29 18 34t53 5l134 1q41 -1 56 -6t15 -34q0 -15 -6 -22t-14 -12q-1 0 -2 -0.5t-2 -1.5q-6 -4 -11 -9t-5 -14q-1 -9 5 -23t19 -36l126 -196l142 220q8 12 11 20.5t3 14.5q0 10 -7 15 t-15 8l-3 1.5t-2 0.5q-10 4 -18.5 11t-8.5 23q0 21 12.5 28.5t26.5 9.5q7 1 13 1h11l71 1q24 -1 43.5 -6t19.5 -34q0 -12 -4 -19.5t-11 -13.5q-9 -8 -21.5 -19t-26.5 -35l-150 -235h79q12 -1 18 -11.5t6 -24.5q0 -13 -6 -24.5t-18 -11.5l-126 1v-71h118q15 -1 22.5 -10.5 t7.5 -21.5t-7.5 -22t-22.5 -10l-118 1v-63q0 -19 7.5 -25.5t16.5 -10.5q8 -5 15.5 -11.5t7.5 -24.5q0 -23 -13.5 -26.5t-49.5 -3.5h-133q-24 0 -40 3.5t-16 26.5q0 17 7 24t15 12q1 0 1.5 0.5l0.5 0.5q9 5 16.5 13t7.5 29v56h-126q-15 -1 -22.5 8.5t-7.5 21.5t7.5 22 t22.5 10l126 1v71h-126q-15 -1 -22.5 10t-7.5 24q0 14 7.5 25t22.5 11l71 1v0z" horiz-adv-x="677" glyph-name="ae"/>
<glyph unicode="¦" glyph-name="brokenbar"/>
<glyph unicode="§" d="M126 433q-26 22 -40 47.5t-17 50.5q-1 6 -1.5 11t-0.5 10q-1 75 67.5 135t164.5 60h9.5h9.5q62 -4 117.5 -25t71.5 -46q2 -4 3.5 -8t1.5 -8l16 -85q0 -18 -9.5 -28t-23.5 -10q-3 0 -6 0.5t-5 1.5q-8 3 -15 9.5t-12 17.5q-18 29 -37.5 49.5t-39.5 32.5q-20 13 -39.5 18.5 t-37.5 5.5q-41 0 -69.5 -23t-28.5 -55q0 -5 1 -10.5t3 -10.5q8 -22 35 -43t79 -35q135 -34 189.5 -87t54.5 -111v-6.5t-1 -6.5q-3 -41 -27 -79.5t-59 -71.5q29 -26 44 -53.5t19 -55.5q1 -6 1.5 -11.5t0.5 -11.5q1 -83 -75.5 -149t-174.5 -66h-4.5h-4.5q-3 0 -5.5 0.5 t-4.5 0.5q-83 5 -129 21.5t-64 36.5q-5 5 -8 10.5t-4 10.5l-32 118v2v2q-1 1 -1 2v2q1 17 12.5 28.5t27.5 11.5q3 0 6 -0.5t6 -1.5q13 -4 25 -17t19 -37q19 -55 53.5 -81.5t72.5 -30.5q4 -1 7.5 -1h7.5q50 -1 88.5 29.5t38.5 77.5v2.5v3.5q-6 44 -50.5 66.5t-101.5 41.5 q-9 3 -17.5 5.5t-17.5 5.5q-56 18 -105.5 43.5t-70.5 73.5q-7 14 -10 27.5t-3 27.5v3.5v2.5q2 47 31 90t69 69v1zM181 394q-13 -22 -20 -39t-7 -31q0 -40 40.5 -59.5t92.5 -34.5q5 -1 9.5 -2.5t9.5 -2.5q33 -10 65 -22.5t54 -30.5q13 21 18.5 39t5.5 32q0 47 -47 68.5 t-104 37.5q-1 0 -2.5 0.5t-2.5 1.5q-32 9 -61.5 18.5t-50.5 23.5v1z" horiz-adv-x="598" glyph-name="section"/>
<glyph unicode="¨" d="M87 630q0 34 23 51.5t51 17.5h1.5h1.5q27 0 49.5 -18t22.5 -52q0 -35 -23 -53t-51 -18h-1.5h-1.5q-27 0 -49.5 18t-22.5 53v1zM315 630q3 33 26.5 50.5t51.5 18.5h1.5h1.5q29 1 52.5 -17t23.5 -53t-24.5 -53t-53.5 -18h-1.5h-1.5q-28 0 -52 18t-24 53v1z" horiz-adv-x="520" glyph-name="dieresis"/>
<glyph unicode="©" d="M47 378q0 174 114.5 267.5t251.5 95.5h3.5h2.5q136 1 249.5 -92t118.5 -288v-7.5v-7.5q1 -186 -114 -281t-253 -96h-1.5h-1.5q-139 -1 -254.5 95.5t-115.5 294.5v9.5v8.5v1zM94 378q-2 -183 97.5 -272.5t220.5 -89.5h2.5h3.5q121 2 221.5 91t100.5 262q0 155 -102 239.5 t-224 84.5q-112 0 -207.5 -76t-112.5 -240v1zM213 362q9 130 63.5 185.5t118.5 64.5q9 1 17 1.5t16 0.5q47 0 85 -15t54 -33q3 -4 5 -8t3 -8l16 -70q0 -14 -9 -24.5t-20 -10.5q-7 0 -14.5 6t-12.5 20q-13 41 -42 62.5t-64 22.5h-4.5h-4.5q-44 -4 -80.5 -49t-40.5 -138v-3v-3 v-3.5v-3.5q0 -92 42 -140t94 -48q30 0 58.5 16.5t49.5 50.5q5 8 10.5 12.5t11.5 6.5q3 1 5.5 2t5.5 1q11 0 19.5 -9t9.5 -22q0 -5 -1.5 -10.5t-5.5 -11.5q-24 -44 -72 -69t-102 -26h-4.5h-4.5q-74 3 -136.5 62t-65.5 190v1z" horiz-adv-x="787" glyph-name="copyright"/>
<glyph unicode="ª" d="M71 370h331q9 -1 13 -7t4 -13q0 -8 -4 -14t-13 -6l-331 1q-12 -1 -18 5t-6 14q0 7 6 13t18 6v1zM268 472q-15 -18 -42 -27.5t-57 -9.5q-43 0 -78.5 21.5t-35.5 70.5q0 62 53.5 86.5t117.5 24.5h8.5h8.5t8.5 -0.5t8.5 -0.5v4.5v4.5q0 24 -14 34.5t-33 11.5h-2.5h-2.5 q-15 -1 -29 -7.5t-22 -16.5q-4 -8 -13 -12t-20 -4h-2.5h-2.5q-16 2 -28.5 11t-13.5 23q0 8 6 17.5t19 19.5q9 7 38 12.5t65 5.5q8 0 16.5 -0.5t16.5 -0.5q53 -5 96.5 -29.5t43.5 -81.5v-109q0 -16 5 -22t11 -10l0.5 -0.5t1.5 -0.5q5 -3 9 -7.5t4 -15.5q0 -18 -21.5 -21 t-56.5 -3h-6.5h-6.5q-19 0 -35 4t-16 19v4t1 4v1zM260 598q-40 -1 -65 -21.5t-26 -46.5q0 -5 1.5 -9.5t2.5 -9.5q4 -10 11.5 -14t16.5 -4q3 0 7 0.5t7 1.5q17 4 31 17t14 30v56v0z" horiz-adv-x="433" glyph-name="ellipsis"/>
<glyph unicode="«" d="M126 299l63 -126q5 -9 6.5 -17t1.5 -15q0 -12 -5 -19t-14 -7q-6 0 -13 4t-15 14l-111 135q-5 4 -7.5 10.5t-2.5 13.5q0 10 4 21.5t14 24.5l95 119q8 9 16.5 13.5t15.5 4.5q10 0 16 -6.5t6 -17.5q0 -6 -1.5 -12.5t-5.5 -14.5l-63 -125v0zM283 299l63 -126q5 -9 6.5 -17 t1.5 -15q1 -12 -4.5 -19t-13.5 -7q-7 0 -14 4t-15 14l-110 135q-5 4 -8 10.5t-3 13.5q0 10 4.5 21.5t14.5 24.5l94 119q3 2 5.5 5t5.5 5q6 4 11.5 6t10.5 2q9 0 15 -6.5t6 -17.5q0 -6 -1.5 -12.5t-5.5 -14.5l-63 -125v0z" horiz-adv-x="378" glyph-name="ydieresis"/>
<glyph unicode="¬" glyph-name="emdash"/>
<glyph unicode="­" horiz-adv-x="500" glyph-name="uni00AD"/>
<glyph unicode="®" d="M47 386q0 173 114.5 267t251.5 96h3.5h2.5q136 0 249.5 -92.5t118.5 -287.5v-7.5v-7.5q1 -187 -114.5 -282t-254.5 -96h-1.5h-1.5q-138 1 -253 97.5t-115 293.5v9.5v8.5v1zM94 386q-2 -183 97.5 -272.5t220.5 -89.5h2.5h3.5q121 2 221.5 91t100.5 262q0 155 -102 239.5 t-224 84.5q-112 0 -207.5 -76t-112.5 -240v1zM323 323v-118q0 -9 6 -13t14 -7q1 -1 2 -1.5l1 -0.5q9 -4 16.5 -9.5t7.5 -17.5q0 -17 -12 -20t-35 -3l-71 1q-18 -1 -28.5 2t-10.5 20q0 11 5.5 14.5t12.5 5.5q0 1 0.5 1h1.5q7 2 13 7t6 20v324q0 14 -6 19.5t-13 9.5 q-1 0 -1.5 0.5l-0.5 0.5q-7 3 -12.5 8t-5.5 16q0 17 11.5 20t35.5 3l189 1q11 -1 23.5 -2t25.5 -4q35 -7 64 -32t29 -81q0 -34 -18.5 -59t-40.5 -41q-12 -9 -23.5 -15.5t-20.5 -10.5q8 -2 17.5 -11.5t19.5 -23.5q6 -9 13 -20.5t13 -22.5q12 -22 20.5 -41.5t11.5 -29.5 t8 -16.5t11 -11.5q2 -1 3.5 -2.5l3.5 -3.5q6 -4 9.5 -9t3.5 -13q0 -17 -9 -20t-38 -3l-63 1q-18 -1 -29 2t-11 20q0 9 6.5 13t13.5 7q8 3 14 7t6 13q0 10 -11.5 33t-27.5 48l-8 12l-8 12q-8 13 -16.5 24t-15.5 20l-102 -22v0zM323 378q79 13 122.5 36t58.5 48q4 7 6 14t2 14 q0 28 -29.5 48t-76.5 20h-6h-6q-36 0 -53.5 -4t-17.5 -27v-149v0z" horiz-adv-x="787" glyph-name="registered"/>
<glyph unicode="¯" glyph-name="glyph263"/>
<glyph unicode="°" glyph-name="glyph264"/>
<glyph unicode="±" horiz-adv-x="500" glyph-name="mu"/>
<glyph unicode="²" glyph-name="uni00B2"/>
<glyph unicode="³" glyph-name="uni00B3"/>
<glyph unicode="´" d="M157 709q12 16 30 19t41 3q5 1 9.5 1h8.5q30 0 43.5 -9t15.5 -19v-1.5v-1.5q0 -7 -4 -13.5t-10 -11.5l-157 -117q-8 -7 -16 -9.5t-16 -2.5q-11 -1 -18.5 5t-8.5 16q0 3 1 6.5t3 7.5l78 127v0z" horiz-adv-x="370" glyph-name="acute"/>
<glyph unicode="µ" horiz-adv-x="500" glyph-name="oslash"/>
<glyph unicode="¶" d="M402 236q-184 -1 -279 75.5t-109 168.5q-1 8 -1.5 15.5t-0.5 15.5q0 83 63.5 147.5t184.5 64.5l472 1q15 -1 22.5 -13t7.5 -26q0 -15 -7.5 -27.5t-22.5 -12.5l-78 1v-788q0 -23 -14.5 -35t-32.5 -12t-33 11.5t-15 35.5v796h-63v-796q0 -23 -14.5 -35t-31.5 -12 q-18 0 -33 11.5t-15 35.5v378v0zM402 291v363q-5 -1 -10.5 -1h-10.5q-113 1 -162.5 -43t-49.5 -103q0 -9 1 -18t3 -18q15 -67 77.5 -122.5t151.5 -58.5v1z" horiz-adv-x="780" glyph-name="paragraph"/>
<glyph unicode="·" glyph-name="glyph265"/>
<glyph unicode="¸" d="M126 0h47l-16 -63q7 1 13.5 2.5t12.5 1.5q36 0 56.5 -24t20.5 -59q0 -41 -30.5 -62.5t-66.5 -24.5h-4h-4q-23 0 -44 8t-32 24q-4 5 -5.5 10t-1.5 9q0 10 7 16t16 6q6 0 12 -2t11 -7q8 -8 15.5 -10.5t15.5 -2.5q15 -1 28 7.5t18 19.5q1 2 1.5 4.5t0.5 4.5q0 23 -11 30 t-25 7h-4.5h-4.5q-3 -1 -6.5 -1.5t-7.5 -0.5q-5 -1 -10 -1.5t-10 -0.5q-7 0 -12 2.5t-5 9.5v4.5t1 5.5l24 87v0z" horiz-adv-x="291" glyph-name="glyph121"/>
<glyph unicode="¹" glyph-name="uni00B9"/>
<glyph unicode="º" d="M63 362h331q9 -1 13 -7t4 -13q0 -8 -4 -14t-13 -6l-331 1q-12 -1 -18 5t-6 14q0 7 6 13t18 6v1zM39 575q6 76 63.5 114.5t124.5 38.5q68 0 123.5 -38.5t58.5 -115.5v-2.5v-3.5q0 -72 -57.5 -110t-126.5 -38q-68 0 -125.5 37.5t-60.5 116.5v1zM157 575q0 -52 21.5 -78 t46.5 -27q25 0 45.5 26t20.5 78q0 53 -21 78t-47 25q-25 0 -45.5 -23.5t-20.5 -69.5v-2.5v-2.5v-2.5v-2.5v1z" horiz-adv-x="433" glyph-name="Agrave"/>
<glyph unicode="»" d="M102 283l-71 142l-2 6t-1 6q-1 11 6 16.5t16 5.5q6 0 11.5 -2.5t9.5 -8.5l110 -125q10 -14 14.5 -22.5t4.5 -15.5q0 -6 -3 -12t-8 -14l-118 -141q-7 -8 -13.5 -11t-11.5 -3q-9 0 -14.5 7.5t-5.5 17.5q0 5 1.5 10t3.5 10l71 134v0zM268 283l-71 142q-2 3 -3 6.5t-1 6.5 q0 10 7 15.5t15 5.5q6 0 11.5 -2.5t9.5 -8.5l110 -125q10 -14 14.5 -22.5t4.5 -15.5q0 -6 -3 -12t-8 -14l-118 -141q-7 -8 -13 -11t-11 -3q-9 0 -14.5 7t-5.5 17q0 5 1 10.5t4 10.5l71 134v0z" horiz-adv-x="378" glyph-name="Ydieresis"/>
<glyph unicode="¼" glyph-name="onequarter"/>
<glyph unicode="½" horiz-adv-x="500" glyph-name="glyph243"/>
<glyph unicode="¾" glyph-name="threequarters"/>
<glyph unicode="¿" d="M276 252q0 13 14.5 20.5t31.5 7.5q18 0 33 -7t15 -22v-133q0 -12 -7.5 -20.5t-19.5 -16.5q-11 -7 -24.5 -14.5t-27.5 -17.5q-27 -19 -50 -49.5t-28 -86.5q0 -2 -0.5 -3.5t-0.5 -3.5v-7.5v-6.5q0 -57 24.5 -85.5t54.5 -32.5h4h4q28 0 49.5 19.5t21.5 56.5t22.5 54.5 t49.5 17.5q26 1 48 -15t22 -45q0 -8 -2 -16.5t-6 -18.5q-27 -62 -87.5 -91t-128.5 -29h-4h-3q-79 2 -147.5 38t-86.5 98q-6 20 -9.5 39.5t-3.5 38.5q0 70 48 128t154 100q24 5 32 27t8 75v1zM213 425q2 37 32 56.5t65 19.5q36 0 66 -19t33 -58v-2.5v-3.5q0 -37 -31 -58.5 t-69 -21.5q-35 0 -64.5 20.5t-31.5 65.5v1z" horiz-adv-x="535" glyph-name="oe"/>
<glyph unicode="À" d="M181 236l-39 -126q-1 -4 -1.5 -7t-0.5 -6q0 -12 8.5 -19t18.5 -13l0.5 -0.5l0.5 -0.5q11 -6 20 -13.5t9 -20.5q0 -23 -15 -26.5t-56 -3.5h-95h-1.5h-1.5q-16 0 -29.5 4t-13.5 26q0 9 4 14t11 10q3 3 8 6.5t10 8.5q9 7 16.5 18t12.5 30q23 71 53 150.5t65 161.5 q17 40 34.5 80.5t35.5 79.5l24 52t24 51q12 23 28 35t51 12q41 0 58 -8t29 -31q19 -57 43.5 -118.5t51.5 -124.5q4 -10 8.5 -20t8.5 -20q35 -83 68.5 -162.5t55.5 -145.5q3 -10 6.5 -17t7.5 -13q7 -12 14.5 -16.5t13.5 -7.5t9.5 -8t3.5 -17q0 -23 -15 -26.5t-56 -3.5h-149 q-30 0 -46.5 3.5t-16.5 26.5q0 10 5.5 15t12.5 8l0.5 0.5t1.5 0.5q7 4 13.5 9.5t6.5 18.5v5t-1 6l-39 143h-276v0zM213 323h212l-102 260l-110 -260v0zM268 929q-10 7 -14.5 14t-4.5 13q-1 12 18.5 19.5t55.5 7.5q47 0 65 -8t29 -31l55 -94q8 -13 11 -22.5t3 -16.5t-3.5 -11 t-11.5 -4t-22 5.5t-32 16.5l-149 111v0z" horiz-adv-x="732" glyph-name="currency"/>
<glyph unicode="Á" d="M181 236l-39 -126q-1 -4 -1.5 -7t-0.5 -6q0 -12 8.5 -19t18.5 -13l0.5 -0.5l0.5 -0.5q11 -6 20 -13.5t9 -20.5q0 -23 -15 -26.5t-56 -3.5h-95h-1.5h-1.5q-16 0 -29.5 4t-13.5 26q0 9 4 14t11 10q3 3 8 6.5t10 8.5q9 7 16.5 18t12.5 30q23 71 53 150.5t65 161.5 q17 40 34.5 80.5t35.5 79.5l24 52t24 51q12 23 28 35t51 12q41 0 58 -8t29 -31q19 -57 43.5 -118.5t51.5 -124.5q4 -10 8.5 -20t8.5 -20q35 -83 68.5 -162.5t55.5 -145.5q3 -10 6.5 -17t7.5 -13q7 -12 14.5 -16.5t13.5 -7.5t9.5 -8t3.5 -17q0 -23 -15 -26.5t-56 -3.5h-149 q-30 0 -46.5 3.5t-16.5 26.5q0 10 5.5 15t12.5 8l0.5 0.5t1.5 0.5q7 4 13.5 9.5t6.5 18.5v5t-1 6l-39 143h-276v0zM213 323h212l-102 260l-110 -260v0zM386 961q12 16 29.5 19t41.5 3q5 1 9.5 1h8.5q32 0 45 -10t13 -22v-2v-3q-1 -5 -4.5 -10.5t-8.5 -8.5l-158 -117 q-4 -4 -8 -6t-7 -3q-4 -2 -8 -2.5t-8 -0.5q-11 -1 -19 5t-9 16q0 3 1 6.5t3 7.5l79 127v0z" horiz-adv-x="732" glyph-name="breve"/>
<glyph unicode="Â" d="M181 236l-39 -126q-1 -4 -1.5 -7t-0.5 -6q0 -12 8.5 -19t18.5 -13l0.5 -0.5l0.5 -0.5q11 -6 20 -13.5t9 -20.5q0 -23 -15 -26.5t-56 -3.5h-95h-1.5h-1.5q-16 0 -29.5 4t-13.5 26q0 9 4 14t11 10q3 3 8 6.5t10 8.5q9 7 16.5 18t12.5 30q23 71 53 150.5t65 161.5 q17 40 34.5 80.5t35.5 79.5l24 52t24 51q12 23 28 35t51 12q41 0 58 -8t29 -31q19 -57 43.5 -118.5t51.5 -124.5q4 -10 8.5 -20t8.5 -20q35 -83 68.5 -162.5t55.5 -145.5q3 -10 6.5 -17t7.5 -13q7 -12 14.5 -16.5t13.5 -7.5t9.5 -8t3.5 -17q0 -23 -15 -26.5t-56 -3.5h-149 q-30 0 -46.5 3.5t-16.5 26.5q0 10 5.5 15t12.5 8l0.5 0.5t1.5 0.5q7 4 13.5 9.5t6.5 18.5v5t-1 6l-39 143h-276v0zM213 323h212l-102 260l-110 -260v0zM378 898l-126 -87q-11 -8 -21.5 -11.5t-18.5 -3.5q-10 0 -15.5 4.5t-5.5 11.5t5.5 16.5t16.5 20.5l126 127 q11 11 21.5 17t20.5 6q11 0 21.5 -6t22.5 -18l118 -117q13 -14 19 -26t7 -21q0 -9 -5 -14.5t-15 -5.5q-8 -1 -19.5 4t-25.5 15l-126 88v0z" horiz-adv-x="732" glyph-name="tilde"/>
<glyph unicode="Ã" d="M181 236l-39 -126q-1 -4 -1.5 -7t-0.5 -6q0 -12 8.5 -19t18.5 -13l0.5 -0.5l0.5 -0.5q11 -6 20 -13.5t9 -20.5q0 -23 -15 -26.5t-56 -3.5h-95h-1.5h-1.5q-16 0 -29.5 4t-13.5 26q0 9 4 14t11 10q3 3 8 6.5t10 8.5q9 7 16.5 18t12.5 30q23 71 53 150.5t65 161.5 q17 40 34.5 80.5t35.5 79.5l24 52t24 51q12 23 28 35t51 12q41 0 58 -8t29 -31q19 -57 43.5 -118.5t51.5 -124.5q4 -10 8.5 -20t8.5 -20q35 -83 68.5 -162.5t55.5 -145.5q3 -10 6.5 -17t7.5 -13q7 -12 14.5 -16.5t13.5 -7.5t9.5 -8t3.5 -17q0 -23 -15 -26.5t-56 -3.5h-149 q-30 0 -46.5 3.5t-16.5 26.5q0 10 5.5 15t12.5 8l0.5 0.5t1.5 0.5q7 4 13.5 9.5t6.5 18.5v5t-1 6l-39 143h-276v0zM213 323h212l-102 260l-110 -260v0zM173 843q22 55 55 80.5t75 25.5q16 0 32.5 -3t34.5 -10q11 -4 21 -9.5t19 -10.5q19 -11 36 -20t33 -9q6 0 12 2t13 6 q6 3 12 9.5t12 15.5q5 7 10.5 10t10.5 3q9 0 15 -6t7 -17q0 -6 -2.5 -13.5t-9.5 -15.5q-31 -43 -61 -59t-59 -16q-26 0 -51 9t-47 21q-23 11 -42.5 20t-36.5 9q-13 0 -23.5 -7t-18.5 -24q-4 -8 -8 -13.5t-8 -8.5q-5 -4 -9 -6t-8 -2q-7 0 -12.5 5t-5.5 15v3v3l2 6l2 6v1z" horiz-adv-x="732" glyph-name="guilsinglleft"/>
<glyph unicode="Ä" d="M181 236l-39 -126q-1 -4 -1.5 -7t-0.5 -6q0 -12 8.5 -19t18.5 -13l0.5 -0.5l0.5 -0.5q11 -6 20 -13.5t9 -20.5q0 -23 -15 -26.5t-56 -3.5h-95h-1.5h-1.5q-16 0 -29.5 4t-13.5 26q0 9 4 14t11 10q3 3 8 6.5t10 8.5q9 7 16.5 18t12.5 30q23 71 53 150.5t65 161.5 q17 40 34.5 80.5t35.5 79.5l24 52t24 51q12 23 28 35t51 12q41 0 58 -8t29 -31q19 -57 43.5 -118.5t51.5 -124.5q4 -10 8.5 -20t8.5 -20q35 -83 68.5 -162.5t55.5 -145.5q3 -10 6.5 -17t7.5 -13q7 -12 14.5 -16.5t13.5 -7.5t9.5 -8t3.5 -17q0 -23 -15 -26.5t-56 -3.5h-149 q-30 0 -46.5 3.5t-16.5 26.5q0 10 5.5 15t12.5 8l0.5 0.5t1.5 0.5q7 4 13.5 9.5t6.5 18.5v5t-1 6l-39 143h-276v0zM213 323h212l-102 260l-110 -260v0zM189 882q0 34 23 51.5t51 17.5q29 1 52.5 -17t23.5 -53t-23 -53t-51 -18q-28 -1 -52 17t-24 54v1zM417 882 q3 33 26.5 50.5t51.5 18.5h1.5h1.5q29 1 53 -17t24 -53t-24.5 -53t-53.5 -18q-30 -1 -55 17t-25 54v1z" horiz-adv-x="732" glyph-name="Adieresis"/>
<glyph unicode="Å" d="M181 236l-39 -126q-1 -4 -1.5 -7t-0.5 -6q0 -12 8.5 -19t18.5 -13l0.5 -0.5l0.5 -0.5q11 -6 20 -13.5t9 -20.5q0 -23 -15 -26.5t-56 -3.5h-95h-1.5h-1.5q-16 0 -29.5 4t-13.5 26q0 9 4 14t11 10q3 3 8 6.5t10 8.5q9 7 16.5 18t12.5 30q23 71 53 150.5t65 161.5 q17 40 34.5 80.5t35.5 79.5l24 52t24 51q12 23 28 35t51 12q41 0 58 -8t29 -31q19 -57 43.5 -118.5t51.5 -124.5q4 -10 8.5 -20t8.5 -20q35 -83 68.5 -162.5t55.5 -145.5q3 -10 6.5 -17t7.5 -13q7 -12 14.5 -16.5t13.5 -7.5t9.5 -8t3.5 -17q0 -23 -15 -26.5t-56 -3.5h-149 q-30 0 -46.5 3.5t-16.5 26.5q0 10 5.5 15t12.5 8l0.5 0.5t1.5 0.5q7 4 13.5 9.5t6.5 18.5v5t-1 6l-39 143h-276v0zM213 323h212l-102 260l-110 -260v0zM268 921v3v3q0 50 32 74.5t70 24.5q41 1 75.5 -26t34.5 -80q0 -52 -32 -78t-70 -28h-1.5h-1.5q-40 0 -73.5 26.5 t-33.5 79.5v1zM331 921q0 -21 13 -31.5t29 -10.5q17 0 30.5 10t13.5 31v3.5v2.5q1 19 -11.5 29.5t-27.5 11.5h-1.5h-1.5q-16 1 -30 -9.5t-14 -30.5v-2v-1v-2v-2v1z" horiz-adv-x="732" glyph-name="Aring"/>
<glyph unicode="Æ" d="M457 268h-237q-5 -12 -11 -25.5t-13 -27.5l-4 -10l-4 -10q-12 -30 -21.5 -56.5t-9.5 -37.5q0 -13 8 -18t18 -9q1 -1 2.5 -1.5t3.5 -0.5q11 -5 21 -13t10 -29q0 -23 -17.5 -26.5t-52.5 -3.5h-111h-8h-8q-15 1 -26.5 8t-11.5 30q0 13 6 19.5t14 11.5q5 3 10.5 5.5t10.5 6.5 q8 6 15.5 14t13.5 22q22 55 56.5 126.5t74.5 146.5q12 22 24 44.5t24 44.5q34 61 67 116t61 97q0 1 0.5 1.5t1.5 0.5q23 34 53.5 39.5t94.5 5.5l401 1q36 -1 53.5 -5t17.5 -27l8 -86q0 -22 -10.5 -31.5t-24.5 -9.5h-4h-4q-11 2 -21 8t-15 16q-11 24 -45 39.5t-81 15.5l-78 1 q-41 -1 -56 -9.5t-15 -38.5v-172h134q35 -1 52 4t26 11q4 2 6.5 4t5.5 4q4 3 8.5 5t11.5 2q23 0 31 -11.5t8 -35.5v-46q0 -30 -8 -43t-31 -13q-11 0 -17 3t-11 6q-2 2 -4 3.5t-4 2.5q-9 6 -23 11t-43 5l-142 1v-204q0 -31 15.5 -51.5t39.5 -20.5l126 1q45 -1 72 16.5 t47 38.5l6.5 6.5l6.5 6.5l0.5 0.5l1.5 1.5q12 12 22.5 17t20.5 5q15 0 25 -10.5t11 -23.5v-1.5v-1.5v-4.5t-1 -4.5l-23 -94q-6 -24 -25 -27.5t-54 -3.5h-464q-30 0 -46.5 4.5t-16.5 33.5q0 13 7 19.5t16 11.5q1 1 2 1.5l3 1.5q10 6 18.5 15t8.5 30v151v0zM457 354v307 q-29 -20 -70.5 -88t-85.5 -147q-1 -2 -2.5 -4t-2.5 -4q-9 -17 -18 -33l-18 -32l197 1v0z" horiz-adv-x="1016" glyph-name="Oslash"/>
<glyph unicode="Ç" d="M31 370q18 182 120 264.5t222 98.5q18 3 36.5 4t36.5 1q107 1 187.5 -33t83.5 -76l7 -86q0 -24 -11 -37t-26 -13q-3 0 -6.5 0.5t-6.5 1.5q-13 4 -25 17.5t-19 37.5q-22 61 -69.5 92.5t-102.5 31.5h-7.5t-6.5 -1q-76 -5 -140 -75t-68 -213v-6.5v-6.5q-1 -3 -1 -6v-6 q0 -152 70.5 -220t155.5 -69h7.5h7.5q50 4 97.5 28t80.5 65q8 10 17.5 15t18.5 7q3 1 5.5 1h4.5q16 0 27.5 -8.5t11.5 -24.5q0 -7 -3.5 -16.5t-11.5 -20.5q-64 -88 -140 -110.5t-206 -22.5l-16 -47q9 2 17.5 3t15.5 1q41 0 60 -21t19 -49v-6t-1 -7q-4 -30 -29 -55t-65 -26 q-17 0 -37 6t-43 20q-7 3 -11.5 7.5t-6.5 8.5q-1 2 -1.5 4t-0.5 4q0 10 8 16.5t18 6.5h3.5t2.5 -1q3 0 6.5 -2t5.5 -4q7 -7 14.5 -11.5t15.5 -6.5q3 0 5.5 -0.5t5.5 -0.5q16 0 27 10.5t11 31.5q0 20 -8 27t-20 7q-4 0 -8.5 -0.5t-9.5 -1.5h-1.5t-1.5 -1q-5 0 -10 -1t-10 -1 q-9 0 -14.5 4t-5.5 15q0 3 0.5 6.5t1.5 8.5l16 55q-136 29 -218 127t-82 258v1z" horiz-adv-x="756" glyph-name="Ccedilla"/>
<glyph unicode="È" d="M252 362v-205q0 -42 27.5 -60.5t74.5 -18.5l87 1q33 -1 56 15t42 35q10 11 19 21t18 17q7 6 14.5 9.5t15.5 3.5q20 0 28.5 -14t9.5 -35q0 -10 -1.5 -21t-4.5 -22q-7 -26 -20.5 -50t-27.5 -34q-4 -2 -7.5 -3t-7.5 -1h-504q-4 0 -10.5 0.5t-13.5 2.5q-12 5 -21.5 15 t-9.5 28q0 12 8.5 19t19.5 13q10 6 18.5 12.5t8.5 18.5v521q0 20 -7.5 26t-15.5 9q-9 3 -16.5 8.5t-7.5 26.5q0 23 17.5 31t52.5 8l465 1q21 -1 35 -26t17 -56q1 -4 1 -8v-8q1 -24 -8 -42t-29 -18q-13 0 -22 5.5t-17 13.5q-4 5 -8.5 10t-9.5 10q-15 15 -40.5 27t-75.5 12 l-71 1q-6 -1 -15.5 -1.5t-18.5 -1.5q-17 -3 -31 -12.5t-14 -32.5v-172h165q18 -1 28.5 5t18.5 14q1 0 1.5 1t1.5 2q7 6 15.5 11t21.5 5q17 0 26 -24.5t9 -53.5v-1.5v-1.5q0 -28 -8.5 -52t-26.5 -24q-17 0 -27.5 6t-19.5 13q-9 8 -19.5 14t-28.5 6l-157 1v0zM228 921 q-9 7 -14 14t-5 13q0 12 19 19.5t55 7.5q47 0 65 -7.5t30 -31.5l55 -93q8 -14 11 -23.5t3 -16.5t-3.5 -11t-11.5 -4t-22 5.5t-32 16.5l-150 111v0z" horiz-adv-x="654" glyph-name="ring"/>
<glyph unicode="É" d="M252 362v-205q0 -42 27.5 -60.5t74.5 -18.5l87 1q33 -1 56 15t42 35q10 11 19 21t18 17q7 6 14.5 9.5t15.5 3.5q20 0 28.5 -14t9.5 -35q0 -10 -1.5 -21t-4.5 -22q-7 -26 -20.5 -50t-27.5 -34q-4 -2 -7.5 -3t-7.5 -1h-504q-4 0 -10.5 0.5t-13.5 2.5q-12 5 -21.5 15 t-9.5 28q0 12 8.5 19t19.5 13q10 6 18.5 12.5t8.5 18.5v521q0 20 -7.5 26t-15.5 9q-9 3 -16.5 8.5t-7.5 26.5q0 23 17.5 31t52.5 8l465 1q21 -1 35 -26t17 -56q1 -4 1 -8v-8q1 -24 -8 -42t-29 -18q-13 0 -22 5.5t-17 13.5q-4 5 -8.5 10t-9.5 10q-15 15 -40.5 27t-75.5 12 l-71 1q-6 -1 -15.5 -1.5t-18.5 -1.5q-17 -3 -31 -12.5t-14 -32.5v-172h165q18 -1 28.5 5t18.5 14q1 0 1.5 1t1.5 2q7 6 15.5 11t21.5 5q17 0 26 -24.5t9 -53.5v-1.5v-1.5q0 -28 -8.5 -52t-26.5 -24q-17 0 -27.5 6t-19.5 13q-9 8 -19.5 14t-28.5 6l-157 1v0zM339 953 q11 16 29 19t41 3q5 1 9.5 1h8.5q30 0 43.5 -9t15.5 -19v-1.5v-1.5q0 -7 -4 -13.5t-10 -11.5l-157 -117q-8 -6 -16 -9t-16 -3q-11 0 -18.5 5.5t-8.5 15.5q0 3 1 6.5t3 7.5l79 127v0z" horiz-adv-x="654" glyph-name="Eacute"/>
<glyph unicode="Ê" d="M252 362v-205q0 -42 27.5 -60.5t74.5 -18.5l87 1q33 -1 56 15t42 35q10 11 19 21t18 17q7 6 14.5 9.5t15.5 3.5q20 0 28.5 -14t9.5 -35q0 -10 -1.5 -21t-4.5 -22q-7 -26 -20.5 -50t-27.5 -34q-4 -2 -7.5 -3t-7.5 -1h-504q-4 0 -10.5 0.5t-13.5 2.5q-12 5 -21.5 15 t-9.5 28q0 12 8.5 19t19.5 13q10 6 18.5 12.5t8.5 18.5v521q0 20 -7.5 26t-15.5 9q-9 3 -16.5 8.5t-7.5 26.5q0 23 17.5 31t52.5 8l465 1q21 -1 35 -26t17 -56q1 -4 1 -8v-8q1 -24 -8 -42t-29 -18q-13 0 -22 5.5t-17 13.5q-4 5 -8.5 10t-9.5 10q-15 15 -40.5 27t-75.5 12 l-71 1q-6 -1 -15.5 -1.5t-18.5 -1.5q-17 -3 -31 -12.5t-14 -32.5v-172h165q18 -1 28.5 5t18.5 14q1 0 1.5 1t1.5 2q7 6 15.5 11t21.5 5q17 0 26 -24.5t9 -53.5v-1.5v-1.5q0 -28 -8.5 -52t-26.5 -24q-17 0 -27.5 6t-19.5 13q-9 8 -19.5 14t-28.5 6l-157 1v0zM315 898 l-126 -87q-11 -8 -21.5 -11.5t-18.5 -3.5q-10 0 -15.5 4.5t-5.5 11.5t5.5 16.5t16.5 20.5l126 127q11 11 21.5 17t20.5 6q11 0 21.5 -6t22.5 -18l118 -117q13 -14 19 -26t7 -21q0 -9 -5 -14.5t-15 -5.5q-8 -1 -19.5 4t-25.5 15l-126 88v0z" horiz-adv-x="654" glyph-name="macron"/>
<glyph unicode="Ë" d="M252 362v-205q0 -42 27.5 -60.5t74.5 -18.5l87 1q33 -1 56 15t42 35q10 11 19 21t18 17q7 6 14.5 9.5t15.5 3.5q20 0 28.5 -14t9.5 -35q0 -10 -1.5 -21t-4.5 -22q-7 -26 -20.5 -50t-27.5 -34q-4 -2 -7.5 -3t-7.5 -1h-504q-4 0 -10.5 0.5t-13.5 2.5q-12 5 -21.5 15 t-9.5 28q0 12 8.5 19t19.5 13q10 6 18.5 12.5t8.5 18.5v521q0 20 -7.5 26t-15.5 9q-9 3 -16.5 8.5t-7.5 26.5q0 23 17.5 31t52.5 8l465 1q21 -1 35 -26t17 -56q1 -4 1 -8v-8q1 -24 -8 -42t-29 -18q-13 0 -22 5.5t-17 13.5q-4 5 -8.5 10t-9.5 10q-15 15 -40.5 27t-75.5 12 l-71 1q-6 -1 -15.5 -1.5t-18.5 -1.5q-17 -3 -31 -12.5t-14 -32.5v-172h165q18 -1 28.5 5t18.5 14q1 0 1.5 1t1.5 2q7 6 15.5 11t21.5 5q17 0 26 -24.5t9 -53.5v-1.5v-1.5q0 -28 -8.5 -52t-26.5 -24q-17 0 -27.5 6t-19.5 13q-9 8 -19.5 14t-28.5 6l-157 1v0zM134 906 q0 34 23 51.5t51 17.5h1.5h1.5q27 0 49.5 -18t22.5 -52q0 -35 -23 -53t-51 -18h-1.5h-1.5q-27 0 -49.5 18t-22.5 53v1zM362 906q3 33 26.5 50.5t51.5 18.5h1.5h1.5q29 1 53 -17t24 -53t-24.5 -53t-53.5 -18q-30 -1 -55 17t-25 54v1z" horiz-adv-x="654" glyph-name="dotaccent"/>
<glyph unicode="Ì" d="M79 110v512q0 20 -8.5 28.5t-18.5 14.5q-11 6 -19.5 14t-8.5 29q0 23 24.5 27t53.5 4l142 1q29 -1 50 -5t21 -27q0 -15 -8.5 -25t-18.5 -19q-11 -9 -19.5 -18.5t-8.5 -24.5v-511q0 -22 8.5 -28.5t19.5 -10.5l0.5 -0.5l0.5 -0.5q10 -3 18 -9t8 -23q0 -29 -18 -33.5 t-77 -4.5h-126q-29 0 -49.5 4.5t-20.5 33.5q0 17 8 23t18 9l0.5 0.5l0.5 0.5q11 4 19.5 10.5t8.5 27.5v1zM63 921q-9 7 -14 14t-5 13q0 12 19 19.5t55 7.5q47 0 65 -7.5t30 -31.5l55 -93q7 -14 10.5 -23.5t3.5 -16.5t-3.5 -11t-11.5 -4q-9 0 -22.5 5.5t-31.5 16.5l-150 111 v0z" glyph-name="caron"/>
<glyph unicode="Í" d="M79 110v512q0 20 -8.5 28.5t-18.5 14.5q-11 6 -19.5 14t-8.5 29q0 23 24.5 27t53.5 4l142 1q29 -1 50 -5t21 -27q0 -15 -8.5 -25t-18.5 -19q-11 -9 -19.5 -18.5t-8.5 -24.5v-511q0 -22 8.5 -28.5t19.5 -10.5l0.5 -0.5l0.5 -0.5q10 -3 18 -9t8 -23q0 -29 -18 -33.5 t-77 -4.5h-126q-29 0 -49.5 4.5t-20.5 33.5q0 17 8 23t18 9l0.5 0.5l0.5 0.5q11 4 19.5 10.5t8.5 27.5v1zM157 945q12 17 30 20t41 3q5 1 8.5 1h7.5q30 0 43.5 -8.5t16.5 -18.5q1 -1 1 -2.5v-2.5q0 -7 -4 -13.5t-10 -11.5l-157 -117q-8 -6 -16 -9t-16 -3q-11 0 -18.5 5.5 t-8.5 15.5q0 3 1 6.5t3 7.5l78 127v0z" glyph-name="cedilla"/>
<glyph unicode="Î" d="M79 110v512q0 20 -8.5 28.5t-18.5 14.5q-11 6 -19.5 14t-8.5 29q0 23 24.5 27t53.5 4l142 1q29 -1 50 -5t21 -27q0 -15 -8.5 -25t-18.5 -19q-11 -9 -19.5 -18.5t-8.5 -24.5v-511q0 -22 8.5 -28.5t19.5 -10.5l0.5 -0.5l0.5 -0.5q10 -3 18 -9t8 -23q0 -29 -18 -33.5 t-77 -4.5h-126q-29 0 -49.5 4.5t-20.5 33.5q0 17 8 23t18 9l0.5 0.5l0.5 0.5q11 4 19.5 10.5t8.5 27.5v1zM165 882l-126 -87q-11 -8 -21 -11.5t-18 -3.5q-9 0 -14.5 4.5t-5.5 12.5q0 7 5 16.5t15 20.5l126 127q11 10 21.5 16t20.5 6q4 0 7.5 -0.5t7.5 -1.5q7 -3 14.5 -8 t15.5 -13l118 -117q13 -14 19 -26t6 -22q0 -9 -5 -14.5t-15 -5.5q-8 -1 -19.5 4t-25.5 15l-126 88v0z" glyph-name="hungarumlaut"/>
<glyph unicode="Ï" d="M79 110v512q0 20 -8.5 28.5t-18.5 14.5q-11 6 -19.5 14t-8.5 29q0 23 24.5 27t53.5 4l142 1q29 -1 50 -5t21 -27q0 -15 -8.5 -25t-18.5 -19q-11 -9 -19.5 -18.5t-8.5 -24.5v-511q0 -22 8.5 -28.5t19.5 -10.5l0.5 -0.5l0.5 -0.5q10 -3 18 -9t8 -23q0 -29 -18 -33.5 t-77 -4.5h-126q-29 0 -49.5 4.5t-20.5 33.5q0 17 8 23t18 9l0.5 0.5l0.5 0.5q11 4 19.5 10.5t8.5 27.5v1zM-16 874q1 34 23.5 52t50.5 18q29 1 52.5 -17t23.5 -54q0 -35 -23 -52.5t-51 -17.5q-28 -1 -51.5 17t-23.5 53zM213 874q2 33 25.5 51t51.5 19h1.5h1.5q29 1 53 -17 t24 -54q0 -35 -24.5 -52.5t-53.5 -17.5h-1.5h-1.5q-28 0 -52 18t-24 52v1z" glyph-name="ogonek"/>
<glyph unicode="Ð" horiz-adv-x="500" glyph-name="glyph232"/>
<glyph unicode="Ñ" d="M189 535v-417q0 -31 10 -41.5t22 -14.5q1 -1 3 -1.5t4 -1.5q9 -3 16.5 -8.5t7.5 -20.5q0 -23 -13 -26.5t-42 -3.5h-118q-18 0 -33 3.5t-15 26.5q0 14 9 20.5t20 11.5l1 0.5t2 0.5q11 5 21 12.5t10 25.5v505q0 26 -11 37.5t-24 19.5q-1 0 -2.5 1t-2.5 1q-12 7 -21 15.5 t-9 27.5t13 24.5t28 6.5h7.5h6.5l165 1q10 -1 28 -20t38 -44l6 -8l6 -8q14 -18 26.5 -35t21.5 -28l228 -321v338q0 26 -10 35t-21 14q-1 0 -2 0.5t-2 0.5q-11 4 -19.5 10.5t-8.5 25.5t13 27.5t28 10.5q4 0 7.5 0.5t7.5 0.5l110 1q29 -1 46 -5t17 -27q0 -19 -9.5 -26.5 t-21.5 -12.5q-1 -1 -2 -1.5t-2 -0.5q-14 -6 -25 -16.5t-11 -37.5v-589q0 -19 -20.5 -29t-46.5 -10q-17 0 -33 5.5t-26 16.5l-378 528v0zM181 858q21 55 54.5 80.5t75.5 26.5q16 0 32.5 -3.5t34.5 -9.5q11 -4 21 -9.5t19 -10.5q19 -11 35.5 -20t32.5 -9q13 0 25 7.5t24 25.5 l5.5 5.5t5.5 4.5q3 1 5.5 2t5.5 1q8 0 14.5 -6t6.5 -17q1 -7 -2 -14t-9 -15q-31 -43 -61 -59t-59 -16q-26 0 -51 9t-48 21q-22 10 -42 19.5t-36 9.5q-13 0 -23.5 -7.5t-18.5 -24.5q-4 -7 -8 -12.5t-8 -9.5q-5 -4 -9 -5.5t-8 -1.5q-7 0 -12.5 5t-5.5 15q0 4 1 8.5t3 8.5v1z " horiz-adv-x="756" glyph-name="Ntilde"/>
<glyph unicode="Ò" glyph-name="scaron"/>
<glyph unicode="Ó" d="M31 362q-3 188 121 282.5t273 95.5h1.5h1.5h1.5h1.5q148 -1 272 -94t124 -277q0 -196 -124.5 -292.5t-273.5 -97.5q-151 0 -276 96t-122 286v1zM228 362v-6.5v-4.5q0 -148 63 -223t139 -75q75 0 137.5 74.5t62.5 225.5q0 160 -60 234t-133 74h-4h-5q-75 -4 -137.5 -79 t-62.5 -210v-5v-6v1zM417 953q12 16 30 19t41 3q5 1 9.5 1h8.5q30 0 43.5 -9t15.5 -19v-1.5v-1.5q0 -7 -4 -13.5t-10 -11.5l-157 -117q-8 -6 -16 -9t-16 -3q-11 0 -18.5 5.5t-8.5 15.5q0 3 1 6.5t3 7.5l78 127v0z" horiz-adv-x="858" glyph-name="Lslash"/>
<glyph unicode="Ô" d="M31 362q-3 188 121 282.5t273 95.5h1.5h1.5h1.5h1.5q148 -1 272 -94t124 -277q0 -196 -124.5 -292.5t-273.5 -97.5q-151 0 -276 96t-122 286v1zM228 362v-6.5v-4.5q0 -148 63 -223t139 -75q75 0 137.5 74.5t62.5 225.5q0 160 -60 234t-133 74h-4h-5q-75 -4 -137.5 -79 t-62.5 -210v-5v-6v1zM441 898l-126 -87q-11 -8 -21.5 -11.5t-18.5 -3.5q-10 0 -15.5 4.5t-5.5 11.5t5.5 16.5t16.5 20.5l126 127q11 11 21.5 17t20.5 6q11 0 21.5 -6t22.5 -18l118 -117q13 -14 19 -26t7 -21q0 -9 -5 -14.5t-15 -5.5q-8 -1 -19.5 4t-25.5 15l-126 88v0z" horiz-adv-x="858" glyph-name="lslash"/>
<glyph unicode="Õ" d="M31 362q-3 188 121 282.5t273 95.5h1.5h1.5h1.5h1.5q148 -1 272 -94t124 -277q0 -196 -124.5 -292.5t-273.5 -97.5q-151 0 -276 96t-122 286v1zM228 362v-6.5v-4.5q0 -148 63 -223t139 -75q75 0 137.5 74.5t62.5 225.5q0 160 -60 234t-133 74h-4h-5q-75 -4 -137.5 -79 t-62.5 -210v-5v-6v1zM252 850q21 55 54.5 80.5t75.5 26.5q16 0 32.5 -3.5t34.5 -9.5q11 -4 21 -9.5t19 -10.5q19 -11 35.5 -20t32.5 -9q13 0 25 7.5t24 25.5l5.5 5.5t5.5 4.5q3 1 5.5 2t5.5 1q8 0 14.5 -6t6.5 -17q1 -7 -2 -14t-9 -15q-31 -43 -61 -59t-59 -16q-26 0 -51 9 t-47 21q-23 11 -42.5 20t-36.5 9q-13 0 -23.5 -7t-18.5 -24q-4 -8 -8 -13.5t-8 -8.5q-5 -4 -9 -6t-8 -2q-7 0 -12.5 5t-5.5 15q0 4 1 8.5t3 8.5v1z" horiz-adv-x="858" glyph-name="guilsinglright"/>
<glyph unicode="Ö" d="M31 362q-3 188 121 282.5t273 95.5h1.5h1.5h1.5h1.5q148 -1 272 -94t124 -277q0 -196 -124.5 -292.5t-273.5 -97.5q-151 0 -276 96t-122 286v1zM228 362v-6.5v-4.5q0 -148 63 -223t139 -75q75 0 137.5 74.5t62.5 225.5q0 160 -60 234t-133 74h-4h-5q-75 -4 -137.5 -79 t-62.5 -210v-5v-6v1zM228 906q0 34 23 51.5t51 17.5q29 1 52.5 -17t23.5 -53t-23 -53t-51 -18q-28 -1 -52 17t-24 54v1zM457 906q3 33 26.5 50.5t51.5 18.5h1.5h1.5q29 1 52.5 -17t23.5 -53t-24.5 -53t-53.5 -18h-1.5h-1.5q-28 0 -52 18t-24 53v1z" horiz-adv-x="858" glyph-name="Odieresis"/>
<glyph unicode="×" glyph-name="multiply"/>
<glyph unicode="Ø" d="M173 79q-63 43 -103 122t-41 171q0 22 2.5 45t8.5 46q12 49 39 97.5t71 92.5q39 39 85.5 61.5t95.5 31.5q20 3 40 5t39 2q67 0 122 -16t82 -37l55 72q5 5 11 9t13 5q2 1 4 1h4q11 0 18 -4.5t7 -14.5q0 -4 -2 -9.5t-7 -11.5l-56 -78q67 -41 116 -130t50 -191 q0 -7 -0.5 -14.5t-0.5 -14.5q-6 -72 -44.5 -141.5t-120.5 -123.5q-58 -37 -115 -53.5t-112 -17.5q-58 0 -112 16.5t-102 46.5l-55 -77q-5 -7 -14 -12t-19 -6h-3h-2q-8 0 -14.5 4t-6.5 13q0 6 2.5 13.5t9.5 18.5l55 79v0zM283 142q29 -43 61.5 -65t65.5 -26q4 0 8.5 -0.5 t8.5 -0.5q80 0 142.5 85t62.5 221q0 48 -9.5 101t-31.5 109l-308 -424v0zM252 197l307 425q-23 19 -47 31.5t-49 17.5l-16 2t-16 1q-80 0 -141.5 -77t-62.5 -220q0 -40 6 -85.5t19 -95.5v1z" horiz-adv-x="858" glyph-name="plusminus"/>
<glyph unicode="Ù" d="M71 630q0 19 -8 24t-18 7h-0.5t-0.5 1q-11 2 -19.5 8t-8.5 30q0 23 24.5 31t53.5 8l158 1q35 -1 49 -9t14 -31q0 -21 -10 -29t-21 -12q-2 -1 -3.5 -1.5t-2.5 -1.5q-10 -3 -18 -8.5t-8 -18.5v-346q0 -89 42.5 -159t130.5 -70q89 0 135 62t46 174v332q0 20 -10 27t-21 12 q-12 4 -22 11t-10 28q0 23 19 31t41 8h1.5h1.5l87 1q1 -1 1.5 -1h1.5q22 0 41 -8t19 -31q0 -21 -10 -28t-21 -11q-12 -5 -22 -12t-10 -28v-322q0 -184 -80.5 -250.5t-210.5 -72.5h-5.5h-5.5h-5.5h-5.5q-124 -1 -216.5 63t-92.5 228v363v0zM276 929q-10 7 -14.5 14t-4.5 13 q-1 12 18.5 19.5t55.5 7.5q46 0 63.5 -7.5t29.5 -29.5q0 -1 0.5 -1.5l0.5 -0.5l55 -94q8 -13 11 -22.5t3 -16.5t-3.5 -11t-11.5 -4t-22 5.5t-32 16.5l-149 111v0z" horiz-adv-x="756" glyph-name="Thorn"/>
<glyph unicode="Ú" d="M71 630q0 19 -8 24t-18 7h-0.5t-0.5 1q-11 2 -19.5 8t-8.5 30q0 23 24.5 31t53.5 8l158 1q35 -1 49 -9t14 -31q0 -21 -10 -29t-21 -12q-2 -1 -3.5 -1.5t-2.5 -1.5q-10 -3 -18 -8.5t-8 -18.5v-346q0 -89 42.5 -159t130.5 -70q89 0 135 62t46 174v332q0 20 -10 27t-21 12 q-12 4 -22 11t-10 28q0 23 19 31t41 8h1.5h1.5l87 1q1 -1 1.5 -1h1.5q22 0 41 -8t19 -31q0 -21 -10 -28t-21 -11q-12 -5 -22 -12t-10 -28v-322q0 -184 -80.5 -250.5t-210.5 -72.5h-5.5h-5.5h-5.5h-5.5q-124 -1 -216.5 63t-92.5 228v363v0zM394 953q11 16 29 19t42 3 q5 1 9.5 1h8.5q32 0 45 -10t13 -22v-2v-3q-1 -5 -4.5 -10.5t-8.5 -8.5l-158 -117q-4 -4 -8 -6t-7 -3q-4 -2 -8 -2.5t-8 -0.5q-11 0 -19 5.5t-9 15.5q0 3 1 6.5t3 7.5l79 127v0z" horiz-adv-x="756" glyph-name="Eth"/>
<glyph unicode="Û" d="M71 630q0 19 -8 24t-18 7h-0.5t-0.5 1q-11 2 -19.5 8t-8.5 30q0 23 24.5 31t53.5 8l158 1q35 -1 49 -9t14 -31q0 -21 -10 -29t-21 -12q-2 -1 -3.5 -1.5t-2.5 -1.5q-10 -3 -18 -8.5t-8 -18.5v-346q0 -89 42.5 -159t130.5 -70q89 0 135 62t46 174v332q0 20 -10 27t-21 12 q-12 4 -22 11t-10 28q0 23 19 31t41 8h1.5h1.5l87 1q1 -1 1.5 -1h1.5q22 0 41 -8t19 -31q0 -21 -10 -28t-21 -11q-12 -5 -22 -12t-10 -28v-322q0 -184 -80.5 -250.5t-210.5 -72.5h-5.5h-5.5h-5.5h-5.5q-124 -1 -216.5 63t-92.5 228v363v0zM402 906l-126 -87 q-11 -8 -21.5 -12t-18.5 -4q-10 0 -15.5 4.5t-5.5 12.5q0 7 5 16.5t16 20.5l126 127q9 8 17 13.5t16 8.5q2 0 4.5 0.5t5.5 0.5q11 0 21.5 -6t22.5 -18l118 -117q13 -14 19 -26t6 -21t-5 -14.5t-14 -5.5q-8 -1 -19.5 4t-25.5 15l-126 88v0z" horiz-adv-x="756" glyph-name="eth"/>
<glyph unicode="Ü" d="M71 630q0 19 -8 24t-18 7h-0.5t-0.5 1q-11 2 -19.5 8t-8.5 30q0 23 24.5 31t53.5 8l158 1q35 -1 49 -9t14 -31q0 -21 -10 -29t-21 -12q-2 -1 -3.5 -1.5t-2.5 -1.5q-10 -3 -18 -8.5t-8 -18.5v-346q0 -89 42.5 -159t130.5 -70q89 0 135 62t46 174v332q0 20 -10 27t-21 12 q-12 4 -22 11t-10 28q0 23 19 31t41 8h1.5h1.5l87 1q1 -1 1.5 -1h1.5q22 0 41 -8t19 -31q0 -21 -10 -28t-21 -11q-12 -5 -22 -12t-10 -28v-322q0 -184 -80.5 -250.5t-210.5 -72.5h-5.5h-5.5h-5.5h-5.5q-124 -1 -216.5 63t-92.5 228v363v0zM197 874q0 34 23 52t51 18h1.5h1.5 q27 0 49.5 -18t22.5 -53t-23 -52.5t-51 -17.5h-1.5h-1.5q-27 0 -49.5 18t-22.5 52v1zM425 874q3 33 26.5 51t51.5 19h1.5h1.5q29 1 53 -17t24 -54q0 -35 -24.5 -52.5t-53.5 -17.5q-30 -1 -55 17t-25 53v1z" horiz-adv-x="756" glyph-name="Udieresis"/>
<glyph unicode="Ý" glyph-name="Yacute"/>
<glyph unicode="Þ" horiz-adv-x="500" glyph-name="glyph236"/>
<glyph unicode="ß" d="M425 394q83 -9 150 -76t67 -150q0 -6 -0.5 -12t-1.5 -12q-4 -29 -20 -58t-45 -56q-28 -25 -62.5 -37t-70.5 -12q-63 0 -113.5 33.5t-50.5 88.5q0 12 3 25.5t10 27.5q5 9 15 15.5t22 9.5q3 1 7 1.5t7 0.5q11 1 19 -4.5t8 -18.5q0 -5 -1.5 -12t-5.5 -15l-2 -6t-1 -6 q0 -16 17 -28t39 -12t41 15.5t24 52.5q0 2 0.5 4t0.5 4v4v4q0 54 -33 97.5t-94 59.5q-38 10 -55.5 25t-20.5 32v3v3q0 21 18 38.5t43 24.5q43 11 61.5 40.5t18.5 63.5q0 41 -22.5 74.5t-57.5 33.5q-47 0 -75 -30.5t-28 -95.5v-479q0 -42 -14 -48.5t-49 -6.5h-102 q-30 0 -46.5 4.5t-16.5 33.5q0 10 6.5 15t15.5 9q1 0 2.5 0.5t2.5 1.5q11 4 19.5 11.5t8.5 25.5v395q0 112 64 178.5t188 72.5q22 0 48 -3t53 -10q63 -16 115 -57t53 -116v-4.5v-4.5q0 -3 -0.5 -5.5t-0.5 -4.5q-6 -53 -52.5 -92.5t-105.5 -56.5v1z" horiz-adv-x="654" glyph-name="germandbls"/>
<glyph unicode="à" d="M362 55q-22 -37 -63.5 -55t-88.5 -18h-3h-3q-66 2 -121.5 39t-58.5 112v2v2v2v2q0 77 57.5 116.5t126.5 53.5q29 7 58 9.5t53 2.5h19t16 -1q-4 50 -28 75.5t-58 25.5q-13 0 -26.5 -3.5t-27.5 -11.5q-10 -5 -20.5 -13t-20.5 -18q-8 -8 -20 -12.5t-26 -3.5h-2.5h-2.5 q-22 2 -40.5 14t-19.5 34v1.5t1 1.5v2v2q10 38 66.5 58t126.5 20h17.5t17.5 -1q86 -6 157.5 -43.5t71.5 -111.5v-236q0 -22 8.5 -28.5t19.5 -10.5l0.5 -0.5l0.5 -0.5q10 -3 18 -9t8 -23q0 -22 -14 -26t-30 -4h-1.5h-1.5h-119q-23 0 -35 6.5t-12 47.5v1zM354 260 q-1 -1 -1.5 -1h-1.5q-58 -1 -106 -30.5t-48 -87.5q2 -39 20 -56t41 -17q4 0 8.5 0.5t9.5 1.5q29 8 53.5 35.5t24.5 66.5v88v0zM189 677q-9 7 -14 14t-5 13q0 12 19 19.5t55 7.5q47 0 65 -8t30 -31l55 -94q7 -13 10.5 -22.5t3.5 -16.5t-3.5 -11t-11.5 -4q-9 0 -22.5 5.5 t-31.5 16.5l-150 111v0z" horiz-adv-x="575" glyph-name="agrave"/>
<glyph unicode="á" d="M362 55q-22 -37 -63.5 -55t-88.5 -18h-3h-3q-66 2 -121.5 39t-58.5 112v2v2v2v2q0 77 57.5 116.5t126.5 53.5q29 7 58 9.5t53 2.5h19t16 -1q-4 50 -28 75.5t-58 25.5q-13 0 -26.5 -3.5t-27.5 -11.5q-10 -5 -20.5 -13t-20.5 -18q-8 -8 -20 -12.5t-26 -3.5h-2.5h-2.5 q-22 2 -40.5 14t-19.5 34v1.5t1 1.5v2v2q10 38 66.5 58t126.5 20h17.5t17.5 -1q86 -6 157.5 -43.5t71.5 -111.5v-236q0 -22 8.5 -28.5t19.5 -10.5l0.5 -0.5l0.5 -0.5q10 -3 18 -9t8 -23q0 -22 -14 -26t-30 -4h-1.5h-1.5h-119q-23 0 -35 6.5t-12 47.5v1zM354 260 q-1 -1 -1.5 -1h-1.5q-58 -1 -106 -30.5t-48 -87.5q2 -39 20 -56t41 -17q4 0 8.5 0.5t9.5 1.5q29 8 53.5 35.5t24.5 66.5v88v0zM260 709q12 16 29.5 19t41.5 3q5 1 9.5 1h8.5q32 0 45 -10t13 -22v-2v-3q-1 -5 -4.5 -10.5t-8.5 -8.5l-158 -117q-4 -4 -8 -6t-7 -3 q-4 -2 -8 -2.5t-8 -0.5q-11 -1 -19 5t-9 16q0 3 1 6.5t3 7.5l79 127v0z" horiz-adv-x="575" glyph-name="aacute"/>
<glyph unicode="â" d="M362 55q-22 -37 -63.5 -55t-88.5 -18h-3h-3q-66 2 -121.5 39t-58.5 112v2v2v2v2q0 77 57.5 116.5t126.5 53.5q29 7 58 9.5t53 2.5h19t16 -1q-4 50 -28 75.5t-58 25.5q-13 0 -26.5 -3.5t-27.5 -11.5q-10 -5 -20.5 -13t-20.5 -18q-8 -8 -20 -12.5t-26 -3.5h-2.5h-2.5 q-22 2 -40.5 14t-19.5 34v1.5t1 1.5v2v2q10 38 66.5 58t126.5 20h17.5t17.5 -1q86 -6 157.5 -43.5t71.5 -111.5v-236q0 -22 8.5 -28.5t19.5 -10.5l0.5 -0.5l0.5 -0.5q10 -3 18 -9t8 -23q0 -22 -14 -26t-30 -4h-1.5h-1.5h-119q-23 0 -35 6.5t-12 47.5v1zM354 260 q-1 -1 -1.5 -1h-1.5q-58 -1 -106 -30.5t-48 -87.5q2 -39 20 -56t41 -17q4 0 8.5 0.5t9.5 1.5q29 8 53.5 35.5t24.5 66.5v88v0zM268 654l-126 -87q-11 -8 -21.5 -12t-18.5 -4q-10 0 -15.5 4.5t-5.5 12.5q0 7 5 16.5t16 20.5l126 127q9 8 17 13.5t16 8.5q2 0 4.5 0.5t5.5 0.5 q11 0 21.5 -6t22.5 -18l118 -117q13 -14 19 -26t6 -21t-5 -14.5t-14 -5.5q-8 -1 -19.5 4t-25.5 15l-126 88v0z" horiz-adv-x="575" glyph-name="acircumflex"/>
<glyph unicode="ã" d="M362 55q-22 -37 -63.5 -55t-88.5 -18h-3h-3q-66 2 -121.5 39t-58.5 112v2v2v2v2q0 77 57.5 116.5t126.5 53.5q29 7 58 9.5t53 2.5h19t16 -1q-4 50 -28 75.5t-58 25.5q-13 0 -26.5 -3.5t-27.5 -11.5q-10 -5 -20.5 -13t-20.5 -18q-8 -8 -20 -12.5t-26 -3.5h-2.5h-2.5 q-22 2 -40.5 14t-19.5 34v1.5t1 1.5v2v2q10 38 66.5 58t126.5 20h17.5t17.5 -1q86 -6 157.5 -43.5t71.5 -111.5v-236q0 -22 8.5 -28.5t19.5 -10.5l0.5 -0.5l0.5 -0.5q10 -3 18 -9t8 -23q0 -22 -14 -26t-30 -4h-1.5h-1.5h-119q-23 0 -35 6.5t-12 47.5v1zM354 260 q-1 -1 -1.5 -1h-1.5q-58 -1 -106 -30.5t-48 -87.5q2 -39 20 -56t41 -17q4 0 8.5 0.5t9.5 1.5q29 8 53.5 35.5t24.5 66.5v88v0zM71 622q21 55 54.5 80.5t75.5 26.5q16 0 33 -3.5t34 -9.5q11 -4 21 -9.5t19 -10.5q19 -11 35.5 -20t32.5 -9q13 0 25 7.5t24 25.5l5.5 5.5 t5.5 4.5q3 1 5.5 2t5.5 1q8 0 14.5 -6.5t6.5 -17.5q1 -6 -2 -13.5t-9 -15.5q-7 -10 -15 -19t-15 -16q-23 -22 -45.5 -30.5t-43.5 -9.5q-27 0 -52 9t-47 21q-23 11 -42.5 20t-36.5 9q-13 0 -23.5 -7t-18.5 -24q-4 -9 -9.5 -15t-10.5 -10q-4 -2 -7.5 -3t-6.5 -1q-7 0 -12 5 t-5 15q0 4 1 8.5t3 8.5v1z" horiz-adv-x="575" glyph-name="atilde"/>
<glyph unicode="ä" d="M362 55q-22 -37 -63.5 -55t-88.5 -18h-3h-3q-66 2 -121.5 39t-58.5 112v2v2v2v2q0 77 57.5 116.5t126.5 53.5q29 7 58 9.5t53 2.5h19t16 -1q-4 50 -28 75.5t-58 25.5q-13 0 -26.5 -3.5t-27.5 -11.5q-10 -5 -20.5 -13t-20.5 -18q-8 -8 -20 -12.5t-26 -3.5h-2.5h-2.5 q-22 2 -40.5 14t-19.5 34v1.5t1 1.5v2v2q10 38 66.5 58t126.5 20h17.5t17.5 -1q86 -6 157.5 -43.5t71.5 -111.5v-236q0 -22 8.5 -28.5t19.5 -10.5l0.5 -0.5l0.5 -0.5q10 -3 18 -9t8 -23q0 -22 -14 -26t-30 -4h-1.5h-1.5h-119q-23 0 -35 6.5t-12 47.5v1zM354 260 q-1 -1 -1.5 -1h-1.5q-58 -1 -106 -30.5t-48 -87.5q2 -39 20 -56t41 -17q4 0 8.5 0.5t9.5 1.5q29 8 53.5 35.5t24.5 66.5v88v0zM87 630q0 34 23 51.5t51 17.5h1.5h1.5q27 0 49.5 -18t22.5 -52q0 -35 -23 -53t-51 -18h-1.5h-1.5q-27 0 -49.5 18t-22.5 53v1zM315 630 q3 33 26.5 50.5t51.5 18.5h1.5h1.5q29 1 52.5 -17t23.5 -53t-24.5 -53t-53.5 -18h-1.5h-1.5q-28 0 -52 18t-24 53v1z" horiz-adv-x="575" glyph-name="adieresis"/>
<glyph unicode="å" d="M362 55q-22 -37 -63.5 -55t-88.5 -18h-3h-3q-66 2 -121.5 39t-58.5 112v2v2v2v2q0 77 57.5 116.5t126.5 53.5q29 7 58 9.5t53 2.5h19t16 -1q-4 50 -28 75.5t-58 25.5q-13 0 -26.5 -3.5t-27.5 -11.5q-10 -5 -20.5 -13t-20.5 -18q-8 -8 -20 -12.5t-26 -3.5h-2.5h-2.5 q-22 2 -40.5 14t-19.5 34v1.5t1 1.5v2v2q10 38 66.5 58t126.5 20h17.5t17.5 -1q86 -6 157.5 -43.5t71.5 -111.5v-236q0 -22 8.5 -28.5t19.5 -10.5l0.5 -0.5l0.5 -0.5q10 -3 18 -9t8 -23q0 -22 -14 -26t-30 -4h-1.5h-1.5h-119q-23 0 -35 6.5t-12 47.5v1zM354 260 q-1 -1 -1.5 -1h-1.5q-58 -1 -106 -30.5t-48 -87.5q2 -39 20 -56t41 -17q4 0 8.5 0.5t9.5 1.5q29 8 53.5 35.5t24.5 66.5v88v0zM181 661v3v3q0 50 32 74.5t71 24.5h2.5h3.5q39 -1 71.5 -28t32.5 -78q0 -52 -33 -78.5t-73 -27.5h-1.5h-1.5q-39 1 -71.5 27.5t-32.5 78.5v1z M244 661q0 -21 13.5 -31.5t29.5 -10.5q17 0 30.5 10t13.5 31v3.5v2.5q1 20 -12.5 30.5t-30.5 10.5q-16 1 -30 -9.5t-14 -30.5v-2v-1v-2v-2v1z" horiz-adv-x="575" glyph-name="aring"/>
<glyph unicode="æ" d="M441 71q-31 -41 -84.5 -63t-110.5 -25q-6 -1 -11.5 -1h-10.5q-80 0 -144 35t-64 108q0 93 79.5 132.5t175.5 47.5q14 1 28 1.5t28 0.5h10.5h11.5q5 0 10.5 -0.5t10.5 -0.5q-7 60 -35.5 83.5t-62.5 24.5q-26 0 -50.5 -10.5t-40.5 -26.5q-11 -11 -24 -18t-26 -11 q-5 -1 -10.5 -1.5t-10.5 -0.5q-22 0 -38.5 12t-16.5 35q0 47 57.5 73t130.5 27h9.5h9.5q59 -3 113 -24t82 -61q35 35 78 54t88 26q10 1 20.5 2t21.5 1q80 0 140 -37t61 -102v-2v-1v-2v-2q-3 -69 -61 -99.5t-127 -39.5q-21 -3 -42 -4t-41 -1q-19 0 -36 1t-31 2 q7 -70 47.5 -102t92.5 -32q8 0 17 1t17 2q29 5 57 18t52 34q3 2 6.5 4t7.5 3t7.5 1.5t6.5 0.5q14 1 23.5 -6t9.5 -19q0 -7 -3 -14.5t-11 -16.5q-39 -47 -88 -70t-101 -27q-5 0 -10 -0.5t-10 -0.5q-61 0 -116 23.5t-92 66.5v1zM370 236q-2 -1 -3.5 -1h-3.5h-3.5h-3.5 q-76 1 -116 -25t-49 -57q-2 -5 -2.5 -10t-0.5 -10q0 -24 16.5 -42.5t47.5 -20.5q53 0 87 37t34 95q0 8 -0.5 16.5t-2.5 16.5v1zM528 276q14 -4 26 -5.5t24 -1.5q54 0 88.5 23t46.5 51q2 6 3.5 12t1.5 12q0 20 -15.5 34.5t-48.5 14.5q-45 0 -78 -34.5t-44 -75.5 q-2 -8 -3 -15.5t-1 -15.5v1z" horiz-adv-x="874" glyph-name="Otilde"/>
<glyph unicode="ç" d="M24 283q23 106 95 159t172 53q88 0 136.5 -25.5t64.5 -56.5q4 -8 6 -15.5t2 -14.5q0 -15 -7 -26.5t-21 -18.5q-9 -4 -16.5 -6t-15.5 -2q-23 0 -40 14.5t-33 32.5q-2 2 -3.5 4t-3.5 4q-14 15 -28.5 27t-32.5 12q-47 0 -73 -53t-27 -117v-1.5v-1.5v-2.5v-2.5 q1 -47 17.5 -90t51.5 -63q13 -7 26.5 -11t26.5 -4q31 0 60 13t47 28l7.5 7.5t5.5 6.5q9 11 18 15t17 5q14 0 24 -10t10 -23v-4.5t-1 -4.5q-1 -3 -2 -5.5t-3 -4.5q-40 -65 -92.5 -88t-111.5 -23h-10t-10 1q-5 0 -10 0.5t-10 0.5l-16 -47q5 1 10.5 2.5t11.5 1.5h5.5t4.5 -1 q29 -4 53.5 -27t24.5 -55q-3 -43 -32 -63.5t-62 -23.5q-4 -1 -7.5 -1h-6.5q-28 0 -50.5 9t-30.5 24q-2 4 -3.5 8.5t-1.5 8.5q0 8 5 13t14 5q7 0 15.5 -2.5t18.5 -8.5q4 -3 8 -5l8 -4q3 -1 7 -1.5t8 -0.5q16 0 27.5 11t11.5 31q0 23 -9 31t-23 8q-4 0 -9 -0.5t-10 -1.5 q-1 0 -3 -0.5t-4 -1.5l-12 -2t-11 -1q-7 -1 -11 1.5t-4 10.5q0 2 0.5 5t1.5 6l24 79q-88 19 -140.5 79t-52.5 151q0 13 1 26t3 26v1z" horiz-adv-x="520" glyph-name="ccedilla"/>
<glyph unicode="è" d="M205 165q7 -48 45 -75.5t86 -27.5q6 0 12 0.5t12 1.5q23 3 46 14t43 31q17 17 32 24.5t26 8.5q13 0 20 -8t8 -21q0 -6 -1.5 -12.5t-5.5 -14.5q-24 -49 -92 -77.5t-145 -28.5h-3.5h-3.5q-91 2 -169 50t-91 158q-1 10 -1.5 19.5t-0.5 18.5q0 107 68 166t149 79q22 5 44 7.5 t42 2.5q22 0 41.5 -2.5t35.5 -7.5q60 -19 93 -55t34 -77q0 -4 -0.5 -8t-0.5 -8q-10 -55 -87 -102t-236 -57v1zM197 236q7 0 13.5 1t13.5 2q42 7 78.5 20.5t51.5 38.5q5 6 8 12t5 12t3 11.5t1 11.5q1 27 -17.5 46.5t-44.5 19.5q-9 1 -18.5 -2t-19.5 -9q-5 -3 -9.5 -6.5 t-9.5 -8.5q-17 -17 -29 -35.5t-18 -37.5q-5 -13 -7.5 -26.5t-2.5 -26.5q0 -6 0.5 -12t1.5 -12v1zM173 677q-9 7 -14 14t-5 13q0 12 19 19.5t55 7.5q47 0 65 -8t30 -31l55 -94q7 -13 10.5 -22.5t3.5 -16.5t-3.5 -11t-11.5 -4q-9 0 -22.5 5.5t-31.5 16.5l-150 111v0z" horiz-adv-x="559" glyph-name="egrave"/>
<glyph unicode="é" d="M205 165q7 -48 45 -75.5t86 -27.5q6 0 12 0.5t12 1.5q23 3 46 14t43 31q17 17 32 24.5t26 8.5q13 0 20 -8t8 -21q0 -6 -1.5 -12.5t-5.5 -14.5q-24 -49 -92 -77.5t-145 -28.5h-3.5h-3.5q-91 2 -169 50t-91 158q-1 10 -1.5 19.5t-0.5 18.5q0 107 68 166t149 79q22 5 44 7.5 t42 2.5q22 0 41.5 -2.5t35.5 -7.5q60 -19 93 -55t34 -77q0 -4 -0.5 -8t-0.5 -8q-10 -55 -87 -102t-236 -57v1zM197 236q7 0 13.5 1t13.5 2q42 7 78.5 20.5t51.5 38.5q5 6 8 12t5 12t3 11.5t1 11.5q1 27 -17.5 46.5t-44.5 19.5q-9 1 -18.5 -2t-19.5 -9q-5 -3 -9.5 -6.5 t-9.5 -8.5q-17 -17 -29 -35.5t-18 -37.5q-5 -13 -7.5 -26.5t-2.5 -26.5q0 -6 0.5 -12t1.5 -12v1zM260 693q12 17 29.5 20t41.5 3q5 1 8.5 1h7.5q31 0 45 -9.5t15 -20.5v-1.5v-1.5v-2v-3q-1 -5 -4.5 -10.5t-8.5 -8.5l-158 -117q-4 -4 -8 -6t-7 -3q-4 -2 -8 -2.5t-8 -0.5 q-11 0 -19 5.5t-9 15.5q0 3 1 6.5t3 7.5l79 127v0z" horiz-adv-x="559" glyph-name="eacute"/>
<glyph unicode="ê" d="M205 165q7 -48 45 -75.5t86 -27.5q6 0 12 0.5t12 1.5q23 3 46 14t43 31q17 17 32 24.5t26 8.5q13 0 20 -8t8 -21q0 -6 -1.5 -12.5t-5.5 -14.5q-24 -49 -92 -77.5t-145 -28.5h-3.5h-3.5q-91 2 -169 50t-91 158q-1 10 -1.5 19.5t-0.5 18.5q0 107 68 166t149 79q22 5 44 7.5 t42 2.5q22 0 41.5 -2.5t35.5 -7.5q60 -19 93 -55t34 -77q0 -4 -0.5 -8t-0.5 -8q-10 -55 -87 -102t-236 -57v1zM197 236q7 0 13.5 1t13.5 2q42 7 78.5 20.5t51.5 38.5q5 6 8 12t5 12t3 11.5t1 11.5q1 27 -17.5 46.5t-44.5 19.5q-9 1 -18.5 -2t-19.5 -9q-5 -3 -9.5 -6.5 t-9.5 -8.5q-17 -17 -29 -35.5t-18 -37.5q-5 -13 -7.5 -26.5t-2.5 -26.5q0 -6 0.5 -12t1.5 -12v1zM283 646l-126 -87q-11 -8 -21 -11.5t-18 -3.5q-10 0 -15.5 4.5t-5.5 11.5t5 16.5t16 20.5l126 127q9 8 17 13.5t16 8.5q2 0 4.5 0.5t5.5 0.5q11 0 21.5 -6t22.5 -18l118 -117 q13 -14 19 -26t6 -21t-5 -14.5t-15 -5.5q-8 -1 -19.5 4t-25.5 15l-126 88v0z" horiz-adv-x="559" glyph-name="ecircumflex"/>
<glyph unicode="ë" d="M205 165q7 -48 45 -75.5t86 -27.5q6 0 12 0.5t12 1.5q23 3 46 14t43 31q17 17 32 24.5t26 8.5q13 0 20 -8t8 -21q0 -6 -1.5 -12.5t-5.5 -14.5q-24 -49 -92 -77.5t-145 -28.5h-3.5h-3.5q-91 2 -169 50t-91 158q-1 10 -1.5 19.5t-0.5 18.5q0 107 68 166t149 79q22 5 44 7.5 t42 2.5q22 0 41.5 -2.5t35.5 -7.5q60 -19 93 -55t34 -77q0 -4 -0.5 -8t-0.5 -8q-10 -55 -87 -102t-236 -57v1zM197 236q7 0 13.5 1t13.5 2q42 7 78.5 20.5t51.5 38.5q5 6 8 12t5 12t3 11.5t1 11.5q1 27 -17.5 46.5t-44.5 19.5q-9 1 -18.5 -2t-19.5 -9q-5 -3 -9.5 -6.5 t-9.5 -8.5q-17 -17 -29 -35.5t-18 -37.5q-5 -13 -7.5 -26.5t-2.5 -26.5q0 -6 0.5 -12t1.5 -12v1zM87 630q0 34 23 51.5t51 17.5h1.5h1.5q27 0 49.5 -18t22.5 -52q0 -35 -23 -53t-51 -18h-1.5h-1.5q-27 0 -49.5 18t-22.5 53v1zM315 630q3 33 26.5 50.5t51.5 18.5h1.5h1.5 q29 1 52.5 -17t23.5 -53t-24.5 -53t-53.5 -18h-1.5h-1.5q-28 0 -52 18t-24 53v1z" horiz-adv-x="559" glyph-name="edieresis"/>
<glyph unicode="ì" d="M79 94v252q0 20 -8.5 29.5t-18.5 14.5q-3 1 -5 2l-4 2q-8 4 -13.5 8.5t-5.5 13.5q0 18 11.5 34t35.5 21l94 25q5 1 10.5 1.5t10.5 0.5h2.5h2.5q20 -1 36.5 -14t16.5 -44v-338q0 -25 6 -33t14 -12q1 -1 2 -1.5t2 -0.5q6 -3 10.5 -7.5t4.5 -17.5q0 -23 -18.5 -26.5 t-59.5 -3.5h-118q-18 0 -33 3.5t-15 26.5q0 10 5 15t11 9q1 0 2 0.5t2 1.5q8 4 14 11.5t6 25.5v1zM55 685q-9 7 -14 14t-5 13q0 12 19 19.5t55 7.5q47 0 65 -8t30 -31l55 -94q7 -13 10.5 -22.5t3.5 -16.5t-3.5 -11t-11.5 -4q-9 0 -22.5 5.5t-31.5 16.5l-150 111v0z" horiz-adv-x="299" glyph-name="igrave"/>
<glyph unicode="í" d="M79 94v252q0 20 -8.5 29.5t-18.5 14.5q-3 1 -5 2l-4 2q-8 4 -13.5 8.5t-5.5 13.5q0 18 11.5 34t35.5 21l94 25q5 1 10.5 1.5t10.5 0.5h2.5h2.5q20 -1 36.5 -14t16.5 -44v-338q0 -25 6 -33t14 -12q1 -1 2 -1.5t2 -0.5q6 -3 10.5 -7.5t4.5 -17.5q0 -23 -18.5 -26.5 t-59.5 -3.5h-118q-18 0 -33 3.5t-15 26.5q0 10 5 15t11 9q1 0 2 0.5t2 1.5q8 4 14 11.5t6 25.5v1zM150 709q11 16 29 19t41 3q5 1 9.5 1h8.5q30 0 43.5 -9t15.5 -19v-1.5v-1.5q0 -7 -4 -13.5t-10 -11.5l-157 -117q-8 -7 -16 -9.5t-16 -2.5q-11 -1 -18.5 5t-8.5 16q0 3 1 6.5 t3 7.5l79 127v0z" horiz-adv-x="299" glyph-name="iacute"/>
<glyph unicode="î" d="M79 94v252q0 20 -8.5 29.5t-18.5 14.5q-3 1 -5 2l-4 2q-8 4 -13.5 8.5t-5.5 13.5q0 18 11.5 34t35.5 21l94 25q5 1 10.5 1.5t10.5 0.5h2.5h2.5q20 -1 36.5 -14t16.5 -44v-338q0 -25 6 -33t14 -12q1 -1 2 -1.5t2 -0.5q6 -3 10.5 -7.5t4.5 -17.5q0 -23 -18.5 -26.5 t-59.5 -3.5h-118q-18 0 -33 3.5t-15 26.5q0 10 5 15t11 9q1 0 2 0.5t2 1.5q8 4 14 11.5t6 25.5v1zM165 638l-126 -87q-11 -8 -21 -11.5t-18 -3.5q-9 0 -14.5 4.5t-5.5 12.5q0 7 5 16.5t15 20.5l126 127q11 10 21.5 16t20.5 6q4 0 7.5 -0.5t7.5 -1.5q7 -3 14.5 -8t15.5 -13 l118 -118q13 -14 19 -26t6 -21t-5 -14.5t-15 -5.5q-8 -1 -19.5 4t-25.5 15l-126 88v0z" horiz-adv-x="299" glyph-name="icircumflex"/>
<glyph unicode="ï" d="M79 94v252q0 20 -8.5 29.5t-18.5 14.5q-3 1 -5 2l-4 2q-8 4 -13.5 8.5t-5.5 13.5q0 18 11.5 34t35.5 21l94 25q5 1 10.5 1.5t10.5 0.5h2.5h2.5q20 -1 36.5 -14t16.5 -44v-338q0 -25 6 -33t14 -12q1 -1 2 -1.5t2 -0.5q6 -3 10.5 -7.5t4.5 -17.5q0 -23 -18.5 -26.5 t-59.5 -3.5h-118q-18 0 -33 3.5t-15 26.5q0 10 5 15t11 9q1 0 2 0.5t2 1.5q8 4 14 11.5t6 25.5v1zM-24 630q1 34 23.5 51.5t50.5 17.5q29 1 52.5 -17t23.5 -53t-23 -53t-51 -18q-28 -1 -51.5 17t-23.5 54zM205 630q3 33 26.5 50.5t51.5 18.5h1.5h1.5q29 1 52.5 -17t23.5 -53 t-24.5 -53t-53.5 -18h-1.5h-1.5q-28 0 -52 18t-24 53v1z" horiz-adv-x="299" glyph-name="idieresis"/>
<glyph unicode="ð" horiz-adv-x="500" glyph-name="glyph233"/>
<glyph unicode="ñ" d="M220 425q27 31 65.5 47.5t79.5 18.5q3 1 7 1h8q68 0 123.5 -39t55.5 -115v-236q0 -22 7.5 -30t16.5 -12q0 -1 1 -1t2 -1q8 -4 14 -9.5t6 -18.5q0 -23 -15.5 -26.5t-62.5 -3.5h-95q-41 0 -60 3.5t-19 26.5q0 11 5.5 17t12.5 10q0 1 0.5 1t1.5 1q8 5 14 12t6 22v253 q0 31 -20.5 47.5t-47.5 17.5q-4 0 -7.5 -0.5t-6.5 -0.5q-32 -5 -58 -34.5t-26 -85.5v-180q0 -25 7.5 -35.5t16.5 -16.5q2 -2 4.5 -3t4.5 -2q6 -4 10.5 -9t4.5 -14q0 -23 -21 -26.5t-50 -3.5h-134h-5.5t-4.5 -1h-5.5h-4.5q-11 0 -19 5t-8 26q0 7 5 13t12 11q2 1 3.5 2.5 t3.5 2.5q8 7 15.5 14.5t7.5 19.5v246q0 25 -8.5 36t-18.5 17l-6 2t-5 2q-7 3 -12 7t-5 13q0 6 4.5 12t12.5 12q17 14 47 26.5t62 20.5q9 2 16.5 2.5t14.5 1.5q20 0 31.5 -13.5t15.5 -53.5v1zM118 614q21 55 54.5 80.5t75.5 26.5q16 0 32.5 -3.5t34.5 -9.5q11 -4 21 -9.5 t19 -10.5q19 -11 35.5 -20t32.5 -9q13 0 25 7.5t24 25.5l5.5 5.5t5.5 4.5q3 1 5.5 2t5.5 1q8 0 14.5 -6.5t6.5 -17.5q1 -6 -2 -13t-9 -15q-31 -43 -61 -59t-59 -16q-26 0 -51 9t-47 20q-23 11 -42.5 20t-36.5 9q-13 1 -23.5 -6.5t-18.5 -24.5q-4 -7 -8 -12.5t-8 -9.5 q-5 -4 -9 -5.5t-8 -1.5q-7 0 -12.5 5t-5.5 15q0 4 1 8.5t3 8.5v1z" horiz-adv-x="614" glyph-name="ntilde"/>
<glyph unicode="ò" d="M24 236q2 135 89.5 199t193.5 64h2.5h3.5q106 -2 195 -66t90 -182v-2v-2v-2v-2q-5 -129 -94 -192t-195 -64h-1.5h-1.5q-106 -1 -194 61.5t-88 186.5v1zM197 244q0 -94 34.5 -140t76.5 -46h1.5h1.5q43 1 78.5 50t35.5 143q0 88 -35 132t-77 44q-43 0 -79.5 -46t-36.5 -138 v1zM213 669q-10 7 -14.5 14t-4.5 13q-1 12 18.5 19.5t55.5 7.5q46 0 63.5 -7t29.5 -30q0 -1 0.5 -1.5l0.5 -0.5l55 -93q8 -14 11 -23.5t3 -16.5t-3.5 -11t-11.5 -4t-22 5.5t-32 16.5l-149 111v0z" horiz-adv-x="614" glyph-name="ograve"/>
<glyph unicode="ó" d="M24 236q2 135 89.5 199t193.5 64h2.5h3.5q106 -2 195 -66t90 -182v-2v-2v-2v-2q-5 -129 -94 -192t-195 -64h-1.5h-1.5q-106 -1 -194 61.5t-88 186.5v1zM197 244q0 -94 34.5 -140t76.5 -46h1.5h1.5q43 1 78.5 50t35.5 143q0 88 -35 132t-77 44q-43 0 -79.5 -46t-36.5 -138 v1zM260 709q12 16 29.5 19t41.5 3q5 1 9.5 1h8.5q32 0 45 -10t13 -22v-2v-3q-1 -5 -4.5 -10.5t-8.5 -8.5l-158 -117q-4 -4 -8 -6t-7 -3q-4 -2 -8 -2.5t-8 -0.5q-11 -1 -19 5t-9 16q0 3 1 6.5t3 7.5l79 127v0z" horiz-adv-x="614" glyph-name="oacute"/>
<glyph unicode="ô" d="M24 236q2 135 89.5 199t193.5 64h2.5h3.5q106 -2 195 -66t90 -182v-2v-2v-2v-2q-5 -129 -94 -192t-195 -64h-1.5h-1.5q-106 -1 -194 61.5t-88 186.5v1zM197 244q0 -94 34.5 -140t76.5 -46h1.5h1.5q43 1 78.5 50t35.5 143q0 88 -35 132t-77 44q-43 0 -79.5 -46t-36.5 -138 v1zM315 654l-126 -87q-11 -8 -21.5 -12t-18.5 -4q-10 0 -15.5 4.5t-5.5 12.5q0 7 5.5 16.5t16.5 20.5l126 127q11 11 21.5 17t20.5 6q11 0 21.5 -6t22.5 -18l118 -117q13 -14 19 -26t7 -21q0 -9 -5 -14.5t-15 -5.5q-8 -1 -19.5 4t-25.5 15l-126 88v0z" horiz-adv-x="614" glyph-name="ocircumflex"/>
<glyph unicode="õ" d="M24 236q2 135 89.5 199t193.5 64h2.5h3.5q106 -2 195 -66t90 -182v-2v-2v-2v-2q-5 -129 -94 -192t-195 -64h-1.5h-1.5q-106 -1 -194 61.5t-88 186.5v1zM197 244q0 -94 34.5 -140t76.5 -46h1.5h1.5q43 1 78.5 50t35.5 143q0 88 -35 132t-77 44q-43 0 -79.5 -46t-36.5 -138 v1zM110 622q22 55 55 80.5t76 26.5q15 0 32 -3.5t34 -9.5q11 -4 21 -9.5t19 -10.5q19 -11 36 -20t33 -9q6 0 12 2t13 6q6 3 12 9.5t12 15.5q5 7 10.5 10t10.5 3q9 0 15 -6.5t7 -16.5q0 -7 -2.5 -14.5t-9.5 -15.5q-7 -10 -15 -19t-15 -16q-23 -22 -45.5 -30.5t-43.5 -9.5 q-26 0 -51 9t-47 21q-23 11 -43 20t-37 9q-13 0 -23.5 -7t-18.5 -24q-4 -7 -8 -12.5t-8 -9.5q-5 -4 -9 -5.5t-8 -1.5q-7 0 -12.5 5t-5.5 15q0 4 1 8.5t3 8.5v1z" horiz-adv-x="614" glyph-name="otilde"/>
<glyph unicode="ö" d="M24 236q2 135 89.5 199t193.5 64h2.5h3.5q106 -2 195 -66t90 -182v-2v-2v-2v-2q-5 -129 -94 -192t-195 -64h-1.5h-1.5q-106 -1 -194 61.5t-88 186.5v1zM197 244q0 -94 34.5 -140t76.5 -46h1.5h1.5q43 1 78.5 50t35.5 143q0 88 -35 132t-77 44q-43 0 -79.5 -46t-36.5 -138 v1zM102 630q0 34 23 51.5t51 17.5q29 1 52.5 -17t23.5 -53t-23 -53t-51 -18q-28 -1 -52 17t-24 54v1zM331 630q3 33 26.5 50.5t51.5 18.5h1.5h1.5q29 1 52.5 -17t23.5 -53t-24.5 -53t-53.5 -18h-1.5h-1.5q-28 0 -52 18t-24 53v1z" horiz-adv-x="614" glyph-name="odieresis"/>
<glyph unicode="÷" glyph-name="Aacute"/>
<glyph unicode="ø" d="M150 39q-56 25 -85 78t-30 113v6.5v6.5q4 57 34 110t88 87q42 23 83.5 33t81.5 11q35 0 68.5 -7t66.5 -21l39 56q2 3 8.5 6.5t13.5 4.5q1 1 3 1h3q7 0 12 -2.5t5 -9.5q0 -3 -1.5 -7.5t-4.5 -9.5l-47 -62q58 -35 86.5 -81t32.5 -94q1 -5 1 -9.5v-8.5q0 -80 -52.5 -150 t-130.5 -90q-9 -3 -18.5 -5t-18.5 -4q-19 -3 -37.5 -5t-36.5 -2q-35 0 -69 7.5t-64 23.5l-39 -54q-3 -3 -7.5 -5.5t-9.5 -3.5q-8 -2 -15 0.5t-7 11.5q0 4 1.5 8.5t5.5 11.5l40 55v0zM236 87q14 -15 29 -23.5t31 -12.5q5 -1 10 -1.5t10 -0.5q47 -1 83.5 46.5t37.5 141.5 q0 24 -3 51t-9 57l-189 -258v0zM213 126l189 260q-12 16 -30.5 25t-40.5 9q-5 0 -9.5 -0.5t-9.5 -1.5q-41 -8 -75 -53t-34 -138q0 -22 2.5 -47.5t7.5 -54.5v1z" horiz-adv-x="614" glyph-name="OE"/>
<glyph unicode="ù" d="M394 55q-26 -30 -60.5 -47.5t-71.5 -22.5q-8 -2 -16.5 -2.5t-16.5 -0.5q-65 0 -115.5 37.5t-50.5 113.5v221q0 17 -6 26t-13 15q-2 1 -3 2t-3 2q-5 5 -9.5 10t-4.5 15q0 13 9 20.5t30 14.5q9 3 21 6t26 6q20 5 38.5 8.5t31.5 3.5q19 1 29.5 -7t10.5 -28v-298 q0 -44 21 -63.5t49 -19.5h5.5t4.5 1q32 3 59 28.5t27 67.5v190q0 17 -6 25t-14 13q-1 0 -1.5 0.5l-0.5 0.5q-7 5 -12.5 11t-5.5 20q0 13 9.5 20.5t33.5 14.5q10 3 23 6t29 6q23 5 40.5 8.5t29.5 3.5q17 1 24.5 -7t7.5 -28v-346q0 -22 8.5 -28.5t19.5 -10.5l0.5 -0.5 l0.5 -0.5q10 -3 18 -9t8 -23q0 -23 -12.5 -26.5t-42.5 -3.5h-94q-29 0 -38.5 6t-15.5 43q0 1 -0.5 2.5t-0.5 2.5v1zM213 669q-10 7 -14.5 14t-4.5 13q-1 12 18.5 19.5t55.5 7.5q46 0 63.5 -7t29.5 -30q0 -1 0.5 -1.5l0.5 -0.5l55 -93q8 -14 11 -23.5t3 -16.5t-3.5 -11 t-11.5 -4t-22 5.5t-32 16.5l-149 111v0z" horiz-adv-x="614" glyph-name="ugrave"/>
<glyph unicode="ú" d="M394 55q-26 -30 -60.5 -47.5t-71.5 -22.5q-8 -2 -16.5 -2.5t-16.5 -0.5q-65 0 -115.5 37.5t-50.5 113.5v221q0 17 -6 26t-13 15q-2 1 -3 2t-3 2q-5 5 -9.5 10t-4.5 15q0 13 9 20.5t30 14.5q9 3 21 6t26 6q20 5 38.5 8.5t31.5 3.5q19 1 29.5 -7t10.5 -28v-298 q0 -44 21 -63.5t49 -19.5h5.5t4.5 1q32 3 59 28.5t27 67.5v190q0 17 -6 25t-14 13q-1 0 -1.5 0.5l-0.5 0.5q-7 5 -12.5 11t-5.5 20q0 13 9.5 20.5t33.5 14.5q10 3 23 6t29 6q23 5 40.5 8.5t29.5 3.5q17 1 24.5 -7t7.5 -28v-346q0 -22 8.5 -28.5t19.5 -10.5l0.5 -0.5 l0.5 -0.5q10 -3 18 -9t8 -23q0 -23 -12.5 -26.5t-42.5 -3.5h-94q-29 0 -38.5 6t-15.5 43q0 1 -0.5 2.5t-0.5 2.5v1zM268 709q11 16 29 19t42 3q5 1 9.5 1h8.5q32 0 45 -10t13 -22v-2v-3q-1 -5 -4.5 -10.5t-8.5 -8.5l-158 -117q-4 -4 -8 -6t-7 -3q-4 -2 -8 -2.5t-8 -0.5 q-11 -1 -19 5t-9 16q0 3 1 6.5t3 7.5l79 127v0z" horiz-adv-x="614" glyph-name="uacute"/>
<glyph unicode="û" d="M394 55q-26 -30 -60.5 -47.5t-71.5 -22.5q-8 -2 -16.5 -2.5t-16.5 -0.5q-65 0 -115.5 37.5t-50.5 113.5v221q0 17 -6 26t-13 15q-2 1 -3 2t-3 2q-5 5 -9.5 10t-4.5 15q0 13 9 20.5t30 14.5q9 3 21 6t26 6q20 5 38.5 8.5t31.5 3.5q19 1 29.5 -7t10.5 -28v-298 q0 -44 21 -63.5t49 -19.5h5.5t4.5 1q32 3 59 28.5t27 67.5v190q0 17 -6 25t-14 13q-1 0 -1.5 0.5l-0.5 0.5q-7 5 -12.5 11t-5.5 20q0 13 9.5 20.5t33.5 14.5q10 3 23 6t29 6q23 5 40.5 8.5t29.5 3.5q17 1 24.5 -7t7.5 -28v-346q0 -22 8.5 -28.5t19.5 -10.5l0.5 -0.5 l0.5 -0.5q10 -3 18 -9t8 -23q0 -23 -12.5 -26.5t-42.5 -3.5h-94q-29 0 -38.5 6t-15.5 43q0 1 -0.5 2.5t-0.5 2.5v1zM291 646l-126 -87q-11 -8 -21 -11.5t-18 -3.5q-10 0 -15.5 4.5t-5.5 11.5t5 16.5t16 20.5l126 127q11 11 21.5 17t20.5 6q4 0 7.5 -0.5t7.5 -2.5 q7 -2 14.5 -7.5t15.5 -13.5l118 -117q13 -14 19 -26t6 -21t-5 -14.5t-15 -5.5q-8 -1 -19.5 4t-25.5 15l-126 88v0z" horiz-adv-x="614" glyph-name="ucircumflex"/>
<glyph unicode="ü" d="M394 55q-26 -30 -60.5 -47.5t-71.5 -22.5q-8 -2 -16.5 -2.5t-16.5 -0.5q-65 0 -115.5 37.5t-50.5 113.5v221q0 17 -6 26t-13 15q-2 1 -3 2t-3 2q-5 5 -9.5 10t-4.5 15q0 13 9 20.5t30 14.5q9 3 21 6t26 6q20 5 38.5 8.5t31.5 3.5q19 1 29.5 -7t10.5 -28v-298 q0 -44 21 -63.5t49 -19.5h5.5t4.5 1q32 3 59 28.5t27 67.5v190q0 17 -6 25t-14 13q-1 0 -1.5 0.5l-0.5 0.5q-7 5 -12.5 11t-5.5 20q0 13 9.5 20.5t33.5 14.5q10 3 23 6t29 6q23 5 40.5 8.5t29.5 3.5q17 1 24.5 -7t7.5 -28v-346q0 -22 8.5 -28.5t19.5 -10.5l0.5 -0.5 l0.5 -0.5q10 -3 18 -9t8 -23q0 -23 -12.5 -26.5t-42.5 -3.5h-94q-29 0 -38.5 6t-15.5 43q0 1 -0.5 2.5t-0.5 2.5v1zM94 630q0 34 23 51.5t51 17.5q29 1 52.5 -17t23.5 -53t-23 -53t-51 -18q-28 -1 -52 17t-24 54v1zM323 630q3 33 26.5 50.5t51.5 18.5h1.5h1.5q29 1 52.5 -17 t23.5 -53t-24.5 -53t-53.5 -18h-1.5h-1.5q-28 0 -52 18t-24 53v1z" horiz-adv-x="614" glyph-name="udieresis"/>
<glyph unicode="ý" glyph-name="yacute"/>
<glyph unicode="þ" horiz-adv-x="500" glyph-name="glyph237"/>
</font>
</defs>
</svg>
